# 3ds Max Wavefront OBJ Exporter v0.99 - (c)2007 guruware
# File Created: 19.05.2026 02:01:55

mtllib dronePropeller.mtl

#
# object propeller001
#

v  -0.5522 0.0184 1.6225
v  -0.5802 0.0244 1.6135
v  -0.6388 0.0181 1.8518
v  -0.6194 0.0134 1.8581
v  -0.4853 0.0229 1.3868
v  -0.5219 0.0296 1.3750
v  -0.4187 0.0270 1.1511
v  -0.4640 0.0339 1.1365
v  -0.3524 0.0305 0.9153
v  -0.4064 0.0371 0.8978
v  -0.2862 0.0335 0.6794
v  -0.3490 0.0392 0.6591
v  -0.2203 0.0360 0.4434
v  -0.2918 0.0403 0.4203
v  -0.1545 0.0380 0.2074
v  -0.2348 0.0404 0.1814
v  -0.0889 0.0394 -0.0287
v  -0.1778 0.0394 -0.0574
v  -0.0060 0.0331 -0.2592
v  -0.0862 0.0307 -0.2851
v  0.0772 0.0274 -0.4896
v  0.0057 0.0230 -0.5127
v  0.1606 0.0221 -0.7199
v  0.0978 0.0164 -0.7402
v  0.2443 0.0174 -0.9502
v  0.1902 0.0108 -0.9676
v  0.3281 0.0132 -1.1804
v  0.2828 0.0063 -1.1950
v  0.4121 0.0095 -1.4105
v  0.3755 0.0028 -1.4223
v  0.4963 0.0064 -1.6406
v  0.4683 0.0004 -1.6496
v  0.5806 0.0038 -1.8706
v  0.5612 -0.0010 -1.8769
v  -0.5243 0.0124 1.6315
v  -0.6000 0.0086 1.8643
v  -0.4487 0.0162 1.3987
v  -0.3734 0.0201 1.1657
v  -0.2983 0.0239 0.9327
v  -0.2234 0.0278 0.6996
v  -0.1487 0.0317 0.4665
v  -0.0743 0.0355 0.2333
v  0.0000 0.0394 0.0000
v  0.0743 0.0355 -0.2333
v  0.1487 0.0317 -0.4665
v  0.2234 0.0278 -0.6996
v  0.2983 0.0239 -0.9327
v  0.3734 0.0201 -1.1657
v  0.4487 0.0162 -1.3987
v  0.5243 0.0124 -1.6315
v  0.6000 0.0086 -1.8643
v  -0.4963 0.0064 1.6406
v  -0.5806 0.0038 1.8706
v  -0.4121 0.0095 1.4105
v  -0.3281 0.0132 1.1804
v  -0.2443 0.0174 0.9502
v  -0.1606 0.0221 0.7199
v  -0.0772 0.0274 0.4896
v  0.0060 0.0331 0.2592
v  0.0889 0.0394 0.0287
v  0.1545 0.0380 -0.2074
v  0.2203 0.0360 -0.4434
v  0.2862 0.0335 -0.6794
v  0.3524 0.0305 -0.9153
v  0.4187 0.0270 -1.1511
v  0.4853 0.0229 -1.3868
v  0.5522 0.0184 -1.6225
v  0.6194 0.0134 -1.8581
v  -0.4683 0.0004 1.6496
v  -0.5612 -0.0010 1.8769
v  -0.3755 0.0028 1.4223
v  -0.2828 0.0063 1.1950
v  -0.1902 0.0108 0.9676
v  -0.0978 0.0164 0.7402
v  -0.0057 0.0230 0.5127
v  0.0862 0.0307 0.2851
v  0.1778 0.0394 0.0574
v  0.2348 0.0404 -0.1814
v  0.2918 0.0403 -0.4203
v  0.3490 0.0392 -0.6591
v  0.4064 0.0371 -0.8978
v  0.4640 0.0339 -1.1365
v  0.5219 0.0296 -1.3750
v  0.5802 0.0244 -1.6135
v  0.6388 0.0181 -1.8518
v  -0.6399 0.0181 1.8515
v  -0.6403 0.0180 1.8539
v  -0.6404 0.0178 1.8558
v  -0.6400 0.0177 1.8567
v  -0.6208 0.0130 1.8629
v  -0.6016 0.0082 1.8691
v  -0.5824 0.0035 1.8753
v  -0.5632 -0.0013 1.8815
v  -0.5624 -0.0014 1.8810
v  -0.5613 -0.0015 1.8795
v  -0.5602 -0.0015 1.8772
v  -0.4669 -0.0004 1.6501
v  -0.3736 0.0019 1.4229
v  -0.2805 0.0052 1.1957
v  -0.1874 0.0096 0.9685
v  -0.0945 0.0151 0.7413
v  -0.0019 0.0217 0.5139
v  0.0905 0.0293 0.2865
v  0.1826 0.0380 0.0590
v  0.2391 0.0393 -0.1801
v  0.2957 0.0395 -0.4190
v  0.3525 0.0386 -0.6580
v  0.4094 0.0366 -0.8968
v  0.4666 0.0335 -1.1356
v  0.5240 0.0294 -1.3744
v  0.5817 0.0243 -1.6130
v  0.6399 0.0181 -1.8515
v  0.6403 0.0180 -1.8539
v  0.6404 0.0178 -1.8558
v  0.6400 0.0177 -1.8567
v  0.6208 0.0130 -1.8629
v  0.6016 0.0082 -1.8691
v  0.5824 0.0035 -1.8753
v  0.5632 -0.0013 -1.8815
v  0.5624 -0.0014 -1.8810
v  0.5613 -0.0015 -1.8795
v  0.5602 -0.0015 -1.8772
v  0.4669 -0.0004 -1.6501
v  0.3736 0.0019 -1.4229
v  0.2805 0.0052 -1.1957
v  0.1874 0.0096 -0.9685
v  0.0945 0.0151 -0.7413
v  0.0019 0.0217 -0.5139
v  -0.0905 0.0293 -0.2865
v  -0.1826 0.0380 -0.0590
v  -0.2391 0.0393 0.1801
v  -0.2957 0.0395 0.4190
v  -0.3525 0.0386 0.6580
v  -0.4094 0.0366 0.8968
v  -0.4666 0.0335 1.1356
v  -0.5240 0.0294 1.3744
v  -0.5817 0.0243 1.6130
v  -0.6416 0.0173 1.8555
v  -0.6408 0.0175 1.8512
v  -0.6417 0.0171 1.8588
v  -0.6411 0.0168 1.8602
v  -0.6220 0.0121 1.8663
v  -0.6029 0.0074 1.8725
v  -0.5838 0.0027 1.8787
v  -0.5647 -0.0021 1.8848
v  -0.5634 -0.0023 1.8840
v  -0.5615 -0.0024 1.8813
v  -0.5597 -0.0025 1.8774
v  -0.4660 -0.0017 1.6503
v  -0.3725 0.0001 1.4233
v  -0.2789 0.0031 1.1962
v  -0.1855 0.0072 0.9691
v  -0.0923 0.0123 0.7420
v  0.0007 0.0186 0.5148
v  0.0935 0.0259 0.2875
v  0.1860 0.0344 0.0601
v  0.2423 0.0361 -0.1790
v  0.2987 0.0367 -0.4181
v  0.3551 0.0362 -0.6571
v  0.4118 0.0346 -0.8961
v  0.4686 0.0319 -1.1350
v  0.5257 0.0282 -1.3738
v  0.5831 0.0234 -1.6125
v  0.6408 0.0175 -1.8512
v  0.6416 0.0173 -1.8555
v  0.6417 0.0171 -1.8588
v  0.6411 0.0168 -1.8602
v  0.6220 0.0121 -1.8663
v  0.6029 0.0074 -1.8725
v  0.5838 0.0027 -1.8787
v  0.5647 -0.0021 -1.8848
v  0.5634 -0.0023 -1.8840
v  0.5615 -0.0024 -1.8813
v  0.5597 -0.0025 -1.8774
v  0.4660 -0.0017 -1.6503
v  0.3725 0.0001 -1.4233
v  0.2789 0.0031 -1.1962
v  0.1855 0.0072 -0.9691
v  0.0923 0.0123 -0.7420
v  -0.0007 0.0186 -0.5148
v  -0.0935 0.0259 -0.2875
v  -0.1860 0.0344 -0.0601
v  -0.2423 0.0361 0.1790
v  -0.2987 0.0367 0.4181
v  -0.3551 0.0362 0.6571
v  -0.4118 0.0346 0.8961
v  -0.4686 0.0319 1.1350
v  -0.5257 0.0282 1.3738
v  -0.5831 0.0234 1.6125
v  -0.6422 0.0163 1.8560
v  -0.6413 0.0165 1.8510
v  -0.6423 0.0160 1.8598
v  -0.6416 0.0157 1.8614
v  -0.6226 0.0110 1.8675
v  -0.6036 0.0063 1.8737
v  -0.5845 0.0016 1.8798
v  -0.5655 -0.0031 1.8860
v  -0.5639 -0.0034 1.8851
v  -0.5618 -0.0036 1.8819
v  -0.5596 -0.0036 1.8774
v  -0.4660 -0.0034 1.6504
v  -0.3723 -0.0020 1.4234
v  -0.2786 0.0004 1.1963
v  -0.1851 0.0040 0.9693
v  -0.0917 0.0087 0.7422
v  0.0016 0.0145 0.5150
v  0.0946 0.0214 0.2878
v  0.1873 0.0294 0.0605
v  0.2436 0.0316 -0.1786
v  0.2999 0.0328 -0.4177
v  0.3563 0.0328 -0.6567
v  0.4129 0.0317 -0.8957
v  0.4696 0.0295 -1.1347
v  0.5265 0.0262 -1.3735
v  0.5838 0.0219 -1.6123
v  0.6413 0.0165 -1.8510
v  0.6422 0.0163 -1.8560
v  0.6423 0.0160 -1.8598
v  0.6416 0.0157 -1.8614
v  0.6226 0.0110 -1.8675
v  0.6036 0.0063 -1.8737
v  0.5845 0.0016 -1.8798
v  0.5655 -0.0031 -1.8860
v  0.5639 -0.0034 -1.8851
v  0.5618 -0.0036 -1.8819
v  0.5596 -0.0036 -1.8774
v  0.4660 -0.0034 -1.6504
v  0.3723 -0.0020 -1.4234
v  0.2786 0.0004 -1.1963
v  0.1851 0.0040 -0.9693
v  0.0917 0.0087 -0.7422
v  -0.0016 0.0145 -0.5150
v  -0.0946 0.0214 -0.2878
v  -0.1873 0.0294 -0.0605
v  -0.2436 0.0316 0.1786
v  -0.2999 0.0328 0.4177
v  -0.3563 0.0328 0.6567
v  -0.4129 0.0317 0.8957
v  -0.4696 0.0295 1.1347
v  -0.5265 0.0262 1.3735
v  -0.5838 0.0219 1.6123
v  -0.6432 0.0121 1.8557
v  -0.6423 0.0122 1.8507
v  -0.6433 0.0118 1.8595
v  -0.6426 0.0116 1.8611
v  -0.6235 0.0069 1.8672
v  -0.6045 0.0021 1.8734
v  -0.5854 -0.0026 1.8795
v  -0.5664 -0.0073 1.8857
v  -0.5649 -0.0075 1.8848
v  -0.5627 -0.0078 1.8816
v  -0.5606 -0.0079 1.8771
v  -0.4671 -0.0095 1.6500
v  -0.3736 -0.0100 1.4229
v  -0.2800 -0.0094 1.1959
v  -0.1864 -0.0077 0.9689
v  -0.0928 -0.0050 0.7418
v  0.0007 -0.0011 0.5148
v  0.0941 0.0039 0.2877
v  0.1873 0.0100 0.0605
v  0.2441 0.0141 -0.1784
v  0.3008 0.0172 -0.4174
v  0.3574 0.0191 -0.6564
v  0.4142 0.0199 -0.8953
v  0.4710 0.0196 -1.1342
v  0.5279 0.0182 -1.3731
v  0.5850 0.0158 -1.6119
v  0.6423 0.0122 -1.8507
v  0.6432 0.0121 -1.8557
v  0.6433 0.0118 -1.8595
v  0.6426 0.0116 -1.8611
v  0.6235 0.0069 -1.8672
v  0.6045 0.0021 -1.8734
v  0.5854 -0.0026 -1.8795
v  0.5664 -0.0073 -1.8857
v  0.5649 -0.0075 -1.8848
v  0.5627 -0.0078 -1.8816
v  0.5606 -0.0079 -1.8771
v  0.4671 -0.0095 -1.6500
v  0.3736 -0.0100 -1.4229
v  0.2800 -0.0094 -1.1959
v  0.1864 -0.0077 -0.9689
v  0.0928 -0.0050 -0.7418
v  -0.0007 -0.0011 -0.5148
v  -0.0941 0.0039 -0.2877
v  -0.1873 0.0100 -0.0605
v  -0.2441 0.0141 0.1784
v  -0.3008 0.0172 0.4174
v  -0.3574 0.0191 0.6564
v  -0.4142 0.0199 0.8953
v  -0.4710 0.0196 1.1342
v  -0.5279 0.0182 1.3731
v  -0.5850 0.0158 1.6119
v  -0.6430 0.0110 1.8550
v  -0.6422 0.0111 1.8507
v  -0.6431 0.0107 1.8583
v  -0.6425 0.0105 1.8597
v  -0.6234 0.0058 1.8659
v  -0.6043 0.0011 1.8720
v  -0.5852 -0.0036 1.8782
v  -0.5661 -0.0084 1.8844
v  -0.5648 -0.0086 1.8836
v  -0.5630 -0.0088 1.8808
v  -0.5611 -0.0089 1.8769
v  -0.4678 -0.0110 1.6498
v  -0.3745 -0.0120 1.4226
v  -0.2810 -0.0119 1.1956
v  -0.1875 -0.0107 0.9685
v  -0.0940 -0.0084 0.7414
v  -0.0005 -0.0050 0.5143
v  0.0928 -0.0006 0.2872
v  0.1860 0.0050 0.0601
v  0.2430 0.0096 -0.1788
v  0.3000 0.0131 -0.4177
v  0.3568 0.0155 -0.6565
v  0.4137 0.0168 -0.8954
v  0.4707 0.0170 -1.1343
v  0.5277 0.0161 -1.3732
v  0.5849 0.0141 -1.6120
v  0.6422 0.0111 -1.8507
v  0.6430 0.0110 -1.8550
v  0.6431 0.0107 -1.8583
v  0.6425 0.0105 -1.8597
v  0.6234 0.0058 -1.8659
v  0.6043 0.0011 -1.8720
v  0.5852 -0.0036 -1.8782
v  0.5661 -0.0084 -1.8844
v  0.5648 -0.0086 -1.8836
v  0.5630 -0.0088 -1.8808
v  0.5611 -0.0089 -1.8769
v  0.4678 -0.0110 -1.6498
v  0.3745 -0.0120 -1.4226
v  0.2810 -0.0119 -1.1956
v  0.1875 -0.0107 -0.9685
v  0.0940 -0.0084 -0.7414
v  0.0005 -0.0050 -0.5143
v  -0.0928 -0.0006 -0.2872
v  -0.1860 0.0050 -0.0601
v  -0.2430 0.0096 0.1788
v  -0.3000 0.0131 0.4177
v  -0.3568 0.0155 0.6565
v  -0.4137 0.0168 0.8954
v  -0.4707 0.0170 1.1343
v  -0.5277 0.0161 1.3732
v  -0.5849 0.0141 1.6120
v  -0.6421 0.0100 1.8534
v  -0.6416 0.0101 1.8509
v  -0.6421 0.0099 1.8553
v  -0.6418 0.0098 1.8561
v  -0.6226 0.0050 1.8623
v  -0.6034 0.0003 1.8685
v  -0.5842 -0.0045 1.8747
v  -0.5649 -0.0092 1.8809
v  -0.5642 -0.0093 1.8805
v  -0.5631 -0.0094 1.8789
v  -0.5620 -0.0095 1.8766
v  -0.4692 -0.0119 1.6493
v  -0.3762 -0.0132 1.4221
v  -0.2830 -0.0135 1.1949
v  -0.1899 -0.0127 0.9677
v  -0.0967 -0.0108 0.7406
v  -0.0035 -0.0078 0.5134
v  0.0896 -0.0038 0.2862
v  0.1826 0.0013 0.0590
v  0.2400 0.0062 -0.1798
v  0.2973 0.0100 -0.4185
v  0.3546 0.0127 -0.6573
v  0.4118 0.0143 -0.8960
v  0.4691 0.0148 -1.1348
v  0.5265 0.0143 -1.3735
v  0.5840 0.0127 -1.6122
v  0.6416 0.0101 -1.8509
v  0.6421 0.0100 -1.8534
v  0.6421 0.0099 -1.8553
v  0.6418 0.0098 -1.8561
v  0.6226 0.0050 -1.8623
v  0.6034 0.0003 -1.8685
v  0.5842 -0.0045 -1.8747
v  0.5649 -0.0092 -1.8809
v  0.5642 -0.0093 -1.8805
v  0.5631 -0.0094 -1.8789
v  0.5620 -0.0095 -1.8766
v  0.4692 -0.0119 -1.6493
v  0.3762 -0.0132 -1.4221
v  0.2830 -0.0135 -1.1949
v  0.1899 -0.0127 -0.9677
v  0.0967 -0.0108 -0.7406
v  0.0035 -0.0078 -0.5134
v  -0.0896 -0.0038 -0.2862
v  -0.1826 0.0013 -0.0590
v  -0.2400 0.0062 0.1798
v  -0.2973 0.0100 0.4185
v  -0.3546 0.0127 0.6573
v  -0.4118 0.0143 0.8960
v  -0.4691 0.0148 1.1348
v  -0.5265 0.0143 1.3735
v  -0.5840 0.0127 1.6122
v  -0.6407 0.0095 1.8512
v  -0.6213 0.0048 1.8575
v  -0.6019 0.0000 1.8637
v  -0.5825 -0.0048 1.8700
v  -0.5631 -0.0095 1.8762
v  -0.4707 -0.0120 1.6488
v  -0.3782 -0.0134 1.4214
v  -0.2856 -0.0138 1.1941
v  -0.1928 -0.0131 0.9668
v  -0.1001 -0.0114 0.7395
v  -0.0074 -0.0087 0.5121
v  0.0853 -0.0049 0.2848
v  0.1778 0.0000 0.0574
v  0.2357 0.0049 -0.1811
v  0.2935 0.0087 -0.4197
v  0.3513 0.0114 -0.6583
v  0.4090 0.0131 -0.8970
v  0.4668 0.0138 -1.1356
v  0.5246 0.0134 -1.3741
v  0.5826 0.0120 -1.6127
v  0.6407 0.0095 -1.8512
v  0.6213 0.0048 -1.8575
v  0.6019 -0.0000 -1.8637
v  0.5825 -0.0048 -1.8700
v  0.5631 -0.0095 -1.8762
v  0.4707 -0.0120 -1.6488
v  0.3782 -0.0134 -1.4214
v  0.2856 -0.0138 -1.1941
v  0.1928 -0.0131 -0.9668
v  0.1001 -0.0114 -0.7395
v  0.0074 -0.0087 -0.5121
v  -0.0853 -0.0049 -0.2848
v  -0.1778 0.0000 -0.0574
v  -0.2357 0.0049 0.1811
v  -0.2935 0.0087 0.4197
v  -0.3513 0.0114 0.6583
v  -0.4090 0.0131 0.8970
v  -0.4668 0.0138 1.1356
v  -0.5246 0.0134 1.3741
v  -0.5826 0.0120 1.6127
v  0.5546 0.0060 -1.6217
v  0.4880 0.0067 -1.3860
v  0.4215 0.0069 -1.1502
v  0.3550 0.0066 -0.9144
v  0.2885 0.0057 -0.6786
v  0.2220 0.0043 -0.4428
v  0.1555 0.0024 -0.2070
v  0.0889 0.0000 0.0287
v  0.0050 -0.0024 0.2589
v  -0.0789 -0.0043 0.4890
v  -0.1629 -0.0057 0.7192
v  -0.2469 -0.0066 0.9493
v  -0.3309 -0.0069 1.1795
v  -0.4148 -0.0067 1.4096
v  -0.4987 -0.0060 1.6398
v  0.5267 -0.0000 -1.6308
v  0.4514 -0.0000 -1.3978
v  0.3762 -0.0000 -1.1648
v  0.3009 -0.0000 -0.9319
v  0.2257 -0.0000 -0.6989
v  0.1505 -0.0000 -0.4659
v  0.0752 -0.0000 -0.2330
v  0.0000 0.0000 -0.0000
v  -0.0752 0.0000 0.2330
v  -0.1505 0.0000 0.4659
v  -0.2257 0.0000 0.6989
v  -0.3009 0.0000 0.9319
v  -0.3762 0.0000 1.1648
v  -0.4514 0.0000 1.3978
v  -0.5267 0.0000 1.6308
v  0.4987 -0.0060 -1.6398
v  0.4148 -0.0067 -1.4096
v  0.3309 -0.0069 -1.1795
v  0.2469 -0.0066 -0.9493
v  0.1629 -0.0057 -0.7192
v  0.0789 -0.0043 -0.4890
v  -0.0050 -0.0024 -0.2589
v  -0.0889 0.0000 -0.0287
v  -0.1555 0.0024 0.2070
v  -0.2220 0.0043 0.4428
v  -0.2885 0.0057 0.6786
v  -0.3550 0.0066 0.9144
v  -0.4215 0.0069 1.1502
v  -0.4880 0.0067 1.3860
v  -0.5546 0.0060 1.6217
# 482 vertices

vn 0.1861 0.9798 0.0733
vn 0.0604 0.9974 0.0399
vn 0.0879 0.9936 0.0706
vn 0.2031 0.9728 0.1110
vn 0.1596 0.9851 0.0636
vn 0.0335 0.9990 0.0293
vn 0.1329 0.9897 0.0538
vn 0.0065 0.9998 0.0187
vn 0.1061 0.9934 0.0440
vn -0.0204 0.9998 0.0080
vn 0.0792 0.9963 0.0342
vn -0.0474 0.9989 -0.0027
vn 0.0522 0.9983 0.0243
vn -0.0742 0.9972 -0.0133
vn 0.0252 0.9996 0.0145
vn -0.1011 0.9946 -0.0240
vn 0.0031 0.9999 -0.0096
vn -0.1258 0.9903 -0.0588
vn -0.0191 0.9993 -0.0333
vn -0.1392 0.9862 -0.0898
vn -0.0468 0.9981 -0.0411
vn -0.1666 0.9813 -0.0967
vn -0.0744 0.9960 -0.0489
vn -0.1938 0.9756 -0.1035
vn -0.1019 0.9932 -0.0567
vn -0.2209 0.9690 -0.1103
vn -0.1294 0.9895 -0.0645
vn -0.2478 0.9617 -0.1170
vn -0.1567 0.9850 -0.0722
vn -0.2745 0.9536 -0.1236
vn -0.1839 0.9797 -0.0799
vn -0.3009 0.9447 -0.1302
vn -0.2013 0.9726 -0.1166
vn -0.3140 0.9367 -0.1547
vn 0.1850 0.9797 0.0766
vn 0.2022 0.9727 0.1138
vn 0.1581 0.9851 0.0679
vn 0.1311 0.9896 0.0592
vn 0.1040 0.9933 0.0504
vn 0.0768 0.9962 0.0416
vn 0.0495 0.9982 0.0327
vn 0.0222 0.9995 0.0239
vn 0.0000 1.0000 -0.0000
vn -0.0222 0.9995 -0.0239
vn -0.0495 0.9982 -0.0327
vn -0.0768 0.9962 -0.0416
vn -0.1040 0.9933 -0.0504
vn -0.1311 0.9896 -0.0592
vn -0.1581 0.9851 -0.0679
vn -0.1850 0.9797 -0.0766
vn -0.2022 0.9727 -0.1138
vn 0.1839 0.9797 0.0799
vn 0.2013 0.9726 0.1166
vn 0.1567 0.9850 0.0722
vn 0.1294 0.9895 0.0645
vn 0.1019 0.9932 0.0567
vn 0.0744 0.9960 0.0489
vn 0.0468 0.9981 0.0411
vn 0.0191 0.9993 0.0333
vn -0.0031 0.9999 0.0096
vn -0.0252 0.9996 -0.0145
vn -0.0522 0.9983 -0.0243
vn -0.0792 0.9963 -0.0342
vn -0.1061 0.9934 -0.0440
vn -0.1329 0.9897 -0.0538
vn -0.1596 0.9851 -0.0636
vn -0.1861 0.9798 -0.0733
vn -0.2031 0.9728 -0.1110
vn 0.3009 0.9447 0.1302
vn 0.3140 0.9367 0.1547
vn 0.2745 0.9536 0.1236
vn 0.2478 0.9617 0.1170
vn 0.2209 0.9690 0.1103
vn 0.1938 0.9756 0.1035
vn 0.1666 0.9813 0.0967
vn 0.1392 0.9862 0.0898
vn 0.1258 0.9903 0.0588
vn 0.1011 0.9946 0.0240
vn 0.0742 0.9972 0.0133
vn 0.0474 0.9989 0.0027
vn 0.0204 0.9998 -0.0080
vn -0.0065 0.9998 -0.0187
vn -0.0335 0.9990 -0.0293
vn -0.0604 0.9974 -0.0399
vn -0.0879 0.9936 -0.0706
vn -0.2971 0.9543 -0.0312
vn -0.2724 0.9621 0.0139
vn -0.1525 0.9827 0.1051
vn 0.0608 0.9773 0.2028
vn 0.1689 0.9625 0.2124
vn 0.1681 0.9621 0.2146
vn 0.1673 0.9618 0.2168
vn 0.2551 0.9270 0.2751
vn 0.4648 0.8281 0.3134
vn 0.5918 0.7477 0.3012
vn 0.6304 0.7247 0.2782
vn 0.6126 0.7473 0.2573
vn 0.5913 0.7660 0.2522
vn 0.5696 0.7840 0.2469
vn 0.5473 0.8014 0.2414
vn 0.5246 0.8181 0.2359
vn 0.5014 0.8341 0.2301
vn 0.4778 0.8494 0.2242
vn 0.4789 0.8611 0.1706
vn 0.4622 0.8797 0.1121
vn 0.4384 0.8929 0.1026
vn 0.4143 0.9054 0.0931
vn 0.3898 0.9171 0.0834
vn 0.3651 0.9281 0.0737
vn 0.3400 0.9383 0.0638
vn 0.3147 0.9477 0.0539
vn 0.2971 0.9543 0.0312
vn 0.2724 0.9621 -0.0139
vn 0.1525 0.9827 -0.1051
vn -0.0608 0.9773 -0.2028
vn -0.1689 0.9625 -0.2124
vn -0.1681 0.9621 -0.2146
vn -0.1673 0.9618 -0.2168
vn -0.2551 0.9270 -0.2751
vn -0.4648 0.8281 -0.3134
vn -0.5918 0.7477 -0.3012
vn -0.6304 0.7247 -0.2782
vn -0.6126 0.7473 -0.2573
vn -0.5913 0.7660 -0.2522
vn -0.5696 0.7840 -0.2469
vn -0.5473 0.8014 -0.2414
vn -0.5246 0.8181 -0.2359
vn -0.5014 0.8341 -0.2301
vn -0.4778 0.8494 -0.2242
vn -0.4789 0.8611 -0.1706
vn -0.4622 0.8797 -0.1121
vn -0.4384 0.8929 -0.1026
vn -0.4143 0.9054 -0.0931
vn -0.3898 0.9171 -0.0834
vn -0.3651 0.9281 -0.0737
vn -0.3400 0.9383 -0.0638
vn -0.3147 0.9477 -0.0539
vn -0.6924 0.7208 -0.0313
vn -0.7216 0.6797 -0.1314
vn -0.5367 0.8268 0.1686
vn -0.2094 0.8762 0.4340
vn 0.0582 0.8716 0.4868
vn 0.0575 0.8708 0.4883
vn 0.0568 0.8700 0.4898
vn 0.2785 0.7517 0.5978
vn 0.6391 0.5340 0.5535
vn 0.8167 0.3480 0.4602
vn 0.8758 0.2856 0.3890
vn 0.8766 0.3156 0.3632
vn 0.8673 0.3426 0.3610
vn 0.8573 0.3694 0.3586
vn 0.8465 0.3958 0.3559
vn 0.8351 0.4219 0.3530
vn 0.8229 0.4477 0.3499
vn 0.8100 0.4731 0.3466
vn 0.8240 0.4962 0.2734
vn 0.8285 0.5240 0.1977
vn 0.8140 0.5481 0.1922
vn 0.7989 0.5719 0.1865
vn 0.7831 0.5951 0.1806
vn 0.7667 0.6178 0.1745
vn 0.7497 0.6401 0.1682
vn 0.7321 0.6618 0.1617
vn 0.7216 0.6797 0.1314
vn 0.6924 0.7208 0.0313
vn 0.5367 0.8268 -0.1686
vn 0.2094 0.8762 -0.4340
vn -0.0582 0.8716 -0.4868
vn -0.0575 0.8708 -0.4883
vn -0.0568 0.8700 -0.4898
vn -0.2785 0.7517 -0.5978
vn -0.6391 0.5340 -0.5535
vn -0.8167 0.3480 -0.4602
vn -0.8758 0.2856 -0.3890
vn -0.8766 0.3156 -0.3632
vn -0.8673 0.3426 -0.3610
vn -0.8573 0.3694 -0.3586
vn -0.8465 0.3958 -0.3559
vn -0.8351 0.4219 -0.3530
vn -0.8229 0.4477 -0.3499
vn -0.8100 0.4731 -0.3466
vn -0.8240 0.4962 -0.2734
vn -0.8285 0.5240 -0.1977
vn -0.8140 0.5481 -0.1922
vn -0.7989 0.5719 -0.1865
vn -0.7831 0.5951 -0.1806
vn -0.7667 0.6178 -0.1745
vn -0.7497 0.6401 -0.1682
vn -0.7321 0.6618 -0.1617
vn -0.9267 0.3697 -0.0667
vn -0.9182 0.3510 -0.1837
vn -0.8572 0.4493 0.2515
vn -0.5111 0.4422 0.7370
vn -0.1857 0.4132 0.8915
vn -0.1859 0.4125 0.8918
vn -0.1862 0.4119 0.8920
vn 0.1446 0.2774 0.9498
vn 0.6645 0.0730 0.7438
vn 0.8574 -0.0703 0.5097
vn 0.9084 -0.0988 0.4062
vn 0.9221 -0.0702 0.3804
vn 0.9237 -0.0416 0.3809
vn 0.9244 -0.0129 0.3812
vn 0.9244 0.0158 0.3812
vn 0.9235 0.0445 0.3809
vn 0.9219 0.0731 0.3804
vn 0.9195 0.1017 0.3796
vn 0.9434 0.1309 0.3047
vn 0.9607 0.1589 0.2276
vn 0.9560 0.1871 0.2261
vn 0.9505 0.2151 0.2243
vn 0.9442 0.2430 0.2223
vn 0.9372 0.2707 0.2200
vn 0.9294 0.2982 0.2175
vn 0.9209 0.3254 0.2148
vn 0.9182 0.3510 0.1837
vn 0.9267 0.3697 0.0667
vn 0.8572 0.4493 -0.2515
vn 0.5111 0.4422 -0.7370
vn 0.1857 0.4132 -0.8915
vn 0.1859 0.4125 -0.8918
vn 0.1862 0.4119 -0.8920
vn -0.1446 0.2774 -0.9498
vn -0.6645 0.0730 -0.7438
vn -0.8574 -0.0703 -0.5097
vn -0.9084 -0.0988 -0.4062
vn -0.9221 -0.0702 -0.3804
vn -0.9237 -0.0416 -0.3809
vn -0.9244 -0.0129 -0.3812
vn -0.9244 0.0158 -0.3812
vn -0.9235 0.0445 -0.3809
vn -0.9219 0.0731 -0.3804
vn -0.9195 0.1017 -0.3796
vn -0.9434 0.1309 -0.3047
vn -0.9607 0.1589 -0.2276
vn -0.9560 0.1871 -0.2261
vn -0.9505 0.2151 -0.2243
vn -0.9442 0.2430 -0.2223
vn -0.9372 0.2707 -0.2200
vn -0.9294 0.2981 -0.2175
vn -0.9209 0.3254 -0.2148
vn -0.9935 0.0704 -0.0893
vn -0.9743 0.0987 -0.2026
vn -0.9744 -0.0738 0.2125
vn -0.6733 -0.2815 0.6837
vn -0.3710 -0.4160 0.8302
vn -0.3711 -0.4166 0.8299
vn -0.3711 -0.4173 0.8296
vn -0.0162 -0.4466 0.8946
vn 0.5502 -0.4509 0.7028
vn 0.7923 -0.3700 0.4852
vn 0.8535 -0.3511 0.3851
vn 0.8739 -0.3255 0.3612
vn 0.8825 -0.2983 0.3635
vn 0.8905 -0.2708 0.3656
vn 0.8977 -0.2431 0.3675
vn 0.9041 -0.2152 0.3691
vn 0.9098 -0.1872 0.3705
vn 0.9147 -0.1590 0.3716
vn 0.9448 -0.1296 0.3009
vn 0.9684 -0.1017 0.2279
vn 0.9707 -0.0731 0.2291
vn 0.9722 -0.0445 0.2300
vn 0.9729 -0.0158 0.2307
vn 0.9728 0.0129 0.2312
vn 0.9720 0.0415 0.2314
vn 0.9703 0.0702 0.2313
vn 0.9743 0.0987 0.2026
vn 0.9935 0.0704 0.0893
vn 0.9744 -0.0738 -0.2125
vn 0.6733 -0.2815 -0.6837
vn 0.3710 -0.4160 -0.8302
vn 0.3711 -0.4166 -0.8299
vn 0.3711 -0.4173 -0.8296
vn 0.0162 -0.4466 -0.8946
vn -0.5502 -0.4509 -0.7028
vn -0.7923 -0.3700 -0.4852
vn -0.8535 -0.3511 -0.3851
vn -0.8739 -0.3255 -0.3612
vn -0.8825 -0.2983 -0.3635
vn -0.8905 -0.2708 -0.3656
vn -0.8977 -0.2431 -0.3675
vn -0.9041 -0.2152 -0.3691
vn -0.9098 -0.1872 -0.3705
vn -0.9147 -0.1590 -0.3716
vn -0.9448 -0.1296 -0.3009
vn -0.9684 -0.1017 -0.2279
vn -0.9707 -0.0731 -0.2291
vn -0.9722 -0.0445 -0.2300
vn -0.9729 -0.0158 -0.2307
vn -0.9728 0.0129 -0.2312
vn -0.9720 0.0415 -0.2314
vn -0.9703 0.0702 -0.2313
vn -0.9305 -0.3488 -0.1116
vn -0.9365 -0.2859 -0.2031
vn -0.8413 -0.5365 0.0661
vn -0.5749 -0.7564 0.3120
vn -0.3305 -0.8752 0.3534
vn -0.3301 -0.8760 0.3518
vn -0.3298 -0.8767 0.3501
vn -0.0807 -0.8817 0.4649
vn 0.3407 -0.8301 0.4414
vn 0.5835 -0.7222 0.3714
vn 0.6653 -0.6803 0.3074
vn 0.6916 -0.6622 0.2886
vn 0.7098 -0.6405 0.2933
vn 0.7274 -0.6182 0.2977
vn 0.7445 -0.5955 0.3020
vn 0.7608 -0.5722 0.3061
vn 0.7766 -0.5485 0.3100
vn 0.7917 -0.5243 0.3136
vn 0.8304 -0.4943 0.2572
vn 0.8587 -0.4733 0.1967
vn 0.8710 -0.4479 0.2019
vn 0.8826 -0.4222 0.2068
vn 0.8935 -0.3961 0.2116
vn 0.9037 -0.3696 0.2161
vn 0.9132 -0.3429 0.2203
vn 0.9219 -0.3158 0.2244
vn 0.9365 -0.2859 0.2031
vn 0.9305 -0.3488 0.1116
vn 0.8413 -0.5365 -0.0661
vn 0.5749 -0.7564 -0.3120
vn 0.3305 -0.8752 -0.3534
vn 0.3301 -0.8760 -0.3518
vn 0.3298 -0.8767 -0.3501
vn 0.0807 -0.8817 -0.4649
vn -0.3407 -0.8301 -0.4414
vn -0.5835 -0.7222 -0.3714
vn -0.6653 -0.6803 -0.3074
vn -0.6916 -0.6622 -0.2886
vn -0.7098 -0.6405 -0.2933
vn -0.7274 -0.6182 -0.2977
vn -0.7445 -0.5955 -0.3020
vn -0.7608 -0.5722 -0.3061
vn -0.7766 -0.5485 -0.3100
vn -0.7917 -0.5243 -0.3136
vn -0.8304 -0.4943 -0.2572
vn -0.8587 -0.4733 -0.1967
vn -0.8710 -0.4479 -0.2019
vn -0.8826 -0.4222 -0.2068
vn -0.8935 -0.3961 -0.2116
vn -0.9037 -0.3696 -0.2161
vn -0.9132 -0.3429 -0.2203
vn -0.9219 -0.3158 -0.2244
vn -0.6529 -0.7487 -0.1145
vn -0.6707 -0.7253 -0.1553
vn -0.5572 -0.8298 -0.0312
vn -0.3642 -0.9294 0.0598
vn -0.2584 -0.9640 0.0635
vn -0.2577 -0.9643 0.0613
vn -0.2571 -0.9646 0.0590
vn -0.1635 -0.9798 0.1147
vn 0.0670 -0.9847 0.1607
vn 0.2174 -0.9633 0.1573
vn 0.2638 -0.9550 0.1353
vn 0.2914 -0.9481 0.1269
vn 0.3178 -0.9387 0.1335
vn 0.3440 -0.9285 0.1399
vn 0.3699 -0.9175 0.1463
vn 0.3954 -0.9057 0.1525
vn 0.4207 -0.8932 0.1587
vn 0.4455 -0.8800 0.1647
vn 0.4900 -0.8604 0.1400
vn 0.5155 -0.8500 0.1085
vn 0.5380 -0.8347 0.1177
vn 0.5601 -0.8186 0.1269
vn 0.5818 -0.8019 0.1358
vn 0.6030 -0.7845 0.1447
vn 0.6237 -0.7665 0.1534
vn 0.6438 -0.7478 0.1619
vn 0.6707 -0.7253 0.1553
vn 0.6529 -0.7487 0.1145
vn 0.5572 -0.8298 0.0312
vn 0.3642 -0.9294 -0.0598
vn 0.2584 -0.9640 -0.0635
vn 0.2577 -0.9643 -0.0613
vn 0.2571 -0.9646 -0.0590
vn 0.1635 -0.9798 -0.1147
vn -0.0670 -0.9847 -0.1607
vn -0.2174 -0.9633 -0.1573
vn -0.2638 -0.9550 -0.1353
vn -0.2914 -0.9481 -0.1269
vn -0.3178 -0.9387 -0.1335
vn -0.3440 -0.9285 -0.1399
vn -0.3699 -0.9175 -0.1463
vn -0.3954 -0.9057 -0.1525
vn -0.4207 -0.8932 -0.1587
vn -0.4455 -0.8800 -0.1647
vn -0.4900 -0.8604 -0.1400
vn -0.5155 -0.8500 -0.1085
vn -0.5380 -0.8347 -0.1177
vn -0.5601 -0.8186 -0.1269
vn -0.5818 -0.8019 -0.1358
vn -0.6030 -0.7845 -0.1447
vn -0.6237 -0.7665 -0.1534
vn -0.6438 -0.7478 -0.1619
vn -0.3407 -0.9374 -0.0728
vn -0.2268 -0.9732 -0.0380
vn -0.2259 -0.9733 -0.0408
vn -0.2250 -0.9734 -0.0436
vn -0.1078 -0.9941 -0.0090
vn -0.0675 -0.9976 -0.0178
vn -0.0394 -0.9992 -0.0107
vn -0.0113 -0.9999 -0.0037
vn 0.0168 -0.9999 0.0034
vn 0.0449 -0.9989 0.0104
vn 0.0730 -0.9972 0.0175
vn 0.1010 -0.9946 0.0245
vn 0.1368 -0.9903 0.0253
vn 0.1609 -0.9867 0.0227
vn 0.1872 -0.9818 0.0333
vn 0.2132 -0.9760 0.0437
vn 0.2391 -0.9695 0.0542
vn 0.2648 -0.9621 0.0645
vn 0.2903 -0.9540 0.0748
vn 0.3156 -0.9451 0.0849
vn 0.3407 -0.9374 0.0728
vn 0.2268 -0.9732 0.0380
vn 0.2259 -0.9733 0.0408
vn 0.2250 -0.9734 0.0436
vn 0.1078 -0.9941 0.0090
vn 0.0675 -0.9976 0.0178
vn 0.0394 -0.9992 0.0107
vn 0.0113 -0.9999 0.0037
vn -0.0168 -0.9999 -0.0034
vn -0.0449 -0.9989 -0.0104
vn -0.0730 -0.9972 -0.0175
vn -0.1010 -0.9946 -0.0245
vn -0.1368 -0.9903 -0.0253
vn -0.1609 -0.9867 -0.0227
vn -0.1872 -0.9818 -0.0333
vn -0.2132 -0.9760 -0.0437
vn -0.2391 -0.9695 -0.0542
vn -0.2648 -0.9621 -0.0645
vn -0.2903 -0.9540 -0.0748
vn -0.3156 -0.9451 -0.0849
vn 0.1912 -0.9799 0.0576
vn 0.1646 -0.9852 0.0479
vn 0.1379 -0.9897 0.0382
vn 0.1111 -0.9934 0.0284
vn 0.0842 -0.9963 0.0187
vn 0.0572 -0.9983 0.0089
vn 0.0302 -0.9995 -0.0010
vn 0.0031 -0.9999 -0.0096
vn -0.0241 -0.9995 -0.0179
vn -0.0518 -0.9983 -0.0256
vn -0.0794 -0.9963 -0.0334
vn -0.1070 -0.9934 -0.0412
vn -0.1345 -0.9897 -0.0489
vn -0.1618 -0.9852 -0.0566
vn -0.1890 -0.9799 -0.0643
vn 0.1901 -0.9799 0.0609
vn 0.1632 -0.9852 0.0523
vn 0.1362 -0.9897 0.0436
vn 0.1090 -0.9934 0.0348
vn 0.0818 -0.9963 0.0260
vn 0.0545 -0.9984 0.0173
vn 0.0272 -0.9996 0.0084
vn -0.0000 -1.0000 0.0000
vn -0.0272 -0.9996 -0.0084
vn -0.0545 -0.9984 -0.0173
vn -0.0818 -0.9963 -0.0260
vn -0.1090 -0.9934 -0.0348
vn -0.1362 -0.9897 -0.0436
vn -0.1632 -0.9852 -0.0523
vn -0.1901 -0.9799 -0.0609
vn 0.1890 -0.9799 0.0643
vn 0.1618 -0.9852 0.0566
vn 0.1345 -0.9897 0.0489
vn 0.1070 -0.9934 0.0412
vn 0.0794 -0.9963 0.0334
vn 0.0518 -0.9983 0.0256
vn 0.0241 -0.9995 0.0179
vn -0.0031 -0.9999 0.0096
vn -0.0302 -0.9995 0.0010
vn -0.0572 -0.9983 -0.0089
vn -0.0842 -0.9963 -0.0187
vn -0.1111 -0.9934 -0.0284
vn -0.1379 -0.9897 -0.0382
vn -0.1646 -0.9852 -0.0479
vn -0.1912 -0.9799 -0.0576
# 482 vertex normals

vt 0.0647 0.5682 0.5937
vt 0.0647 0.6428 0.7044
vt 0.0025 0.5984 0.5891
vt 0.0025 0.5466 0.5011
vt 0.1269 0.5905 0.6775
vt 0.1269 0.6882 0.8013
vt 0.1891 0.6136 0.7521
vt 0.1891 0.7345 0.8794
vt 0.2513 0.6372 0.8174
vt 0.2513 0.7815 0.9386
vt 0.3135 0.6615 0.8732
vt 0.3135 0.8291 0.9785
vt 0.3756 0.6863 0.9192
vt 0.3756 0.8773 0.9991
vt 0.4378 0.7116 0.9552
vt 0.4378 0.9258 1.0000
vt 0.5000 0.7373 0.9812
vt 0.5000 0.9746 0.9812
vt 0.5622 0.7168 0.8657
vt 0.5622 0.9310 0.8209
vt 0.6244 0.6956 0.7594
vt 0.6244 0.8865 0.6795
vt 0.6865 0.6737 0.6625
vt 0.6865 0.8413 0.5571
vt 0.7487 0.6513 0.5752
vt 0.7487 0.7956 0.4540
vt 0.8109 0.6283 0.4976
vt 0.8109 0.7493 0.3704
vt 0.8731 0.6049 0.4300
vt 0.8731 0.7026 0.3062
vt 0.9353 0.5810 0.3724
vt 0.9353 0.6557 0.2617
vt 0.9975 0.5569 0.3249
vt 0.9975 0.6086 0.2368
vt 0.0647 0.4936 0.4831
vt 0.0025 0.4949 0.4130
vt 0.1269 0.4928 0.5537
vt 0.1891 0.4926 0.6249
vt 0.2513 0.4930 0.6963
vt 0.3135 0.4939 0.7678
vt 0.3756 0.4954 0.8393
vt 0.4378 0.4974 0.9104
vt 0.5000 0.5000 0.9812
vt 0.5622 0.5026 0.9104
vt 0.6244 0.5046 0.8393
vt 0.6865 0.5061 0.7678
vt 0.7487 0.5070 0.6963
vt 0.8109 0.5074 0.6249
vt 0.8731 0.5072 0.5537
vt 0.9353 0.5064 0.4831
vt 0.9975 0.5051 0.4130
vt 0.0647 0.4190 0.3724
vt 0.0025 0.4431 0.3249
vt 0.1269 0.3951 0.4300
vt 0.1891 0.3717 0.4976
vt 0.2513 0.3487 0.5752
vt 0.3135 0.3263 0.6625
vt 0.3756 0.3044 0.7594
vt 0.4378 0.2832 0.8657
vt 0.5000 0.2627 0.9812
vt 0.5622 0.2884 0.9552
vt 0.6244 0.3137 0.9192
vt 0.6865 0.3385 0.8732
vt 0.7487 0.3628 0.8174
vt 0.8109 0.3864 0.7521
vt 0.8731 0.4095 0.6775
vt 0.9353 0.4318 0.5937
vt 0.9975 0.4534 0.5011
vt 0.0647 0.3443 0.2617
vt 0.0025 0.3914 0.2368
vt 0.1269 0.2974 0.3062
vt 0.1891 0.2507 0.3704
vt 0.2513 0.2044 0.4540
vt 0.3135 0.1587 0.5571
vt 0.3756 0.1135 0.6795
vt 0.4378 0.0690 0.8209
vt 0.5000 0.0254 0.9812
vt 0.5622 0.0742 1.0000
vt 0.6244 0.1227 0.9991
vt 0.6865 0.1709 0.9785
vt 0.7487 0.2185 0.9386
vt 0.8109 0.2655 0.8794
vt 0.8731 0.3118 0.8013
vt 0.9353 0.3572 0.7044
vt 0.9975 0.4016 0.5891
vt 0.0025 0.6013 0.5885
vt 0.0019 0.6005 0.5866
vt 0.0014 0.5992 0.5839
vt 0.0013 0.5977 0.5813
vt 0.0013 0.5464 0.4937
vt 0.0013 0.4951 0.4062
vt 0.0013 0.4438 0.3187
vt 0.0013 0.3925 0.2312
vt 0.0014 0.3910 0.2289
vt 0.0019 0.3897 0.2272
vt 0.0025 0.3888 0.2267
vt 0.0647 0.3406 0.2480
vt 0.1269 0.2924 0.2894
vt 0.1891 0.2445 0.3510
vt 0.2513 0.1970 0.4325
vt 0.3135 0.1499 0.5340
vt 0.3756 0.1034 0.6553
vt 0.4378 0.0576 0.7962
vt 0.5000 0.0127 0.9565
vt 0.5622 0.0627 0.9801
vt 0.6244 0.1124 0.9834
vt 0.6865 0.1617 0.9667
vt 0.7487 0.2105 0.9300
vt 0.8109 0.2588 0.8736
vt 0.8731 0.3063 0.7977
vt 0.9353 0.3530 0.7026
vt 0.9975 0.3987 0.5885
vt 0.9981 0.3995 0.5866
vt 0.9986 0.4008 0.5839
vt 0.9987 0.4023 0.5812
vt 0.9987 0.4536 0.4937
vt 0.9987 0.5049 0.4062
vt 0.9987 0.5562 0.3187
vt 0.9987 0.6075 0.2312
vt 0.9986 0.6090 0.2289
vt 0.9981 0.6103 0.2272
vt 0.9975 0.6112 0.2267
vt 0.9353 0.6594 0.2480
vt 0.8731 0.7076 0.2894
vt 0.8109 0.7555 0.3509
vt 0.7487 0.8030 0.4325
vt 0.6865 0.8501 0.5340
vt 0.6244 0.8966 0.6553
vt 0.5622 0.9424 0.7962
vt 0.5000 0.9873 0.9565
vt 0.4378 0.9373 0.9801
vt 0.3756 0.8876 0.9834
vt 0.3135 0.8383 0.9667
vt 0.2513 0.7895 0.9300
vt 0.1891 0.7412 0.8736
vt 0.1269 0.6937 0.7977
vt 0.0647 0.6470 0.7026
vt 0.0014 0.6024 0.5740
vt 0.0025 0.6038 0.5772
vt 0.0006 0.6000 0.5695
vt 0.0003 0.5975 0.5649
vt 0.0003 0.5465 0.4778
vt 0.0003 0.4956 0.3907
vt 0.0003 0.4447 0.3036
vt 0.0003 0.3937 0.2165
vt 0.0006 0.3911 0.2125
vt 0.0014 0.3888 0.2096
vt 0.0025 0.3873 0.2085
vt 0.0647 0.3382 0.2224
vt 0.1269 0.2893 0.2568
vt 0.1891 0.2405 0.3115
vt 0.2513 0.1920 0.3867
vt 0.3135 0.1439 0.4822
vt 0.3756 0.0964 0.5978
vt 0.4378 0.0495 0.7334
vt 0.5000 0.0034 0.8889
vt 0.5622 0.0540 0.9208
vt 0.6244 0.1045 0.9322
vt 0.6865 0.1546 0.9231
vt 0.7487 0.2042 0.8937
vt 0.8109 0.2533 0.8442
vt 0.8731 0.3018 0.7747
vt 0.9353 0.3494 0.6856
vt 0.9975 0.3962 0.5772
vt 0.9986 0.3976 0.5740
vt 0.9994 0.4000 0.5695
vt 0.9997 0.4025 0.5649
vt 0.9997 0.4535 0.4778
vt 0.9997 0.5044 0.3907
vt 0.9997 0.5553 0.3036
vt 0.9997 0.6063 0.2165
vt 0.9994 0.6089 0.2125
vt 0.9986 0.6112 0.2096
vt 0.9975 0.6127 0.2085
vt 0.9353 0.6618 0.2224
vt 0.8731 0.7107 0.2568
vt 0.8109 0.7595 0.3115
vt 0.7487 0.8080 0.3867
vt 0.6865 0.8561 0.4822
vt 0.6244 0.9036 0.5978
vt 0.5622 0.9505 0.7334
vt 0.5000 0.9966 0.8889
vt 0.4378 0.9460 0.9208
vt 0.3756 0.8955 0.9322
vt 0.3135 0.8454 0.9231
vt 0.2513 0.7958 0.8937
vt 0.1891 0.7467 0.8442
vt 0.1269 0.6982 0.7747
vt 0.0647 0.6506 0.6856
vt 0.0013 0.6035 0.5548
vt 0.0025 0.6052 0.5583
vt 0.0003 0.6008 0.5498
vt 0.0000 0.5979 0.5445
vt 0.0000 0.5471 0.4576
vt 0.0000 0.4962 0.3706
vt 0.0000 0.4454 0.2837
vt 0.0000 0.3946 0.1967
vt 0.0003 0.3916 0.1920
vt 0.0013 0.3889 0.1885
vt 0.0025 0.3872 0.1872
vt 0.0647 0.3380 0.1918
vt 0.1269 0.2888 0.2170
vt 0.1891 0.2397 0.2627
vt 0.2513 0.1908 0.3289
vt 0.3135 0.1423 0.4155
vt 0.3756 0.0942 0.5224
vt 0.4378 0.0468 0.6495
vt 0.5000 0.0000 0.7966
vt 0.5622 0.0506 0.8382
vt 0.6244 0.1011 0.8591
vt 0.6865 0.1514 0.8594
vt 0.7487 0.2013 0.8393
vt 0.8109 0.2507 0.7990
vt 0.8731 0.2995 0.7385
vt 0.9353 0.3475 0.6582
vt 0.9975 0.3948 0.5583
vt 0.9987 0.3965 0.5548
vt 0.9997 0.3992 0.5498
vt 1.0000 0.4021 0.5445
vt 1.0000 0.4529 0.4576
vt 1.0000 0.5038 0.3706
vt 1.0000 0.5546 0.2837
vt 1.0000 0.6054 0.1967
vt 0.9997 0.6084 0.1920
vt 0.9987 0.6111 0.1885
vt 0.9975 0.6128 0.1872
vt 0.9353 0.6620 0.1918
vt 0.8731 0.7112 0.2170
vt 0.8109 0.7603 0.2627
vt 0.7487 0.8092 0.3288
vt 0.6865 0.8577 0.4155
vt 0.6244 0.9058 0.5224
vt 0.5622 0.9532 0.6495
vt 0.5000 1.0000 0.7966
vt 0.4378 0.9494 0.8382
vt 0.3756 0.8989 0.8591
vt 0.3135 0.8486 0.8594
vt 0.2513 0.7987 0.8393
vt 0.1891 0.7493 0.7990
vt 0.1269 0.7005 0.7385
vt 0.0647 0.6525 0.6582
vt 0.0013 0.6060 0.4776
vt 0.0025 0.6077 0.4804
vt 0.0003 0.6033 0.4730
vt 0.0000 0.6004 0.4680
vt 0.0000 0.5495 0.3810
vt 0.0000 0.4987 0.2940
vt 0.0000 0.4479 0.2071
vt 0.0000 0.3971 0.1201
vt 0.0003 0.3941 0.1153
vt 0.0013 0.3914 0.1113
vt 0.0025 0.3897 0.1092
vt 0.0647 0.3411 0.0794
vt 0.1269 0.2923 0.0698
vt 0.1891 0.2433 0.0805
vt 0.2513 0.1942 0.1115
vt 0.3135 0.1453 0.1629
vt 0.3756 0.0965 0.2347
vt 0.4378 0.0480 0.3268
vt 0.5000 0.0000 0.4391
vt 0.5622 0.0493 0.5155
vt 0.6244 0.0988 0.5714
vt 0.6865 0.1484 0.6069
vt 0.7487 0.1978 0.6220
vt 0.8109 0.2470 0.6167
vt 0.8731 0.2959 0.5913
vt 0.9353 0.3444 0.5458
vt 0.9975 0.3923 0.4804
vt 0.9987 0.3940 0.4776
vt 0.9997 0.3967 0.4730
vt 1.0000 0.3996 0.4680
vt 1.0000 0.4505 0.3810
vt 1.0000 0.5013 0.2940
vt 1.0000 0.5521 0.2071
vt 1.0000 0.6029 0.1201
vt 0.9997 0.6059 0.1153
vt 0.9987 0.6086 0.1113
vt 0.9975 0.6103 0.1092
vt 0.9353 0.6589 0.0794
vt 0.8731 0.7077 0.0698
vt 0.8109 0.7567 0.0805
vt 0.7487 0.8058 0.1115
vt 0.6865 0.8547 0.1629
vt 0.6244 0.9035 0.2347
vt 0.5622 0.9520 0.3268
vt 0.5000 1.0000 0.4391
vt 0.4378 0.9507 0.5155
vt 0.3756 0.9012 0.5714
vt 0.3135 0.8516 0.6069
vt 0.2513 0.8022 0.6220
vt 0.1891 0.7530 0.6167
vt 0.1269 0.7041 0.5913
vt 0.0647 0.6556 0.5458
vt 0.0014 0.6062 0.4567
vt 0.0025 0.6076 0.4590
vt 0.0006 0.6038 0.4529
vt 0.0003 0.6012 0.4485
vt 0.0003 0.5503 0.3614
vt 0.0003 0.4994 0.2743
vt 0.0003 0.4484 0.1872
vt 0.0003 0.3975 0.1001
vt 0.0006 0.3949 0.0959
vt 0.0014 0.3925 0.0923
vt 0.0025 0.3911 0.0903
vt 0.0647 0.3430 0.0519
vt 0.1269 0.2946 0.0335
vt 0.1891 0.2460 0.0352
vt 0.2513 0.1972 0.0571
vt 0.3135 0.1485 0.0992
vt 0.3756 0.0998 0.1616
vt 0.4378 0.0514 0.2441
vt 0.5000 0.0034 0.3468
vt 0.5622 0.0521 0.4315
vt 0.6244 0.1010 0.4960
vt 0.6865 0.1500 0.5402
vt 0.7487 0.1990 0.5641
vt 0.8109 0.2478 0.5679
vt 0.8731 0.2964 0.5515
vt 0.9353 0.3446 0.5152
vt 0.9975 0.3924 0.4590
vt 0.9986 0.3938 0.4567
vt 0.9994 0.3962 0.4529
vt 0.9997 0.3988 0.4485
vt 0.9997 0.4497 0.3614
vt 0.9997 0.5006 0.2743
vt 0.9997 0.5516 0.1872
vt 0.9997 0.6025 0.1001
vt 0.9994 0.6051 0.0959
vt 0.9986 0.6075 0.0923
vt 0.9975 0.6089 0.0903
vt 0.9353 0.6570 0.0519
vt 0.8731 0.7054 0.0335
vt 0.8109 0.7540 0.0352
vt 0.7487 0.8028 0.0571
vt 0.6865 0.8515 0.0992
vt 0.6244 0.9002 0.1616
vt 0.5622 0.9486 0.2441
vt 0.5000 0.9966 0.3468
vt 0.4378 0.9479 0.4315
vt 0.3756 0.8990 0.4960
vt 0.3135 0.8500 0.5402
vt 0.2513 0.8010 0.5641
vt 0.1891 0.7522 0.5679
vt 0.1269 0.7036 0.5515
vt 0.0647 0.6554 0.5152
vt 0.0019 0.6052 0.4396
vt 0.0025 0.6061 0.4408
vt 0.0014 0.6039 0.4374
vt 0.0013 0.6024 0.4349
vt 0.0013 0.5511 0.3474
vt 0.0013 0.4998 0.2599
vt 0.0013 0.4485 0.1724
vt 0.0013 0.3973 0.0848
vt 0.0014 0.3958 0.0823
vt 0.0019 0.3944 0.0802
vt 0.0025 0.3936 0.0790
vt 0.0647 0.3465 0.0350
vt 0.1269 0.2991 0.0106
vt 0.1891 0.2514 0.0058
vt 0.2513 0.2035 0.0208
vt 0.3135 0.1556 0.0556
vt 0.3756 0.1077 0.1103
vt 0.4378 0.0601 0.1849
vt 0.5000 0.0127 0.2793
vt 0.5622 0.0602 0.3688
vt 0.6244 0.1080 0.4385
vt 0.6865 0.1560 0.4883
vt 0.7487 0.2040 0.5183
vt 0.8109 0.2519 0.5285
vt 0.8731 0.2996 0.5188
vt 0.9353 0.3470 0.4896
vt 0.9975 0.3939 0.4408
vt 0.9981 0.3948 0.4396
vt 0.9986 0.3961 0.4374
vt 0.9987 0.3976 0.4349
vt 0.9987 0.4489 0.3474
vt 0.9987 0.5002 0.2599
vt 0.9987 0.5515 0.1723
vt 0.9987 0.6027 0.0848
vt 0.9986 0.6042 0.0823
vt 0.9981 0.6056 0.0802
vt 0.9975 0.6064 0.0790
vt 0.9353 0.6535 0.0350
vt 0.8731 0.7009 0.0106
vt 0.8109 0.7486 0.0058
vt 0.7487 0.7965 0.0208
vt 0.6865 0.8444 0.0556
vt 0.6244 0.8923 0.1103
vt 0.5622 0.9399 0.1849
vt 0.5000 0.9873 0.2793
vt 0.4378 0.9398 0.3688
vt 0.3756 0.8920 0.4385
vt 0.3135 0.8440 0.4883
vt 0.2513 0.7960 0.5183
vt 0.1891 0.7481 0.5285
vt 0.1269 0.7004 0.5188
vt 0.0647 0.6530 0.4896
vt 0.0025 0.6035 0.4307
vt 0.0025 0.5517 0.3426
vt 0.0025 0.5000 0.2545
vt 0.0025 0.4483 0.1664
vt 0.0025 0.3965 0.0784
vt 0.0647 0.3507 0.0332
vt 0.1269 0.3046 0.0070
vt 0.1891 0.2581 0.0000
vt 0.2513 0.2115 0.0122
vt 0.3135 0.1648 0.0438
vt 0.3756 0.1181 0.0947
vt 0.4378 0.0716 0.1650
vt 0.5000 0.0254 0.2545
vt 0.5622 0.0716 0.3441
vt 0.6244 0.1181 0.4143
vt 0.6865 0.1648 0.4652
vt 0.7487 0.2115 0.4968
vt 0.8109 0.2581 0.5090
vt 0.8731 0.3046 0.5020
vt 0.9353 0.3507 0.4759
vt 0.9975 0.3965 0.4307
vt 0.9975 0.4483 0.3426
vt 0.9975 0.5000 0.2545
vt 0.9975 0.5517 0.1664
vt 0.9975 0.6035 0.0784
vt 0.9353 0.6493 0.0332
vt 0.8731 0.6954 0.0070
vt 0.8109 0.7419 0.0000
vt 0.7487 0.7885 0.0122
vt 0.6865 0.8352 0.0438
vt 0.6244 0.8819 0.0947
vt 0.5622 0.9284 0.1650
vt 0.5000 0.9746 0.2545
vt 0.4378 0.9284 0.3441
vt 0.3756 0.8819 0.4143
vt 0.3135 0.8352 0.4652
vt 0.2513 0.7885 0.4968
vt 0.1891 0.7419 0.5090
vt 0.1269 0.6954 0.5020
vt 0.0647 0.6493 0.4759
vt 0.9353 0.4254 0.3652
vt 0.8731 0.4023 0.3783
vt 0.8109 0.3791 0.3818
vt 0.7487 0.3557 0.3757
vt 0.6865 0.3324 0.3599
vt 0.6244 0.3091 0.3344
vt 0.5622 0.2858 0.2993
vt 0.5000 0.2627 0.2545
vt 0.4378 0.2858 0.2097
vt 0.3756 0.3091 0.1746
vt 0.3135 0.3324 0.1492
vt 0.2513 0.3557 0.1334
vt 0.1891 0.3791 0.1273
vt 0.1269 0.4023 0.1308
vt 0.0647 0.4254 0.1438
vt 0.9353 0.5000 0.2545
vt 0.8731 0.5000 0.2545
vt 0.8109 0.5000 0.2545
vt 0.7487 0.5000 0.2545
vt 0.6865 0.5000 0.2545
vt 0.6244 0.5000 0.2545
vt 0.5622 0.5000 0.2545
vt 0.5000 0.5000 0.2545
vt 0.4378 0.5000 0.2545
vt 0.3756 0.5000 0.2545
vt 0.3135 0.5000 0.2545
vt 0.2513 0.5000 0.2545
vt 0.1891 0.5000 0.2545
vt 0.1269 0.5000 0.2545
vt 0.0647 0.5000 0.2545
vt 0.9353 0.5746 0.1438
vt 0.8731 0.5977 0.1308
vt 0.8109 0.6209 0.1273
vt 0.7487 0.6443 0.1334
vt 0.6865 0.6676 0.1492
vt 0.6244 0.6909 0.1746
vt 0.5622 0.7142 0.2097
vt 0.5000 0.7373 0.2545
vt 0.4378 0.7142 0.2993
vt 0.3756 0.6909 0.3344
vt 0.3135 0.6676 0.3599
vt 0.2513 0.6443 0.3757
vt 0.1891 0.6209 0.3818
vt 0.1269 0.5977 0.3783
vt 0.0647 0.5746 0.3652
# 482 texture coords

o propeller001
g propeller001
usemtl PhysicalMaterial
s 1
f 1/1/1 2/2/2 3/3/3 
f 3/3/3 4/4/4 1/1/1 
f 5/5/5 6/6/6 2/2/2 
f 2/2/2 1/1/1 5/5/5 
f 7/7/7 8/8/8 6/6/6 
f 6/6/6 5/5/5 7/7/7 
f 9/9/9 10/10/10 8/8/8 
f 8/8/8 7/7/7 9/9/9 
f 11/11/11 12/12/12 10/10/10 
f 10/10/10 9/9/9 11/11/11 
f 13/13/13 14/14/14 12/12/12 
f 12/12/12 11/11/11 13/13/13 
f 15/15/15 16/16/16 14/14/14 
f 14/14/14 13/13/13 15/15/15 
f 17/17/17 18/18/18 16/16/16 
f 16/16/16 15/15/15 17/17/17 
f 19/19/19 20/20/20 18/18/18 
f 18/18/18 17/17/17 19/19/19 
f 21/21/21 22/22/22 20/20/20 
f 20/20/20 19/19/19 21/21/21 
f 23/23/23 24/24/24 22/22/22 
f 22/22/22 21/21/21 23/23/23 
f 25/25/25 26/26/26 24/24/24 
f 24/24/24 23/23/23 25/25/25 
f 27/27/27 28/28/28 26/26/26 
f 26/26/26 25/25/25 27/27/27 
f 29/29/29 30/30/30 28/28/28 
f 28/28/28 27/27/27 29/29/29 
f 31/31/31 32/32/32 30/30/30 
f 30/30/30 29/29/29 31/31/31 
f 33/33/33 34/34/34 32/32/32 
f 32/32/32 31/31/31 33/33/33 
f 35/35/35 1/1/1 4/4/4 
f 4/4/4 36/36/36 35/35/35 
f 37/37/37 5/5/5 1/1/1 
f 1/1/1 35/35/35 37/37/37 
f 38/38/38 7/7/7 5/5/5 
f 5/5/5 37/37/37 38/38/38 
f 39/39/39 9/9/9 7/7/7 
f 7/7/7 38/38/38 39/39/39 
f 40/40/40 11/11/11 9/9/9 
f 9/9/9 39/39/39 40/40/40 
f 41/41/41 13/13/13 11/11/11 
f 11/11/11 40/40/40 41/41/41 
f 42/42/42 15/15/15 13/13/13 
f 13/13/13 41/41/41 42/42/42 
f 43/43/43 17/17/17 15/15/15 
f 15/15/15 42/42/42 43/43/43 
f 44/44/44 19/19/19 17/17/17 
f 17/17/17 43/43/43 44/44/44 
f 45/45/45 21/21/21 19/19/19 
f 19/19/19 44/44/44 45/45/45 
f 46/46/46 23/23/23 21/21/21 
f 21/21/21 45/45/45 46/46/46 
f 47/47/47 25/25/25 23/23/23 
f 23/23/23 46/46/46 47/47/47 
f 48/48/48 27/27/27 25/25/25 
f 25/25/25 47/47/47 48/48/48 
f 49/49/49 29/29/29 27/27/27 
f 27/27/27 48/48/48 49/49/49 
f 50/50/50 31/31/31 29/29/29 
f 29/29/29 49/49/49 50/50/50 
f 51/51/51 33/33/33 31/31/31 
f 31/31/31 50/50/50 51/51/51 
f 52/52/52 35/35/35 36/36/36 
f 36/36/36 53/53/53 52/52/52 
f 54/54/54 37/37/37 35/35/35 
f 35/35/35 52/52/52 54/54/54 
f 55/55/55 38/38/38 37/37/37 
f 37/37/37 54/54/54 55/55/55 
f 56/56/56 39/39/39 38/38/38 
f 38/38/38 55/55/55 56/56/56 
f 57/57/57 40/40/40 39/39/39 
f 39/39/39 56/56/56 57/57/57 
f 58/58/58 41/41/41 40/40/40 
f 40/40/40 57/57/57 58/58/58 
f 59/59/59 42/42/42 41/41/41 
f 41/41/41 58/58/58 59/59/59 
f 60/60/60 43/43/43 42/42/42 
f 42/42/42 59/59/59 60/60/60 
f 61/61/61 44/44/44 43/43/43 
f 43/43/43 60/60/60 61/61/61 
f 62/62/62 45/45/45 44/44/44 
f 44/44/44 61/61/61 62/62/62 
f 63/63/63 46/46/46 45/45/45 
f 45/45/45 62/62/62 63/63/63 
f 64/64/64 47/47/47 46/46/46 
f 46/46/46 63/63/63 64/64/64 
f 65/65/65 48/48/48 47/47/47 
f 47/47/47 64/64/64 65/65/65 
f 66/66/66 49/49/49 48/48/48 
f 48/48/48 65/65/65 66/66/66 
f 67/67/67 50/50/50 49/49/49 
f 49/49/49 66/66/66 67/67/67 
f 68/68/68 51/51/51 50/50/50 
f 50/50/50 67/67/67 68/68/68 
f 69/69/69 52/52/52 53/53/53 
f 53/53/53 70/70/70 69/69/69 
f 71/71/71 54/54/54 52/52/52 
f 52/52/52 69/69/69 71/71/71 
f 72/72/72 55/55/55 54/54/54 
f 54/54/54 71/71/71 72/72/72 
f 73/73/73 56/56/56 55/55/55 
f 55/55/55 72/72/72 73/73/73 
f 74/74/74 57/57/57 56/56/56 
f 56/56/56 73/73/73 74/74/74 
f 75/75/75 58/58/58 57/57/57 
f 57/57/57 74/74/74 75/75/75 
f 76/76/76 59/59/59 58/58/58 
f 58/58/58 75/75/75 76/76/76 
f 77/77/77 60/60/60 59/59/59 
f 59/59/59 76/76/76 77/77/77 
f 78/78/78 61/61/61 60/60/60 
f 60/60/60 77/77/77 78/78/78 
f 79/79/79 62/62/62 61/61/61 
f 61/61/61 78/78/78 79/79/79 
f 80/80/80 63/63/63 62/62/62 
f 62/62/62 79/79/79 80/80/80 
f 81/81/81 64/64/64 63/63/63 
f 63/63/63 80/80/80 81/81/81 
f 82/82/82 65/65/65 64/64/64 
f 64/64/64 81/81/81 82/82/82 
f 83/83/83 66/66/66 65/65/65 
f 65/65/65 82/82/82 83/83/83 
f 84/84/84 67/67/67 66/66/66 
f 66/66/66 83/83/83 84/84/84 
f 85/85/85 68/68/68 67/67/67 
f 67/67/67 84/84/84 85/85/85 
f 3/3/3 86/86/86 87/87/87 
f 3/3/3 87/87/87 88/88/88 
f 3/3/3 88/88/88 89/89/89 
f 90/90/90 4/4/4 3/3/3 
f 3/3/3 89/89/89 90/90/90 
f 91/91/91 36/36/36 4/4/4 
f 4/4/4 90/90/90 91/91/91 
f 92/92/92 53/53/53 36/36/36 
f 36/36/36 91/91/91 92/92/92 
f 93/93/93 70/70/70 53/53/53 
f 53/53/53 92/92/92 93/93/93 
f 70/70/70 93/93/93 94/94/94 
f 70/70/70 94/94/94 95/95/95 
f 70/70/70 95/95/95 96/96/96 
f 97/97/97 69/69/69 70/70/70 
f 70/70/70 96/96/96 97/97/97 
f 98/98/98 71/71/71 69/69/69 
f 69/69/69 97/97/97 98/98/98 
f 99/99/99 72/72/72 71/71/71 
f 71/71/71 98/98/98 99/99/99 
f 100/100/100 73/73/73 72/72/72 
f 72/72/72 99/99/99 100/100/100 
f 101/101/101 74/74/74 73/73/73 
f 73/73/73 100/100/100 101/101/101 
f 102/102/102 75/75/75 74/74/74 
f 74/74/74 101/101/101 102/102/102 
f 103/103/103 76/76/76 75/75/75 
f 75/75/75 102/102/102 103/103/103 
f 104/104/104 77/77/77 76/76/76 
f 76/76/76 103/103/103 104/104/104 
f 105/105/105 78/78/78 77/77/77 
f 77/77/77 104/104/104 105/105/105 
f 106/106/106 79/79/79 78/78/78 
f 78/78/78 105/105/105 106/106/106 
f 107/107/107 80/80/80 79/79/79 
f 79/79/79 106/106/106 107/107/107 
f 108/108/108 81/81/81 80/80/80 
f 80/80/80 107/107/107 108/108/108 
f 109/109/109 82/82/82 81/81/81 
f 81/81/81 108/108/108 109/109/109 
f 110/110/110 83/83/83 82/82/82 
f 82/82/82 109/109/109 110/110/110 
f 111/111/111 84/84/84 83/83/83 
f 83/83/83 110/110/110 111/111/111 
f 112/112/112 85/85/85 84/84/84 
f 84/84/84 111/111/111 112/112/112 
f 85/85/85 112/112/112 113/113/113 
f 85/85/85 113/113/113 114/114/114 
f 85/85/85 114/114/114 115/115/115 
f 116/116/116 68/68/68 85/85/85 
f 85/85/85 115/115/115 116/116/116 
f 117/117/117 51/51/51 68/68/68 
f 68/68/68 116/116/116 117/117/117 
f 118/118/118 33/33/33 51/51/51 
f 51/51/51 117/117/117 118/118/118 
f 119/119/119 34/34/34 33/33/33 
f 33/33/33 118/118/118 119/119/119 
f 34/34/34 119/119/119 120/120/120 
f 34/34/34 120/120/120 121/121/121 
f 34/34/34 121/121/121 122/122/122 
f 123/123/123 32/32/32 34/34/34 
f 34/34/34 122/122/122 123/123/123 
f 124/124/124 30/30/30 32/32/32 
f 32/32/32 123/123/123 124/124/124 
f 125/125/125 28/28/28 30/30/30 
f 30/30/30 124/124/124 125/125/125 
f 126/126/126 26/26/26 28/28/28 
f 28/28/28 125/125/125 126/126/126 
f 127/127/127 24/24/24 26/26/26 
f 26/26/26 126/126/126 127/127/127 
f 128/128/128 22/22/22 24/24/24 
f 24/24/24 127/127/127 128/128/128 
f 129/129/129 20/20/20 22/22/22 
f 22/22/22 128/128/128 129/129/129 
f 130/130/130 18/18/18 20/20/20 
f 20/20/20 129/129/129 130/130/130 
f 131/131/131 16/16/16 18/18/18 
f 18/18/18 130/130/130 131/131/131 
f 132/132/132 14/14/14 16/16/16 
f 16/16/16 131/131/131 132/132/132 
f 133/133/133 12/12/12 14/14/14 
f 14/14/14 132/132/132 133/133/133 
f 134/134/134 10/10/10 12/12/12 
f 12/12/12 133/133/133 134/134/134 
f 135/135/135 8/8/8 10/10/10 
f 10/10/10 134/134/134 135/135/135 
f 136/136/136 6/6/6 8/8/8 
f 8/8/8 135/135/135 136/136/136 
f 137/137/137 2/2/2 6/6/6 
f 6/6/6 136/136/136 137/137/137 
f 86/86/86 3/3/3 2/2/2 
f 2/2/2 137/137/137 86/86/86 
f 138/138/138 87/87/87 86/86/86 
f 86/86/86 139/139/139 138/138/138 
f 140/140/140 88/88/88 87/87/87 
f 87/87/87 138/138/138 140/140/140 
f 141/141/141 89/89/89 88/88/88 
f 88/88/88 140/140/140 141/141/141 
f 142/142/142 90/90/90 89/89/89 
f 89/89/89 141/141/141 142/142/142 
f 143/143/143 91/91/91 90/90/90 
f 90/90/90 142/142/142 143/143/143 
f 144/144/144 92/92/92 91/91/91 
f 91/91/91 143/143/143 144/144/144 
f 145/145/145 93/93/93 92/92/92 
f 92/92/92 144/144/144 145/145/145 
f 146/146/146 94/94/94 93/93/93 
f 93/93/93 145/145/145 146/146/146 
f 147/147/147 95/95/95 94/94/94 
f 94/94/94 146/146/146 147/147/147 
f 148/148/148 96/96/96 95/95/95 
f 95/95/95 147/147/147 148/148/148 
f 149/149/149 97/97/97 96/96/96 
f 96/96/96 148/148/148 149/149/149 
f 150/150/150 98/98/98 97/97/97 
f 97/97/97 149/149/149 150/150/150 
f 151/151/151 99/99/99 98/98/98 
f 98/98/98 150/150/150 151/151/151 
f 152/152/152 100/100/100 99/99/99 
f 99/99/99 151/151/151 152/152/152 
f 153/153/153 101/101/101 100/100/100 
f 100/100/100 152/152/152 153/153/153 
f 154/154/154 102/102/102 101/101/101 
f 101/101/101 153/153/153 154/154/154 
f 155/155/155 103/103/103 102/102/102 
f 102/102/102 154/154/154 155/155/155 
f 156/156/156 104/104/104 103/103/103 
f 103/103/103 155/155/155 156/156/156 
f 157/157/157 105/105/105 104/104/104 
f 104/104/104 156/156/156 157/157/157 
f 158/158/158 106/106/106 105/105/105 
f 105/105/105 157/157/157 158/158/158 
f 159/159/159 107/107/107 106/106/106 
f 106/106/106 158/158/158 159/159/159 
f 160/160/160 108/108/108 107/107/107 
f 107/107/107 159/159/159 160/160/160 
f 161/161/161 109/109/109 108/108/108 
f 108/108/108 160/160/160 161/161/161 
f 162/162/162 110/110/110 109/109/109 
f 109/109/109 161/161/161 162/162/162 
f 163/163/163 111/111/111 110/110/110 
f 110/110/110 162/162/162 163/163/163 
f 164/164/164 112/112/112 111/111/111 
f 111/111/111 163/163/163 164/164/164 
f 165/165/165 113/113/113 112/112/112 
f 112/112/112 164/164/164 165/165/165 
f 166/166/166 114/114/114 113/113/113 
f 113/113/113 165/165/165 166/166/166 
f 167/167/167 115/115/115 114/114/114 
f 114/114/114 166/166/166 167/167/167 
f 168/168/168 116/116/116 115/115/115 
f 115/115/115 167/167/167 168/168/168 
f 169/169/169 117/117/117 116/116/116 
f 116/116/116 168/168/168 169/169/169 
f 170/170/170 118/118/118 117/117/117 
f 117/117/117 169/169/169 170/170/170 
f 171/171/171 119/119/119 118/118/118 
f 118/118/118 170/170/170 171/171/171 
f 172/172/172 120/120/120 119/119/119 
f 119/119/119 171/171/171 172/172/172 
f 173/173/173 121/121/121 120/120/120 
f 120/120/120 172/172/172 173/173/173 
f 174/174/174 122/122/122 121/121/121 
f 121/121/121 173/173/173 174/174/174 
f 175/175/175 123/123/123 122/122/122 
f 122/122/122 174/174/174 175/175/175 
f 176/176/176 124/124/124 123/123/123 
f 123/123/123 175/175/175 176/176/176 
f 177/177/177 125/125/125 124/124/124 
f 124/124/124 176/176/176 177/177/177 
f 178/178/178 126/126/126 125/125/125 
f 125/125/125 177/177/177 178/178/178 
f 179/179/179 127/127/127 126/126/126 
f 126/126/126 178/178/178 179/179/179 
f 180/180/180 128/128/128 127/127/127 
f 127/127/127 179/179/179 180/180/180 
f 181/181/181 129/129/129 128/128/128 
f 128/128/128 180/180/180 181/181/181 
f 182/182/182 130/130/130 129/129/129 
f 129/129/129 181/181/181 182/182/182 
f 183/183/183 131/131/131 130/130/130 
f 130/130/130 182/182/182 183/183/183 
f 184/184/184 132/132/132 131/131/131 
f 131/131/131 183/183/183 184/184/184 
f 185/185/185 133/133/133 132/132/132 
f 132/132/132 184/184/184 185/185/185 
f 186/186/186 134/134/134 133/133/133 
f 133/133/133 185/185/185 186/186/186 
f 187/187/187 135/135/135 134/134/134 
f 134/134/134 186/186/186 187/187/187 
f 188/188/188 136/136/136 135/135/135 
f 135/135/135 187/187/187 188/188/188 
f 189/189/189 137/137/137 136/136/136 
f 136/136/136 188/188/188 189/189/189 
f 139/139/139 86/86/86 137/137/137 
f 137/137/137 189/189/189 139/139/139 
f 190/190/190 138/138/138 139/139/139 
f 139/139/139 191/191/191 190/190/190 
f 192/192/192 140/140/140 138/138/138 
f 138/138/138 190/190/190 192/192/192 
f 193/193/193 141/141/141 140/140/140 
f 140/140/140 192/192/192 193/193/193 
f 194/194/194 142/142/142 141/141/141 
f 141/141/141 193/193/193 194/194/194 
f 195/195/195 143/143/143 142/142/142 
f 142/142/142 194/194/194 195/195/195 
f 196/196/196 144/144/144 143/143/143 
f 143/143/143 195/195/195 196/196/196 
f 197/197/197 145/145/145 144/144/144 
f 144/144/144 196/196/196 197/197/197 
f 198/198/198 146/146/146 145/145/145 
f 145/145/145 197/197/197 198/198/198 
f 199/199/199 147/147/147 146/146/146 
f 146/146/146 198/198/198 199/199/199 
f 200/200/200 148/148/148 147/147/147 
f 147/147/147 199/199/199 200/200/200 
f 201/201/201 149/149/149 148/148/148 
f 148/148/148 200/200/200 201/201/201 
f 202/202/202 150/150/150 149/149/149 
f 149/149/149 201/201/201 202/202/202 
f 203/203/203 151/151/151 150/150/150 
f 150/150/150 202/202/202 203/203/203 
f 204/204/204 152/152/152 151/151/151 
f 151/151/151 203/203/203 204/204/204 
f 205/205/205 153/153/153 152/152/152 
f 152/152/152 204/204/204 205/205/205 
f 206/206/206 154/154/154 153/153/153 
f 153/153/153 205/205/205 206/206/206 
f 207/207/207 155/155/155 154/154/154 
f 154/154/154 206/206/206 207/207/207 
f 208/208/208 156/156/156 155/155/155 
f 155/155/155 207/207/207 208/208/208 
f 209/209/209 157/157/157 156/156/156 
f 156/156/156 208/208/208 209/209/209 
f 210/210/210 158/158/158 157/157/157 
f 157/157/157 209/209/209 210/210/210 
f 211/211/211 159/159/159 158/158/158 
f 158/158/158 210/210/210 211/211/211 
f 212/212/212 160/160/160 159/159/159 
f 159/159/159 211/211/211 212/212/212 
f 213/213/213 161/161/161 160/160/160 
f 160/160/160 212/212/212 213/213/213 
f 214/214/214 162/162/162 161/161/161 
f 161/161/161 213/213/213 214/214/214 
f 215/215/215 163/163/163 162/162/162 
f 162/162/162 214/214/214 215/215/215 
f 216/216/216 164/164/164 163/163/163 
f 163/163/163 215/215/215 216/216/216 
f 217/217/217 165/165/165 164/164/164 
f 164/164/164 216/216/216 217/217/217 
f 218/218/218 166/166/166 165/165/165 
f 165/165/165 217/217/217 218/218/218 
f 219/219/219 167/167/167 166/166/166 
f 166/166/166 218/218/218 219/219/219 
f 220/220/220 168/168/168 167/167/167 
f 167/167/167 219/219/219 220/220/220 
f 221/221/221 169/169/169 168/168/168 
f 168/168/168 220/220/220 221/221/221 
f 222/222/222 170/170/170 169/169/169 
f 169/169/169 221/221/221 222/222/222 
f 223/223/223 171/171/171 170/170/170 
f 170/170/170 222/222/222 223/223/223 
f 224/224/224 172/172/172 171/171/171 
f 171/171/171 223/223/223 224/224/224 
f 225/225/225 173/173/173 172/172/172 
f 172/172/172 224/224/224 225/225/225 
f 226/226/226 174/174/174 173/173/173 
f 173/173/173 225/225/225 226/226/226 
f 227/227/227 175/175/175 174/174/174 
f 174/174/174 226/226/226 227/227/227 
f 228/228/228 176/176/176 175/175/175 
f 175/175/175 227/227/227 228/228/228 
f 229/229/229 177/177/177 176/176/176 
f 176/176/176 228/228/228 229/229/229 
f 230/230/230 178/178/178 177/177/177 
f 177/177/177 229/229/229 230/230/230 
f 231/231/231 179/179/179 178/178/178 
f 178/178/178 230/230/230 231/231/231 
f 232/232/232 180/180/180 179/179/179 
f 179/179/179 231/231/231 232/232/232 
f 233/233/233 181/181/181 180/180/180 
f 180/180/180 232/232/232 233/233/233 
f 234/234/234 182/182/182 181/181/181 
f 181/181/181 233/233/233 234/234/234 
f 235/235/235 183/183/183 182/182/182 
f 182/182/182 234/234/234 235/235/235 
f 236/236/236 184/184/184 183/183/183 
f 183/183/183 235/235/235 236/236/236 
f 237/237/237 185/185/185 184/184/184 
f 184/184/184 236/236/236 237/237/237 
f 238/238/238 186/186/186 185/185/185 
f 185/185/185 237/237/237 238/238/238 
f 239/239/239 187/187/187 186/186/186 
f 186/186/186 238/238/238 239/239/239 
f 240/240/240 188/188/188 187/187/187 
f 187/187/187 239/239/239 240/240/240 
f 241/241/241 189/189/189 188/188/188 
f 188/188/188 240/240/240 241/241/241 
f 191/191/191 139/139/139 189/189/189 
f 189/189/189 241/241/241 191/191/191 
f 242/242/242 190/190/190 191/191/191 
f 191/191/191 243/243/243 242/242/242 
f 244/244/244 192/192/192 190/190/190 
f 190/190/190 242/242/242 244/244/244 
f 245/245/245 193/193/193 192/192/192 
f 192/192/192 244/244/244 245/245/245 
f 246/246/246 194/194/194 193/193/193 
f 193/193/193 245/245/245 246/246/246 
f 247/247/247 195/195/195 194/194/194 
f 194/194/194 246/246/246 247/247/247 
f 248/248/248 196/196/196 195/195/195 
f 195/195/195 247/247/247 248/248/248 
f 249/249/249 197/197/197 196/196/196 
f 196/196/196 248/248/248 249/249/249 
f 250/250/250 198/198/198 197/197/197 
f 197/197/197 249/249/249 250/250/250 
f 251/251/251 199/199/199 198/198/198 
f 198/198/198 250/250/250 251/251/251 
f 252/252/252 200/200/200 199/199/199 
f 199/199/199 251/251/251 252/252/252 
f 253/253/253 201/201/201 200/200/200 
f 200/200/200 252/252/252 253/253/253 
f 254/254/254 202/202/202 201/201/201 
f 201/201/201 253/253/253 254/254/254 
f 255/255/255 203/203/203 202/202/202 
f 202/202/202 254/254/254 255/255/255 
f 256/256/256 204/204/204 203/203/203 
f 203/203/203 255/255/255 256/256/256 
f 257/257/257 205/205/205 204/204/204 
f 204/204/204 256/256/256 257/257/257 
f 258/258/258 206/206/206 205/205/205 
f 205/205/205 257/257/257 258/258/258 
f 259/259/259 207/207/207 206/206/206 
f 206/206/206 258/258/258 259/259/259 
f 260/260/260 208/208/208 207/207/207 
f 207/207/207 259/259/259 260/260/260 
f 261/261/261 209/209/209 208/208/208 
f 208/208/208 260/260/260 261/261/261 
f 262/262/262 210/210/210 209/209/209 
f 209/209/209 261/261/261 262/262/262 
f 263/263/263 211/211/211 210/210/210 
f 210/210/210 262/262/262 263/263/263 
f 264/264/264 212/212/212 211/211/211 
f 211/211/211 263/263/263 264/264/264 
f 265/265/265 213/213/213 212/212/212 
f 212/212/212 264/264/264 265/265/265 
f 266/266/266 214/214/214 213/213/213 
f 213/213/213 265/265/265 266/266/266 
f 267/267/267 215/215/215 214/214/214 
f 214/214/214 266/266/266 267/267/267 
f 268/268/268 216/216/216 215/215/215 
f 215/215/215 267/267/267 268/268/268 
f 269/269/269 217/217/217 216/216/216 
f 216/216/216 268/268/268 269/269/269 
f 270/270/270 218/218/218 217/217/217 
f 217/217/217 269/269/269 270/270/270 
f 271/271/271 219/219/219 218/218/218 
f 218/218/218 270/270/270 271/271/271 
f 272/272/272 220/220/220 219/219/219 
f 219/219/219 271/271/271 272/272/272 
f 273/273/273 221/221/221 220/220/220 
f 220/220/220 272/272/272 273/273/273 
f 274/274/274 222/222/222 221/221/221 
f 221/221/221 273/273/273 274/274/274 
f 275/275/275 223/223/223 222/222/222 
f 222/222/222 274/274/274 275/275/275 
f 276/276/276 224/224/224 223/223/223 
f 223/223/223 275/275/275 276/276/276 
f 277/277/277 225/225/225 224/224/224 
f 224/224/224 276/276/276 277/277/277 
f 278/278/278 226/226/226 225/225/225 
f 225/225/225 277/277/277 278/278/278 
f 279/279/279 227/227/227 226/226/226 
f 226/226/226 278/278/278 279/279/279 
f 280/280/280 228/228/228 227/227/227 
f 227/227/227 279/279/279 280/280/280 
f 281/281/281 229/229/229 228/228/228 
f 228/228/228 280/280/280 281/281/281 
f 282/282/282 230/230/230 229/229/229 
f 229/229/229 281/281/281 282/282/282 
f 283/283/283 231/231/231 230/230/230 
f 230/230/230 282/282/282 283/283/283 
f 284/284/284 232/232/232 231/231/231 
f 231/231/231 283/283/283 284/284/284 
f 285/285/285 233/233/233 232/232/232 
f 232/232/232 284/284/284 285/285/285 
f 286/286/286 234/234/234 233/233/233 
f 233/233/233 285/285/285 286/286/286 
f 287/287/287 235/235/235 234/234/234 
f 234/234/234 286/286/286 287/287/287 
f 288/288/288 236/236/236 235/235/235 
f 235/235/235 287/287/287 288/288/288 
f 289/289/289 237/237/237 236/236/236 
f 236/236/236 288/288/288 289/289/289 
f 290/290/290 238/238/238 237/237/237 
f 237/237/237 289/289/289 290/290/290 
f 291/291/291 239/239/239 238/238/238 
f 238/238/238 290/290/290 291/291/291 
f 292/292/292 240/240/240 239/239/239 
f 239/239/239 291/291/291 292/292/292 
f 293/293/293 241/241/241 240/240/240 
f 240/240/240 292/292/292 293/293/293 
f 243/243/243 191/191/191 241/241/241 
f 241/241/241 293/293/293 243/243/243 
f 294/294/294 242/242/242 243/243/243 
f 243/243/243 295/295/295 294/294/294 
f 296/296/296 244/244/244 242/242/242 
f 242/242/242 294/294/294 296/296/296 
f 297/297/297 245/245/245 244/244/244 
f 244/244/244 296/296/296 297/297/297 
f 298/298/298 246/246/246 245/245/245 
f 245/245/245 297/297/297 298/298/298 
f 299/299/299 247/247/247 246/246/246 
f 246/246/246 298/298/298 299/299/299 
f 300/300/300 248/248/248 247/247/247 
f 247/247/247 299/299/299 300/300/300 
f 301/301/301 249/249/249 248/248/248 
f 248/248/248 300/300/300 301/301/301 
f 302/302/302 250/250/250 249/249/249 
f 249/249/249 301/301/301 302/302/302 
f 303/303/303 251/251/251 250/250/250 
f 250/250/250 302/302/302 303/303/303 
f 304/304/304 252/252/252 251/251/251 
f 251/251/251 303/303/303 304/304/304 
f 305/305/305 253/253/253 252/252/252 
f 252/252/252 304/304/304 305/305/305 
f 306/306/306 254/254/254 253/253/253 
f 253/253/253 305/305/305 306/306/306 
f 307/307/307 255/255/255 254/254/254 
f 254/254/254 306/306/306 307/307/307 
f 308/308/308 256/256/256 255/255/255 
f 255/255/255 307/307/307 308/308/308 
f 309/309/309 257/257/257 256/256/256 
f 256/256/256 308/308/308 309/309/309 
f 310/310/310 258/258/258 257/257/257 
f 257/257/257 309/309/309 310/310/310 
f 311/311/311 259/259/259 258/258/258 
f 258/258/258 310/310/310 311/311/311 
f 312/312/312 260/260/260 259/259/259 
f 259/259/259 311/311/311 312/312/312 
f 313/313/313 261/261/261 260/260/260 
f 260/260/260 312/312/312 313/313/313 
f 314/314/314 262/262/262 261/261/261 
f 261/261/261 313/313/313 314/314/314 
f 315/315/315 263/263/263 262/262/262 
f 262/262/262 314/314/314 315/315/315 
f 316/316/316 264/264/264 263/263/263 
f 263/263/263 315/315/315 316/316/316 
f 317/317/317 265/265/265 264/264/264 
f 264/264/264 316/316/316 317/317/317 
f 318/318/318 266/266/266 265/265/265 
f 265/265/265 317/317/317 318/318/318 
f 319/319/319 267/267/267 266/266/266 
f 266/266/266 318/318/318 319/319/319 
f 320/320/320 268/268/268 267/267/267 
f 267/267/267 319/319/319 320/320/320 
f 321/321/321 269/269/269 268/268/268 
f 268/268/268 320/320/320 321/321/321 
f 322/322/322 270/270/270 269/269/269 
f 269/269/269 321/321/321 322/322/322 
f 323/323/323 271/271/271 270/270/270 
f 270/270/270 322/322/322 323/323/323 
f 324/324/324 272/272/272 271/271/271 
f 271/271/271 323/323/323 324/324/324 
f 325/325/325 273/273/273 272/272/272 
f 272/272/272 324/324/324 325/325/325 
f 326/326/326 274/274/274 273/273/273 
f 273/273/273 325/325/325 326/326/326 
f 327/327/327 275/275/275 274/274/274 
f 274/274/274 326/326/326 327/327/327 
f 328/328/328 276/276/276 275/275/275 
f 275/275/275 327/327/327 328/328/328 
f 329/329/329 277/277/277 276/276/276 
f 276/276/276 328/328/328 329/329/329 
f 330/330/330 278/278/278 277/277/277 
f 277/277/277 329/329/329 330/330/330 
f 331/331/331 279/279/279 278/278/278 
f 278/278/278 330/330/330 331/331/331 
f 332/332/332 280/280/280 279/279/279 
f 279/279/279 331/331/331 332/332/332 
f 333/333/333 281/281/281 280/280/280 
f 280/280/280 332/332/332 333/333/333 
f 334/334/334 282/282/282 281/281/281 
f 281/281/281 333/333/333 334/334/334 
f 335/335/335 283/283/283 282/282/282 
f 282/282/282 334/334/334 335/335/335 
f 336/336/336 284/284/284 283/283/283 
f 283/283/283 335/335/335 336/336/336 
f 337/337/337 285/285/285 284/284/284 
f 284/284/284 336/336/336 337/337/337 
f 338/338/338 286/286/286 285/285/285 
f 285/285/285 337/337/337 338/338/338 
f 339/339/339 287/287/287 286/286/286 
f 286/286/286 338/338/338 339/339/339 
f 340/340/340 288/288/288 287/287/287 
f 287/287/287 339/339/339 340/340/340 
f 341/341/341 289/289/289 288/288/288 
f 288/288/288 340/340/340 341/341/341 
f 342/342/342 290/290/290 289/289/289 
f 289/289/289 341/341/341 342/342/342 
f 343/343/343 291/291/291 290/290/290 
f 290/290/290 342/342/342 343/343/343 
f 344/344/344 292/292/292 291/291/291 
f 291/291/291 343/343/343 344/344/344 
f 345/345/345 293/293/293 292/292/292 
f 292/292/292 344/344/344 345/345/345 
f 295/295/295 243/243/243 293/293/293 
f 293/293/293 345/345/345 295/295/295 
f 346/346/346 294/294/294 295/295/295 
f 295/295/295 347/347/347 346/346/346 
f 348/348/348 296/296/296 294/294/294 
f 294/294/294 346/346/346 348/348/348 
f 349/349/349 297/297/297 296/296/296 
f 296/296/296 348/348/348 349/349/349 
f 350/350/350 298/298/298 297/297/297 
f 297/297/297 349/349/349 350/350/350 
f 351/351/351 299/299/299 298/298/298 
f 298/298/298 350/350/350 351/351/351 
f 352/352/352 300/300/300 299/299/299 
f 299/299/299 351/351/351 352/352/352 
f 353/353/353 301/301/301 300/300/300 
f 300/300/300 352/352/352 353/353/353 
f 354/354/354 302/302/302 301/301/301 
f 301/301/301 353/353/353 354/354/354 
f 355/355/355 303/303/303 302/302/302 
f 302/302/302 354/354/354 355/355/355 
f 356/356/356 304/304/304 303/303/303 
f 303/303/303 355/355/355 356/356/356 
f 357/357/357 305/305/305 304/304/304 
f 304/304/304 356/356/356 357/357/357 
f 358/358/358 306/306/306 305/305/305 
f 305/305/305 357/357/357 358/358/358 
f 359/359/359 307/307/307 306/306/306 
f 306/306/306 358/358/358 359/359/359 
f 360/360/360 308/308/308 307/307/307 
f 307/307/307 359/359/359 360/360/360 
f 361/361/361 309/309/309 308/308/308 
f 308/308/308 360/360/360 361/361/361 
f 362/362/362 310/310/310 309/309/309 
f 309/309/309 361/361/361 362/362/362 
f 363/363/363 311/311/311 310/310/310 
f 310/310/310 362/362/362 363/363/363 
f 364/364/364 312/312/312 311/311/311 
f 311/311/311 363/363/363 364/364/364 
f 365/365/365 313/313/313 312/312/312 
f 312/312/312 364/364/364 365/365/365 
f 366/366/366 314/314/314 313/313/313 
f 313/313/313 365/365/365 366/366/366 
f 367/367/367 315/315/315 314/314/314 
f 314/314/314 366/366/366 367/367/367 
f 368/368/368 316/316/316 315/315/315 
f 315/315/315 367/367/367 368/368/368 
f 369/369/369 317/317/317 316/316/316 
f 316/316/316 368/368/368 369/369/369 
f 370/370/370 318/318/318 317/317/317 
f 317/317/317 369/369/369 370/370/370 
f 371/371/371 319/319/319 318/318/318 
f 318/318/318 370/370/370 371/371/371 
f 372/372/372 320/320/320 319/319/319 
f 319/319/319 371/371/371 372/372/372 
f 373/373/373 321/321/321 320/320/320 
f 320/320/320 372/372/372 373/373/373 
f 374/374/374 322/322/322 321/321/321 
f 321/321/321 373/373/373 374/374/374 
f 375/375/375 323/323/323 322/322/322 
f 322/322/322 374/374/374 375/375/375 
f 376/376/376 324/324/324 323/323/323 
f 323/323/323 375/375/375 376/376/376 
f 377/377/377 325/325/325 324/324/324 
f 324/324/324 376/376/376 377/377/377 
f 378/378/378 326/326/326 325/325/325 
f 325/325/325 377/377/377 378/378/378 
f 379/379/379 327/327/327 326/326/326 
f 326/326/326 378/378/378 379/379/379 
f 380/380/380 328/328/328 327/327/327 
f 327/327/327 379/379/379 380/380/380 
f 381/381/381 329/329/329 328/328/328 
f 328/328/328 380/380/380 381/381/381 
f 382/382/382 330/330/330 329/329/329 
f 329/329/329 381/381/381 382/382/382 
f 383/383/383 331/331/331 330/330/330 
f 330/330/330 382/382/382 383/383/383 
f 384/384/384 332/332/332 331/331/331 
f 331/331/331 383/383/383 384/384/384 
f 385/385/385 333/333/333 332/332/332 
f 332/332/332 384/384/384 385/385/385 
f 386/386/386 334/334/334 333/333/333 
f 333/333/333 385/385/385 386/386/386 
f 387/387/387 335/335/335 334/334/334 
f 334/334/334 386/386/386 387/387/387 
f 388/388/388 336/336/336 335/335/335 
f 335/335/335 387/387/387 388/388/388 
f 389/389/389 337/337/337 336/336/336 
f 336/336/336 388/388/388 389/389/389 
f 390/390/390 338/338/338 337/337/337 
f 337/337/337 389/389/389 390/390/390 
f 391/391/391 339/339/339 338/338/338 
f 338/338/338 390/390/390 391/391/391 
f 392/392/392 340/340/340 339/339/339 
f 339/339/339 391/391/391 392/392/392 
f 393/393/393 341/341/341 340/340/340 
f 340/340/340 392/392/392 393/393/393 
f 394/394/394 342/342/342 341/341/341 
f 341/341/341 393/393/393 394/394/394 
f 395/395/395 343/343/343 342/342/342 
f 342/342/342 394/394/394 395/395/395 
f 396/396/396 344/344/344 343/343/343 
f 343/343/343 395/395/395 396/396/396 
f 397/397/397 345/345/345 344/344/344 
f 344/344/344 396/396/396 397/397/397 
f 347/347/347 295/295/295 345/345/345 
f 345/345/345 397/397/397 347/347/347 
f 347/347/347 398/398/398 346/346/346 
f 346/346/346 398/398/398 348/348/348 
f 348/348/348 398/398/398 349/349/349 
f 399/399/399 350/350/350 349/349/349 
f 349/349/349 398/398/398 399/399/399 
f 400/400/400 351/351/351 350/350/350 
f 350/350/350 399/399/399 400/400/400 
f 401/401/401 352/352/352 351/351/351 
f 351/351/351 400/400/400 401/401/401 
f 402/402/402 353/353/353 352/352/352 
f 352/352/352 401/401/401 402/402/402 
f 353/353/353 402/402/402 354/354/354 
f 354/354/354 402/402/402 355/355/355 
f 355/355/355 402/402/402 356/356/356 
f 403/403/403 357/357/357 356/356/356 
f 356/356/356 402/402/402 403/403/403 
f 404/404/404 358/358/358 357/357/357 
f 357/357/357 403/403/403 404/404/404 
f 405/405/405 359/359/359 358/358/358 
f 358/358/358 404/404/404 405/405/405 
f 406/406/406 360/360/360 359/359/359 
f 359/359/359 405/405/405 406/406/406 
f 407/407/407 361/361/361 360/360/360 
f 360/360/360 406/406/406 407/407/407 
f 408/408/408 362/362/362 361/361/361 
f 361/361/361 407/407/407 408/408/408 
f 409/409/409 363/363/363 362/362/362 
f 362/362/362 408/408/408 409/409/409 
f 410/410/410 364/364/364 363/363/363 
f 363/363/363 409/409/409 410/410/410 
f 411/411/411 365/365/365 364/364/364 
f 364/364/364 410/410/410 411/411/411 
f 412/412/412 366/366/366 365/365/365 
f 365/365/365 411/411/411 412/412/412 
f 413/413/413 367/367/367 366/366/366 
f 366/366/366 412/412/412 413/413/413 
f 414/414/414 368/368/368 367/367/367 
f 367/367/367 413/413/413 414/414/414 
f 415/415/415 369/369/369 368/368/368 
f 368/368/368 414/414/414 415/415/415 
f 416/416/416 370/370/370 369/369/369 
f 369/369/369 415/415/415 416/416/416 
f 417/417/417 371/371/371 370/370/370 
f 370/370/370 416/416/416 417/417/417 
f 418/418/418 372/372/372 371/371/371 
f 371/371/371 417/417/417 418/418/418 
f 372/372/372 418/418/418 373/373/373 
f 373/373/373 418/418/418 374/374/374 
f 374/374/374 418/418/418 375/375/375 
f 419/419/419 376/376/376 375/375/375 
f 375/375/375 418/418/418 419/419/419 
f 420/420/420 377/377/377 376/376/376 
f 376/376/376 419/419/419 420/420/420 
f 421/421/421 378/378/378 377/377/377 
f 377/377/377 420/420/420 421/421/421 
f 422/422/422 379/379/379 378/378/378 
f 378/378/378 421/421/421 422/422/422 
f 379/379/379 422/422/422 380/380/380 
f 380/380/380 422/422/422 381/381/381 
f 381/381/381 422/422/422 382/382/382 
f 423/423/423 383/383/383 382/382/382 
f 382/382/382 422/422/422 423/423/423 
f 424/424/424 384/384/384 383/383/383 
f 383/383/383 423/423/423 424/424/424 
f 425/425/425 385/385/385 384/384/384 
f 384/384/384 424/424/424 425/425/425 
f 426/426/426 386/386/386 385/385/385 
f 385/385/385 425/425/425 426/426/426 
f 427/427/427 387/387/387 386/386/386 
f 386/386/386 426/426/426 427/427/427 
f 428/428/428 388/388/388 387/387/387 
f 387/387/387 427/427/427 428/428/428 
f 429/429/429 389/389/389 388/388/388 
f 388/388/388 428/428/428 429/429/429 
f 430/430/430 390/390/390 389/389/389 
f 389/389/389 429/429/429 430/430/430 
f 431/431/431 391/391/391 390/390/390 
f 390/390/390 430/430/430 431/431/431 
f 432/432/432 392/392/392 391/391/391 
f 391/391/391 431/431/431 432/432/432 
f 433/433/433 393/393/393 392/392/392 
f 392/392/392 432/432/432 433/433/433 
f 434/434/434 394/394/394 393/393/393 
f 393/393/393 433/433/433 434/434/434 
f 435/435/435 395/395/395 394/394/394 
f 394/394/394 434/434/434 435/435/435 
f 436/436/436 396/396/396 395/395/395 
f 395/395/395 435/435/435 436/436/436 
f 437/437/437 397/397/397 396/396/396 
f 396/396/396 436/436/436 437/437/437 
f 398/398/398 347/347/347 397/397/397 
f 397/397/397 437/437/437 398/398/398 
f 417/417/417 438/438/438 419/419/419 
f 419/419/419 418/418/418 417/417/417 
f 416/416/416 439/439/439 438/438/438 
f 438/438/438 417/417/417 416/416/416 
f 415/415/415 440/440/440 439/439/439 
f 439/439/439 416/416/416 415/415/415 
f 414/414/414 441/441/441 440/440/440 
f 440/440/440 415/415/415 414/414/414 
f 413/413/413 442/442/442 441/441/441 
f 441/441/441 414/414/414 413/413/413 
f 412/412/412 443/443/443 442/442/442 
f 442/442/442 413/413/413 412/412/412 
f 411/411/411 444/444/444 443/443/443 
f 443/443/443 412/412/412 411/411/411 
f 410/410/410 445/445/445 444/444/444 
f 444/444/444 411/411/411 410/410/410 
f 409/409/409 446/446/446 445/445/445 
f 445/445/445 410/410/410 409/409/409 
f 408/408/408 447/447/447 446/446/446 
f 446/446/446 409/409/409 408/408/408 
f 407/407/407 448/448/448 447/447/447 
f 447/447/447 408/408/408 407/407/407 
f 406/406/406 449/449/449 448/448/448 
f 448/448/448 407/407/407 406/406/406 
f 405/405/405 450/450/450 449/449/449 
f 449/449/449 406/406/406 405/405/405 
f 404/404/404 451/451/451 450/450/450 
f 450/450/450 405/405/405 404/404/404 
f 403/403/403 452/452/452 451/451/451 
f 451/451/451 404/404/404 403/403/403 
f 402/402/402 401/401/401 452/452/452 
f 452/452/452 403/403/403 402/402/402 
f 438/438/438 453/453/453 420/420/420 
f 420/420/420 419/419/419 438/438/438 
f 439/439/439 454/454/454 453/453/453 
f 453/453/453 438/438/438 439/439/439 
f 440/440/440 455/455/455 454/454/454 
f 454/454/454 439/439/439 440/440/440 
f 441/441/441 456/456/456 455/455/455 
f 455/455/455 440/440/440 441/441/441 
f 442/442/442 457/457/457 456/456/456 
f 456/456/456 441/441/441 442/442/442 
f 443/443/443 458/458/458 457/457/457 
f 457/457/457 442/442/442 443/443/443 
f 444/444/444 459/459/459 458/458/458 
f 458/458/458 443/443/443 444/444/444 
f 445/445/445 460/460/460 459/459/459 
f 459/459/459 444/444/444 445/445/445 
f 446/446/446 461/461/461 460/460/460 
f 460/460/460 445/445/445 446/446/446 
f 447/447/447 462/462/462 461/461/461 
f 461/461/461 446/446/446 447/447/447 
f 448/448/448 463/463/463 462/462/462 
f 462/462/462 447/447/447 448/448/448 
f 449/449/449 464/464/464 463/463/463 
f 463/463/463 448/448/448 449/449/449 
f 450/450/450 465/465/465 464/464/464 
f 464/464/464 449/449/449 450/450/450 
f 451/451/451 466/466/466 465/465/465 
f 465/465/465 450/450/450 451/451/451 
f 452/452/452 467/467/467 466/466/466 
f 466/466/466 451/451/451 452/452/452 
f 401/401/401 400/400/400 467/467/467 
f 467/467/467 452/452/452 401/401/401 
f 453/453/453 468/468/468 421/421/421 
f 421/421/421 420/420/420 453/453/453 
f 454/454/454 469/469/469 468/468/468 
f 468/468/468 453/453/453 454/454/454 
f 455/455/455 470/470/470 469/469/469 
f 469/469/469 454/454/454 455/455/455 
f 456/456/456 471/471/471 470/470/470 
f 470/470/470 455/455/455 456/456/456 
f 457/457/457 472/472/472 471/471/471 
f 471/471/471 456/456/456 457/457/457 
f 458/458/458 473/473/473 472/472/472 
f 472/472/472 457/457/457 458/458/458 
f 459/459/459 474/474/474 473/473/473 
f 473/473/473 458/458/458 459/459/459 
f 460/460/460 475/475/475 474/474/474 
f 474/474/474 459/459/459 460/460/460 
f 461/461/461 476/476/476 475/475/475 
f 475/475/475 460/460/460 461/461/461 
f 462/462/462 477/477/477 476/476/476 
f 476/476/476 461/461/461 462/462/462 
f 463/463/463 478/478/478 477/477/477 
f 477/477/477 462/462/462 463/463/463 
f 464/464/464 479/479/479 478/478/478 
f 478/478/478 463/463/463 464/464/464 
f 465/465/465 480/480/480 479/479/479 
f 479/479/479 464/464/464 465/465/465 
f 466/466/466 481/481/481 480/480/480 
f 480/480/480 465/465/465 466/466/466 
f 467/467/467 482/482/482 481/481/481 
f 481/481/481 466/466/466 467/467/467 
f 400/400/400 399/399/399 482/482/482 
f 482/482/482 467/467/467 400/400/400 
f 468/468/468 423/423/423 422/422/422 
f 422/422/422 421/421/421 468/468/468 
f 469/469/469 424/424/424 423/423/423 
f 423/423/423 468/468/468 469/469/469 
f 470/470/470 425/425/425 424/424/424 
f 424/424/424 469/469/469 470/470/470 
f 471/471/471 426/426/426 425/425/425 
f 425/425/425 470/470/470 471/471/471 
f 472/472/472 427/427/427 426/426/426 
f 426/426/426 471/471/471 472/472/472 
f 473/473/473 428/428/428 427/427/427 
f 427/427/427 472/472/472 473/473/473 
f 474/474/474 429/429/429 428/428/428 
f 428/428/428 473/473/473 474/474/474 
f 475/475/475 430/430/430 429/429/429 
f 429/429/429 474/474/474 475/475/475 
f 476/476/476 431/431/431 430/430/430 
f 430/430/430 475/475/475 476/476/476 
f 477/477/477 432/432/432 431/431/431 
f 431/431/431 476/476/476 477/477/477 
f 478/478/478 433/433/433 432/432/432 
f 432/432/432 477/477/477 478/478/478 
f 479/479/479 434/434/434 433/433/433 
f 433/433/433 478/478/478 479/479/479 
f 480/480/480 435/435/435 434/434/434 
f 434/434/434 479/479/479 480/480/480 
f 481/481/481 436/436/436 435/435/435 
f 435/435/435 480/480/480 481/481/481 
f 482/482/482 437/437/437 436/436/436 
f 436/436/436 481/481/481 482/482/482 
f 399/399/399 398/398/398 437/437/437 
f 437/437/437 482/482/482 399/399/399 
# 960 faces

