# 3ds Max Wavefront OBJ Exporter v0.99 - (c)2007 guruware
# File Created: 13.05.2026 18:58:04

mtllib boteBasura3.mtl

#
# object Box002
#

v  -149.6219 4.9505 -19.4667
v  -149.5572 4.9505 -10.8888
v  -165.2667 4.9505 -10.7703
v  -165.3315 4.9505 -19.3482
v  -165.3315 25.0757 -19.3482
v  -149.6219 25.0757 -19.4667
v  -165.2667 25.0757 -10.7703
v  -149.5572 25.0757 -10.8888
v  -163.9776 25.0757 -11.8248
v  -163.9776 25.0757 -18.7011
v  -163.9776 5.5175 -11.8248
v  -150.1790 25.0757 -11.8248
v  -150.1790 5.5175 -11.8248
v  -150.1790 25.0757 -18.7011
v  -150.1790 5.5175 -18.7011
v  -163.9776 5.5175 -18.7011
# 16 vertices

vn 0.5730 -0.5774 -0.5817
vn 0.5817 -0.5774 0.5730
vn -0.5730 -0.5774 0.5817
vn -0.5817 -0.5774 -0.5730
vn -0.5817 0.5774 -0.5730
vn 0.5730 0.5774 -0.5817
vn -0.5730 0.5774 0.5817
vn 0.5817 0.5774 0.5730
vn 0.3015 0.9045 -0.3015
vn 0.3015 0.9045 0.3015
vn 0.5774 0.5774 -0.5774
vn -0.3015 0.9045 -0.3015
vn -0.5774 0.5774 -0.5774
vn -0.3015 0.9045 0.3015
vn -0.5774 0.5774 0.5774
vn 0.5774 0.5774 0.5774
# 16 vertex normals

vt 1.0000 0.0000 0.0000
vt 1.0000 1.0000 0.0000
vt 0.0000 1.0000 0.0000
vt 0.0000 0.0000 0.0000
vt 0.9174 0.8782 0.0000
vt 0.9141 0.0766 0.0000
vt 0.6667 0.0000 0.0000
vt 0.6667 0.8520 0.0000
vt 1.0000 0.8520 0.0000
vt 0.0000 0.8520 0.0000
vt 0.1667 0.8520 0.0000
vt 0.1667 0.0000 0.0000
vt 0.5000 0.8520 0.0000
vt 0.5000 0.0000 0.0000
vt 0.0358 0.0888 0.0000
vt 0.0391 0.8903 0.0000
# 16 texture coords

o Box002
g Box002
usemtl 10___Default
s 2
f 1/1/1 2/2/2 3/3/3 4/4/4 
s 8
f 1/4/1 4/1/4 5/2/5 6/3/6 
s 16
f 4/4/4 3/1/3 7/2/7 5/3/5 
s 32
f 3/4/3 2/1/2 8/2/8 7/3/7 
s 64
f 2/4/2 1/1/1 6/2/6 8/3/8 
s 4
f 9/5/9 10/6/10 5/1/5 7/2/7 
s 8
f 11/7/11 9/8/9 12/9/12 13/1/13 
s 1
f 13/4/13 12/10/12 14/11/14 15/12/15 
s 8
f 14/11/14 10/13/10 16/14/16 15/12/15 
s 4
f 15/3/15 16/4/16 11/1/11 13/2/13 
s 1
f 16/14/16 10/13/10 9/8/9 11/7/11 
s 4
f 14/15/14 12/16/12 8/3/8 6/4/6 
f 5/1/5 10/6/10 14/15/14 6/4/6 
f 12/16/12 9/5/9 7/2/7 8/3/8 
# 14 polygons

#
# object Box003
#

v  -144.1283 0.4610 -16.5175
v  -144.1128 0.4610 -14.4571
v  -147.3058 0.4610 -14.4330
v  -147.3214 0.4610 -16.4934
v  -144.1283 30.4976 -16.5175
v  -147.3214 30.4976 -16.4934
v  -147.3058 30.4976 -14.4330
v  -144.1128 30.4976 -14.4571
# 8 vertices

vn 0.5730 -0.5774 -0.5817
vn 0.5817 -0.5774 0.5730
vn -0.5730 -0.5774 0.5817
vn -0.5817 -0.5774 -0.5730
vn 0.5730 0.5774 -0.5817
vn -0.5817 0.5774 -0.5730
vn -0.5730 0.5774 0.5817
vn 0.5817 0.5774 0.5730
# 8 vertex normals

vt 1.0000 0.0000 0.0000
vt 1.0000 1.0000 0.0000
vt 0.0000 1.0000 0.0000
vt 0.0000 0.0000 0.0000
# 4 texture coords

o Box003
g Box003
usemtl 03___Default
s 2
f 17/17/17 18/18/18 19/19/19 20/20/20 
s 4
f 21/20/21 22/17/22 23/18/23 24/19/24 
s 8
f 17/20/17 20/17/20 22/18/22 21/19/21 
s 16
f 20/20/20 19/17/19 23/18/23 22/19/22 
s 32
f 19/20/19 18/17/18 24/18/24 23/19/23 
s 64
f 18/20/18 17/17/17 21/18/21 24/19/24 
# 6 polygons

#
# object Box004
#

v  -167.5078 -0.2861 -16.3316
v  -167.4922 -0.2861 -14.2712
v  -170.6853 -0.2861 -14.2471
v  -170.7008 -0.2861 -16.3075
v  -167.5078 29.7505 -16.3316
v  -170.7008 29.7505 -16.3075
v  -170.6853 29.7505 -14.2471
v  -167.4922 29.7505 -14.2712
# 8 vertices

vn 0.5730 -0.5774 -0.5817
vn 0.5817 -0.5774 0.5730
vn -0.5730 -0.5774 0.5817
vn -0.5817 -0.5774 -0.5730
vn 0.5730 0.5774 -0.5817
vn -0.5817 0.5774 -0.5730
vn -0.5730 0.5774 0.5817
vn 0.5817 0.5774 0.5730
# 8 vertex normals

vt 1.0000 0.0000 0.0000
vt 1.0000 1.0000 0.0000
vt 0.0000 1.0000 0.0000
vt 0.0000 0.0000 0.0000
# 4 texture coords

o Box004
g Box004
usemtl 03___Default
s 2
f 25/21/25 26/22/26 27/23/27 28/24/28 
s 4
f 29/24/29 30/21/30 31/22/31 32/23/32 
s 8
f 25/24/25 28/21/28 30/22/30 29/23/29 
s 16
f 28/24/28 27/21/27 31/22/31 30/23/30 
s 32
f 27/24/27 26/21/26 32/22/32 31/23/31 
s 64
f 26/24/26 25/21/25 29/22/29 32/23/32 
# 6 polygons

#
# object Box005
#

v  -172.3991 29.6802 -16.3154
v  -172.3836 29.6802 -14.2549
v  -172.3909 32.8734 -14.2549
v  -172.4064 32.8733 -16.3154
v  -142.3635 29.7492 -16.5420
v  -142.3708 32.9423 -16.5420
v  -142.3553 32.9423 -14.4815
v  -142.3479 29.7492 -14.4815
# 8 vertices

vn -0.5804 -0.5787 -0.5730
vn -0.5717 -0.5787 0.5817
vn -0.5743 0.5760 0.5817
vn -0.5830 0.5760 -0.5730
vn 0.5743 -0.5760 -0.5817
vn 0.5717 0.5787 -0.5817
vn 0.5804 0.5787 0.5730
vn 0.5830 -0.5760 0.5730
# 8 vertex normals

vt 1.0000 0.0000 0.0000
vt 1.0000 1.0000 0.0000
vt 0.0000 1.0000 0.0000
vt 0.0000 0.0000 0.0000
# 4 texture coords

o Box005
g Box005
usemtl 03___Default
s 2
f 33/25/33 34/26/34 35/27/35 36/28/36 
s 4
f 37/28/37 38/25/38 39/26/39 40/27/40 
s 8
f 33/28/33 36/25/36 38/26/38 37/27/37 
s 16
f 36/28/36 35/25/35 39/26/39 38/27/38 
s 32
f 35/28/35 34/25/34 40/26/40 39/27/39 
s 64
f 34/28/34 33/25/33 37/26/37 40/27/40 
# 6 polygons

#
# object Pyramid001
#

v  -150.9686 23.4892 -11.8651
v  -151.0600 23.4538 -18.9054
v  -147.2949 27.4131 -20.9736
v  -147.2416 27.3732 -9.7879
v  -164.1759 23.9578 -18.9335
v  -164.0787 23.8664 -11.4395
v  -167.4230 27.3862 -9.4455
v  -167.4763 27.4261 -20.6311
v  -151.0669 24.5132 -19.4412
v  -164.1803 24.6253 -19.2711
v  -150.9588 27.3805 -11.1072
v  -151.0669 27.4103 -19.4412
v  -150.9588 24.8657 -11.1072
v  -164.0722 24.7789 -10.9371
v  -164.1803 27.4190 -19.2711
v  -164.0722 27.3892 -10.9371
# 16 vertices

vn -0.2406 -0.8597 0.4383
vn -0.2529 -0.8643 -0.4472
vn 0.7057 0.3733 -0.6045
vn 0.7114 0.3690 0.5963
vn 0.2386 -0.8566 -0.4750
vn 0.2509 -0.8675 0.4101
vn -0.7045 0.3699 0.6204
vn -0.7102 0.3742 -0.5804
vn -0.6860 -0.2242 -0.6880
vn 0.6686 -0.2226 -0.7214
vn -0.3026 0.9064 -0.2734
vn -0.2975 0.9024 0.3299
vn -0.6660 -0.2344 0.7123
vn 0.6823 -0.2357 0.6793
vn 0.3009 0.9059 0.3107
vn 0.3048 0.9025 -0.2921
# 16 vertex normals

vt 0.8161 0.3678 0.0000
vt 0.1867 0.3735 0.0000
vt 0.0000 0.0000 0.0000
vt 1.0000 0.0000 0.0000
vt 0.8366 0.3268 0.0000
vt 0.1664 0.3329 0.0000
vt 0.8130 0.2736 0.0000
vt 0.1632 0.2638 0.0000
vt 0.8161 0.1236 0.0000
vt 1.0000 1.0000 0.0000
vt 0.8127 0.8687 0.0000
vt 0.1837 0.2375 0.0000
vt 0.8334 0.2465 0.0000
vt 0.6943 0.8633 0.0000
vt 0.6826 0.8218 0.0000
vt 0.5079 0.8260 0.0000
vt 0.5000 0.8563 0.0000
vt 0.1943 0.8512 0.0000
vt 0.1943 0.9830 0.0000
vt 0.5000 0.9834 0.0000
vt -0.0000 0.8673 0.0000
vt 0.1818 0.8031 0.0000
vt 0.0177 0.8047 0.0000
vt 1.0000 0.8673 0.0000
vt 0.6943 0.9820 0.0000
vt 1.0000 0.9816 0.0000
vt 0.1634 0.3268 0.0000
vt 0.8133 0.3735 0.0000
vt 0.1630 0.8734 0.0000
vt 0.0000 1.0000 0.0000
vt 0.1664 0.1283 0.0000
vt 0.8336 0.3329 0.0000
vt 0.1839 0.3678 0.0000
vt -0.0000 0.9816 0.0000
# 34 texture coords

o Pyramid001
g Pyramid001
usemtl 10___Default
s 2
f 41/29/41 42/30/42 43/31/43 44/32/44 
s 32
f 45/33/45 46/34/46 47/31/47 48/32/48 
s 4
f 43/32/43 49/35/49 50/36/50 48/31/48 
s 8
f 51/37/51 44/32/44 43/38/43 52/39/52 
s 16
f 53/40/53 44/31/44 47/32/47 54/41/54 
s 1
f 54/42/54 46/43/46 45/44/45 50/45/50 
s 2
f 50/45/50 49/46/49 52/47/52 55/48/55 
s 1
f 53/49/53 49/46/49 42/50/42 41/51/41 
s 2
f 53/52/53 54/42/54 56/53/56 51/54/51 
s 4
f 48/31/48 50/36/50 45/55/45 
f 49/35/49 43/32/43 42/56/42 
s 8
f 55/57/55 52/39/52 43/38/43 48/58/48 
f 47/31/47 56/59/56 55/57/55 48/58/48 
f 44/32/44 51/37/51 56/59/56 47/31/47 
s 16
f 54/41/54 47/32/47 46/60/46 
f 44/31/44 53/40/53 41/61/41 
s 1
f 56/53/56 54/42/54 50/45/50 55/48/55 
f 49/46/49 53/49/53 51/62/51 52/47/52 
# 14 polygons - 4 triangles

#
# object Box020
#

v  -176.7935 0.0000 17.9815
v  -180.3157 0.0000 17.9815
v  -180.3157 0.0000 -46.7426
v  -176.7935 0.0000 -46.7426
v  -176.7935 13.1025 17.9815
v  -176.7935 13.1025 -46.7426
v  -180.3157 13.1025 -46.7426
v  -180.3157 13.1025 17.9815
# 8 vertices

vn 0.5774 -0.5774 0.5774
vn -0.5774 -0.5774 0.5774
vn -0.5774 -0.5774 -0.5774
vn 0.5774 -0.5774 -0.5774
vn 0.5774 0.5774 0.5774
vn 0.5774 0.5774 -0.5774
vn -0.5774 0.5774 -0.5774
vn -0.5774 0.5774 0.5774
# 8 vertex normals

vt 1.0000 0.0000 0.0000
vt 1.0000 1.0000 0.0000
vt 0.0000 1.0000 0.0000
vt 0.0000 0.0000 0.0000
# 4 texture coords

o Box020
g Box020
usemtl 05___Default
s 2
f 57/63/57 58/64/58 59/65/59 60/66/60 
s 4
f 61/66/61 62/63/62 63/64/63 64/65/64 
s 8
f 57/66/57 60/63/60 62/64/62 61/65/61 
s 16
f 60/66/60 59/63/59 63/64/63 62/65/62 
s 32
f 59/66/59 58/63/58 64/64/64 63/65/63 
s 64
f 58/66/58 57/63/57 61/64/61 64/65/64 
# 6 polygons

#
# object Box021
#

v  -177.8063 13.1587 -45.0606
v  -179.5004 13.1587 -45.0606
v  -179.5004 13.1587 -45.6770
v  -177.8063 13.1587 -45.6770
v  -177.8063 17.2291 -45.0606
v  -177.8063 17.2291 -45.6770
v  -179.5004 17.2291 -45.6770
v  -179.5004 17.2291 -45.0606
# 8 vertices

vn 0.5774 -0.5774 0.5774
vn -0.5774 -0.5774 0.5774
vn -0.5774 -0.5774 -0.5774
vn 0.5774 -0.5774 -0.5774
vn 0.5774 0.5774 0.5774
vn 0.5774 0.5774 -0.5774
vn -0.5774 0.5774 -0.5774
vn -0.5774 0.5774 0.5774
# 8 vertex normals

vt 1.0000 0.0000 0.0000
vt 1.0000 1.0000 0.0000
vt 0.0000 1.0000 0.0000
vt 0.0000 0.0000 0.0000
# 4 texture coords

o Box021
g Box021
usemtl 12___Default
s 2
f 65/67/65 66/68/66 67/69/67 68/70/68 
s 4
f 69/70/69 70/67/70 71/68/71 72/69/72 
s 8
f 65/70/65 68/67/68 70/68/70 69/69/69 
s 16
f 68/70/68 67/67/67 71/68/71 70/69/70 
s 32
f 67/70/67 66/67/66 72/68/72 71/69/71 
s 64
f 66/70/66 65/67/65 69/68/69 72/69/72 
# 6 polygons

#
# object Box022
#

v  -177.8063 13.1587 -24.8246
v  -179.5004 13.1587 -24.8246
v  -179.5004 13.1587 -25.4410
v  -177.8063 13.1587 -25.4410
v  -177.8063 17.2291 -24.8246
v  -177.8063 17.2291 -25.4410
v  -179.5004 17.2291 -25.4410
v  -179.5004 17.2291 -24.8246
# 8 vertices

vn 0.5774 -0.5774 0.5774
vn -0.5774 -0.5774 0.5774
vn -0.5774 -0.5774 -0.5774
vn 0.5774 -0.5774 -0.5774
vn 0.5774 0.5774 0.5774
vn 0.5774 0.5774 -0.5774
vn -0.5774 0.5774 -0.5774
vn -0.5774 0.5774 0.5774
# 8 vertex normals

vt 1.0000 0.0000 0.0000
vt 1.0000 1.0000 0.0000
vt 0.0000 1.0000 0.0000
vt 0.0000 0.0000 0.0000
# 4 texture coords

o Box022
g Box022
usemtl 12___Default
s 2
f 73/71/73 74/72/74 75/73/75 76/74/76 
s 4
f 77/74/77 78/71/78 79/72/79 80/73/80 
s 8
f 73/74/73 76/71/76 78/72/78 77/73/77 
s 16
f 76/74/76 75/71/75 79/72/79 78/73/78 
s 32
f 75/74/75 74/71/74 80/72/80 79/73/79 
s 64
f 74/74/74 73/71/73 77/72/77 80/73/80 
# 6 polygons

#
# object Box023
#

v  -177.8063 13.1587 -4.8391
v  -179.5004 13.1587 -4.8391
v  -179.5004 13.1587 -5.4556
v  -177.8063 13.1587 -5.4556
v  -177.8063 17.2291 -4.8391
v  -177.8063 17.2291 -5.4556
v  -179.5004 17.2291 -5.4556
v  -179.5004 17.2291 -4.8391
# 8 vertices

vn 0.5774 -0.5774 0.5774
vn -0.5774 -0.5774 0.5774
vn -0.5774 -0.5774 -0.5774
vn 0.5774 -0.5774 -0.5774
vn 0.5774 0.5774 0.5774
vn 0.5774 0.5774 -0.5774
vn -0.5774 0.5774 -0.5774
vn -0.5774 0.5774 0.5774
# 8 vertex normals

vt 1.0000 0.0000 0.0000
vt 1.0000 1.0000 0.0000
vt 0.0000 1.0000 0.0000
vt 0.0000 0.0000 0.0000
# 4 texture coords

o Box023
g Box023
usemtl 12___Default
s 2
f 81/75/81 82/76/82 83/77/83 84/78/84 
s 4
f 85/78/85 86/75/86 87/76/87 88/77/88 
s 8
f 81/78/81 84/75/84 86/76/86 85/77/85 
s 16
f 84/78/84 83/75/83 87/76/87 86/77/86 
s 32
f 83/78/83 82/75/82 88/76/88 87/77/87 
s 64
f 82/78/82 81/75/81 85/76/85 88/77/88 
# 6 polygons

#
# object Box024
#

v  -177.8063 13.1587 16.9471
v  -179.5004 13.1587 16.9471
v  -179.5004 13.1587 16.3307
v  -177.8063 13.1587 16.3307
v  -177.8063 17.2291 16.9471
v  -177.8063 17.2291 16.3307
v  -179.5004 17.2291 16.3307
v  -179.5004 17.2291 16.9471
# 8 vertices

vn 0.5774 -0.5774 0.5774
vn -0.5774 -0.5774 0.5774
vn -0.5774 -0.5774 -0.5774
vn 0.5774 -0.5774 -0.5774
vn 0.5774 0.5774 0.5774
vn 0.5774 0.5774 -0.5774
vn -0.5774 0.5774 -0.5774
vn -0.5774 0.5774 0.5774
# 8 vertex normals

vt 1.0000 0.0000 0.0000
vt 1.0000 1.0000 0.0000
vt 0.0000 1.0000 0.0000
vt 0.0000 0.0000 0.0000
# 4 texture coords

o Box024
g Box024
usemtl 12___Default
s 2
f 89/79/89 90/80/90 91/81/91 92/82/92 
s 4
f 93/82/93 94/79/94 95/80/95 96/81/96 
s 8
f 89/82/89 92/79/92 94/80/94 93/81/93 
s 16
f 92/82/92 91/79/91 95/80/95 94/81/94 
s 32
f 91/82/91 90/79/90 96/80/96 95/81/95 
s 64
f 90/82/90 89/79/89 93/80/93 96/81/96 
# 6 polygons

#
# object Cylinder002
#

v  -178.6205 18.4249 -46.8259
v  -179.6958 19.7065 -46.8259
v  -179.1927 19.9970 -46.8259
v  -178.6205 20.0979 -46.8259
v  -180.2680 18.7154 -46.8259
v  -180.0693 19.2614 -46.8259
v  -180.0693 17.5884 -46.8259
v  -180.2680 18.1344 -46.8259
v  -179.1927 16.8528 -46.8259
v  -179.6958 17.1434 -46.8259
v  -178.0483 16.8528 -46.8259
v  -178.6205 16.7520 -46.8259
v  -177.1716 17.5884 -46.8259
v  -177.5451 17.1434 -46.8259
v  -176.9729 18.7154 -46.8259
v  -176.9729 18.1344 -46.8259
v  -177.5451 19.7065 -46.8259
v  -177.1716 19.2614 -46.8259
v  -178.0483 19.9970 -46.8259
v  -179.1927 19.9970 -33.8811
v  -178.6205 20.0979 -33.8811
v  -179.6958 19.7065 -33.8811
v  -180.0693 19.2614 -33.8811
v  -180.2680 18.7154 -33.8811
v  -180.2680 18.1344 -33.8811
v  -180.0693 17.5884 -33.8811
v  -179.6958 17.1434 -33.8811
v  -179.1927 16.8528 -33.8811
v  -178.6205 16.7520 -33.8811
v  -178.0483 16.8528 -33.8811
v  -177.5451 17.1434 -33.8811
v  -177.1716 17.5884 -33.8811
v  -176.9729 18.1344 -33.8811
v  -176.9729 18.7154 -33.8811
v  -177.1716 19.2614 -33.8811
v  -177.5451 19.7065 -33.8811
v  -178.0483 19.9970 -33.8811
v  -179.1927 19.9970 -20.9363
v  -178.6205 20.0979 -20.9363
v  -179.6958 19.7065 -20.9363
v  -180.0693 19.2614 -20.9363
v  -180.2680 18.7154 -20.9363
v  -180.2680 18.1344 -20.9363
v  -180.0693 17.5884 -20.9363
v  -179.6958 17.1434 -20.9363
v  -179.1927 16.8528 -20.9363
v  -178.6205 16.7520 -20.9363
v  -178.0483 16.8528 -20.9363
v  -177.5451 17.1434 -20.9363
v  -177.1716 17.5884 -20.9363
v  -176.9729 18.1344 -20.9363
v  -176.9729 18.7154 -20.9363
v  -177.1716 19.2614 -20.9363
v  -177.5451 19.7065 -20.9363
v  -178.0483 19.9970 -20.9363
v  -179.1927 19.9970 -7.9914
v  -178.6205 20.0979 -7.9914
v  -179.6958 19.7065 -7.9914
v  -180.0693 19.2614 -7.9914
v  -180.2680 18.7154 -7.9914
v  -180.2680 18.1344 -7.9914
v  -180.0693 17.5884 -7.9914
v  -179.6958 17.1434 -7.9914
v  -179.1927 16.8528 -7.9914
v  -178.6205 16.7520 -7.9914
v  -178.0483 16.8528 -7.9914
v  -177.5451 17.1434 -7.9914
v  -177.1716 17.5884 -7.9914
v  -176.9729 18.1344 -7.9914
v  -176.9729 18.7154 -7.9914
v  -177.1716 19.2614 -7.9914
v  -177.5451 19.7065 -7.9914
v  -178.0483 19.9970 -7.9914
v  -179.1927 19.9970 4.9534
v  -178.6205 20.0979 4.9534
v  -179.6958 19.7065 4.9534
v  -180.0693 19.2614 4.9534
v  -180.2680 18.7154 4.9534
v  -180.2680 18.1344 4.9534
v  -180.0693 17.5884 4.9534
v  -179.6958 17.1434 4.9534
v  -179.1927 16.8528 4.9534
v  -178.6205 16.7520 4.9534
v  -178.0483 16.8528 4.9534
v  -177.5451 17.1434 4.9534
v  -177.1716 17.5884 4.9534
v  -176.9729 18.1344 4.9534
v  -176.9729 18.7154 4.9534
v  -177.1716 19.2614 4.9534
v  -177.5451 19.7065 4.9534
v  -178.0483 19.9970 4.9534
v  -179.1927 19.9970 17.8982
v  -178.6205 20.0979 17.8982
v  -179.6958 19.7065 17.8982
v  -180.0693 19.2614 17.8982
v  -180.2680 18.7154 17.8982
v  -180.2680 18.1344 17.8982
v  -180.0693 17.5884 17.8982
v  -179.6958 17.1434 17.8982
v  -179.1927 16.8528 17.8982
v  -178.6205 16.7520 17.8982
v  -178.0483 16.8528 17.8982
v  -177.5451 17.1434 17.8982
v  -177.1716 17.5884 17.8982
v  -176.9729 18.1344 17.8982
v  -176.9729 18.7154 17.8982
v  -177.1716 19.2614 17.8982
v  -177.5451 19.7065 17.8982
v  -178.0483 19.9970 17.8982
v  -178.6205 18.4249 17.8982
# 110 vertices

vn -0.0000 -0.0000 -1.0000
vn -0.4772 0.5687 -0.6700
vn -0.2539 0.6975 -0.6701
vn 0.0000 0.7423 -0.6701
vn -0.7311 0.1289 -0.6700
vn -0.6429 0.3712 -0.6700
vn -0.6429 -0.3711 -0.6701
vn -0.7311 -0.1289 -0.6700
vn -0.2539 -0.6975 -0.6701
vn -0.4771 -0.5686 -0.6701
vn 0.2539 -0.6976 -0.6700
vn 0.0000 -0.7423 -0.6701
vn 0.6429 -0.3712 -0.6700
vn 0.4772 -0.5687 -0.6700
vn 0.7311 0.1289 -0.6700
vn 0.7311 -0.1289 -0.6700
vn 0.4772 0.5686 -0.6701
vn 0.6429 0.3712 -0.6700
vn 0.2539 0.6975 -0.6701
vn -0.3420 0.9397 0.0000
vn 0.0000 1.0000 -0.0000
vn -0.6428 0.7660 0.0000
vn -0.8660 0.5000 0.0000
vn -0.9848 0.1736 0.0000
vn -0.9848 -0.1736 0.0000
vn -0.8660 -0.5000 0.0000
vn -0.6428 -0.7661 0.0000
vn -0.3420 -0.9397 0.0000
vn 0.0000 -1.0000 -0.0000
vn 0.3420 -0.9397 -0.0000
vn 0.6428 -0.7660 -0.0000
vn 0.8660 -0.5000 -0.0000
vn 0.9848 -0.1736 -0.0000
vn 0.9848 0.1736 -0.0000
vn 0.8660 0.5000 -0.0000
vn 0.6428 0.7660 -0.0000
vn 0.3420 0.9397 -0.0000
vn -0.2539 0.6975 0.6701
vn 0.0000 0.7423 0.6701
vn -0.4772 0.5687 0.6700
vn -0.6429 0.3712 0.6700
vn -0.7311 0.1289 0.6700
vn -0.7311 -0.1289 0.6700
vn -0.6429 -0.3711 0.6701
vn -0.4771 -0.5686 0.6701
vn -0.2539 -0.6975 0.6701
vn 0.0000 -0.7423 0.6701
vn 0.2539 -0.6976 0.6700
vn 0.4772 -0.5687 0.6700
vn 0.6429 -0.3712 0.6700
vn 0.7311 -0.1289 0.6700
vn 0.7311 0.1289 0.6700
vn 0.6429 0.3712 0.6700
vn 0.4772 0.5686 0.6701
vn 0.2539 0.6975 0.6701
vn 0.0000 0.0000 1.0000
# 56 vertex normals

vt 0.5000 0.0000 0.0000
vt 0.8611 0.0000 1.0000
vt 0.8056 0.0000 1.0000
vt 0.7500 0.0000 1.0000
vt 0.9722 0.0000 1.0000
vt 0.9167 0.0000 1.0000
vt 0.0833 0.0000 1.0000
vt 0.0278 0.0000 1.0000
vt -0.0278 0.0000 1.0000
vt 0.1944 0.0000 1.0000
vt 0.1389 0.0000 1.0000
vt 0.3056 0.0000 1.0000
vt 0.2500 0.0000 1.0000
vt 0.4167 0.0000 1.0000
vt 0.3611 0.0000 1.0000
vt 0.5278 0.0000 1.0000
vt 0.4722 0.0000 1.0000
vt 0.6389 0.0000 1.0000
vt 0.5833 0.0000 1.0000
vt 0.6944 0.0000 1.0000
vt 0.8056 0.2000 1.0000
vt 0.7500 0.2000 1.0000
vt 0.8611 0.2000 1.0000
vt 0.9167 0.2000 1.0000
vt 0.9722 0.2000 1.0000
vt 0.0278 0.2000 1.0000
vt -0.0278 0.2000 1.0000
vt 0.0833 0.2000 1.0000
vt 0.1389 0.2000 1.0000
vt 0.1944 0.2000 1.0000
vt 0.2500 0.2000 1.0000
vt 0.3056 0.2000 1.0000
vt 0.3611 0.2000 1.0000
vt 0.4167 0.2000 1.0000
vt 0.4722 0.2000 1.0000
vt 0.5278 0.2000 1.0000
vt 0.5833 0.2000 1.0000
vt 0.6389 0.2000 1.0000
vt 0.6944 0.2000 1.0000
vt 0.8056 0.4000 1.0000
vt 0.7500 0.4000 1.0000
vt 0.8611 0.4000 1.0000
vt 0.9167 0.4000 1.0000
vt 0.9722 0.4000 1.0000
vt 0.0278 0.4000 1.0000
vt -0.0278 0.4000 1.0000
vt 0.0833 0.4000 1.0000
vt 0.1389 0.4000 1.0000
vt 0.1944 0.4000 1.0000
vt 0.2500 0.4000 1.0000
vt 0.3056 0.4000 1.0000
vt 0.3611 0.4000 1.0000
vt 0.4167 0.4000 1.0000
vt 0.4722 0.4000 1.0000
vt 0.5278 0.4000 1.0000
vt 0.5833 0.4000 1.0000
vt 0.6389 0.4000 1.0000
vt 0.6944 0.4000 1.0000
vt 0.8056 0.6000 1.0000
vt 0.7500 0.6000 1.0000
vt 0.8611 0.6000 1.0000
vt 0.9167 0.6000 1.0000
vt 0.9722 0.6000 1.0000
vt 0.0278 0.6000 1.0000
vt -0.0278 0.6000 1.0000
vt 0.0833 0.6000 1.0000
vt 0.1389 0.6000 1.0000
vt 0.1944 0.6000 1.0000
vt 0.2500 0.6000 1.0000
vt 0.3056 0.6000 1.0000
vt 0.3611 0.6000 1.0000
vt 0.4167 0.6000 1.0000
vt 0.4722 0.6000 1.0000
vt 0.5278 0.6000 1.0000
vt 0.5833 0.6000 1.0000
vt 0.6389 0.6000 1.0000
vt 0.6944 0.6000 1.0000
vt 0.8056 0.8000 1.0000
vt 0.7500 0.8000 1.0000
vt 0.8611 0.8000 1.0000
vt 0.9167 0.8000 1.0000
vt 0.9722 0.8000 1.0000
vt 0.0278 0.8000 1.0000
vt -0.0278 0.8000 1.0000
vt 0.0833 0.8000 1.0000
vt 0.1389 0.8000 1.0000
vt 0.1944 0.8000 1.0000
vt 0.2500 0.8000 1.0000
vt 0.3056 0.8000 1.0000
vt 0.3611 0.8000 1.0000
vt 0.4167 0.8000 1.0000
vt 0.4722 0.8000 1.0000
vt 0.5278 0.8000 1.0000
vt 0.5833 0.8000 1.0000
vt 0.6389 0.8000 1.0000
vt 0.6944 0.8000 1.0000
vt 0.8056 1.0000 1.0000
vt 0.7500 1.0000 1.0000
vt 0.8611 1.0000 1.0000
vt 0.9167 1.0000 1.0000
vt 0.9722 1.0000 1.0000
vt 0.0278 1.0000 1.0000
vt -0.0278 1.0000 1.0000
vt 0.0833 1.0000 1.0000
vt 0.1389 1.0000 1.0000
vt 0.1944 1.0000 1.0000
vt 0.2500 1.0000 1.0000
vt 0.3056 1.0000 1.0000
vt 0.3611 1.0000 1.0000
vt 0.4167 1.0000 1.0000
vt 0.4722 1.0000 1.0000
vt 0.5278 1.0000 1.0000
vt 0.5833 1.0000 1.0000
vt 0.6389 1.0000 1.0000
vt 0.6944 1.0000 1.0000
vt 0.5000 1.0000 0.0000
vt 0.9708 1.0000 0.8794
# 117 texture coords

o Cylinder002
g Cylinder002
usemtl 12___Default
s 1
f 97/83/97 98/84/98 99/85/99 100/86/100 
f 97/83/97 101/87/101 102/88/102 98/84/98 
f 97/83/97 103/89/103 104/90/104 101/91/101 
f 97/83/97 105/92/105 106/93/106 103/89/103 
f 97/83/97 107/94/107 108/95/108 105/92/105 
f 97/83/97 109/96/109 110/97/110 107/94/107 
f 97/83/97 111/98/111 112/99/112 109/96/109 
f 97/83/97 113/100/113 114/101/114 111/98/111 
f 97/83/97 100/86/100 115/102/115 113/100/113 
s 8
f 100/86/100 99/85/99 116/103/116 117/104/117 
f 99/85/99 98/84/98 118/105/118 116/103/116 
f 98/84/98 102/88/102 119/106/119 118/105/118 
f 102/88/102 101/87/101 120/107/120 119/106/119 
f 101/91/101 104/90/104 121/108/121 120/109/120 
f 104/90/104 103/89/103 122/110/122 121/108/121 
f 103/89/103 106/93/106 123/111/123 122/110/122 
f 106/93/106 105/92/105 124/112/124 123/111/123 
f 105/92/105 108/95/108 125/113/125 124/112/124 
f 108/95/108 107/94/107 126/114/126 125/113/125 
f 107/94/107 110/97/110 127/115/127 126/114/126 
f 110/97/110 109/96/109 128/116/128 127/115/127 
f 109/96/109 112/99/112 129/117/129 128/116/128 
f 112/99/112 111/98/111 130/118/130 129/117/129 
f 111/98/111 114/101/114 131/119/131 130/118/130 
f 114/101/114 113/100/113 132/120/132 131/119/131 
f 113/100/113 115/102/115 133/121/133 132/120/132 
f 115/102/115 100/86/100 117/104/117 133/121/133 
f 117/104/117 116/103/116 134/122/116 135/123/117 
f 116/103/116 118/105/118 136/124/118 134/122/116 
f 118/105/118 119/106/119 137/125/119 136/124/118 
f 119/106/119 120/107/120 138/126/120 137/125/119 
f 120/109/120 121/108/121 139/127/121 138/128/120 
f 121/108/121 122/110/122 140/129/122 139/127/121 
f 122/110/122 123/111/123 141/130/123 140/129/122 
f 123/111/123 124/112/124 142/131/124 141/130/123 
f 124/112/124 125/113/125 143/132/125 142/131/124 
f 125/113/125 126/114/126 144/133/126 143/132/125 
f 126/114/126 127/115/127 145/134/127 144/133/126 
f 127/115/127 128/116/128 146/135/128 145/134/127 
f 128/116/128 129/117/129 147/136/129 146/135/128 
f 129/117/129 130/118/130 148/137/130 147/136/129 
f 130/118/130 131/119/131 149/138/131 148/137/130 
f 131/119/131 132/120/132 150/139/132 149/138/131 
f 132/120/132 133/121/133 151/140/133 150/139/132 
f 133/121/133 117/104/117 135/123/117 151/140/133 
f 135/123/117 134/122/116 152/141/116 153/142/117 
f 134/122/116 136/124/118 154/143/118 152/141/116 
f 136/124/118 137/125/119 155/144/119 154/143/118 
f 137/125/119 138/126/120 156/145/120 155/144/119 
f 138/128/120 139/127/121 157/146/121 156/147/120 
f 139/127/121 140/129/122 158/148/122 157/146/121 
f 140/129/122 141/130/123 159/149/123 158/148/122 
f 141/130/123 142/131/124 160/150/124 159/149/123 
f 142/131/124 143/132/125 161/151/125 160/150/124 
f 143/132/125 144/133/126 162/152/126 161/151/125 
f 144/133/126 145/134/127 163/153/127 162/152/126 
f 145/134/127 146/135/128 164/154/128 163/153/127 
f 146/135/128 147/136/129 165/155/129 164/154/128 
f 147/136/129 148/137/130 166/156/130 165/155/129 
f 148/137/130 149/138/131 167/157/131 166/156/130 
f 149/138/131 150/139/132 168/158/132 167/157/131 
f 150/139/132 151/140/133 169/159/133 168/158/132 
f 151/140/133 135/123/117 153/142/117 169/159/133 
f 153/142/117 152/141/116 170/160/116 171/161/117 
f 152/141/116 154/143/118 172/162/118 170/160/116 
f 154/143/118 155/144/119 173/163/119 172/162/118 
f 155/144/119 156/145/120 174/164/120 173/163/119 
f 156/147/120 157/146/121 175/165/121 174/166/120 
f 157/146/121 158/148/122 176/167/122 175/165/121 
f 158/148/122 159/149/123 177/168/123 176/167/122 
f 159/149/123 160/150/124 178/169/124 177/168/123 
f 160/150/124 161/151/125 179/170/125 178/169/124 
f 161/151/125 162/152/126 180/171/126 179/170/125 
f 162/152/126 163/153/127 181/172/127 180/171/126 
f 163/153/127 164/154/128 182/173/128 181/172/127 
f 164/154/128 165/155/129 183/174/129 182/173/128 
f 165/155/129 166/156/130 184/175/130 183/174/129 
f 166/156/130 167/157/131 185/176/131 184/175/130 
f 167/157/131 168/158/132 186/177/132 185/176/131 
f 168/158/132 169/159/133 187/178/133 186/177/132 
f 169/159/133 153/142/117 171/161/117 187/178/133 
f 171/161/117 170/160/116 188/179/134 189/180/135 
f 170/160/116 172/162/118 190/181/136 188/179/134 
f 172/162/118 173/163/119 191/182/137 190/181/136 
f 173/163/119 174/164/120 192/183/138 191/182/137 
f 174/166/120 175/165/121 193/184/139 192/185/138 
f 175/165/121 176/167/122 194/186/140 193/184/139 
f 176/167/122 177/168/123 195/187/141 194/186/140 
f 177/168/123 178/169/124 196/188/142 195/187/141 
f 178/169/124 179/170/125 197/189/143 196/188/142 
f 179/170/125 180/171/126 198/190/144 197/189/143 
f 180/171/126 181/172/127 199/191/145 198/190/144 
f 181/172/127 182/173/128 200/192/146 199/191/145 
f 182/173/128 183/174/129 201/193/147 200/192/146 
f 183/174/129 184/175/130 202/194/148 201/193/147 
f 184/175/130 185/176/131 203/195/149 202/194/148 
f 185/176/131 186/177/132 204/196/150 203/195/149 
f 186/177/132 187/178/133 205/197/151 204/196/150 
f 187/178/133 171/161/117 189/180/135 205/197/151 
s 1
f 206/198/152 205/197/151 189/180/135 188/179/134 
f 206/198/152 188/179/134 190/181/136 191/182/137 
f 206/198/152 191/182/137 192/183/138 193/199/139 
f 206/198/152 193/184/139 194/186/140 195/187/141 
f 206/198/152 195/187/141 196/188/142 197/189/143 
f 206/198/152 197/189/143 198/190/144 199/191/145 
f 206/198/152 199/191/145 200/192/146 201/193/147 
f 206/198/152 201/193/147 202/194/148 203/195/149 
f 206/198/152 203/195/149 204/196/150 205/197/151 
# 108 polygons

