# 3ds Max Wavefront OBJ Exporter v0.99 - (c)2007 guruware
# File Created: 13.05.2026 17:20:14

mtllib ventanillas.mtl

#
# object Box008
#

v  -163.7924 0.0000 67.9500
v  -163.1943 0.0000 59.9865
v  166.4514 0.0000 60.0211
v  166.3301 0.0000 67.5662
v  -163.7924 25.1547 67.9500
v  169.6206 25.1547 67.9500
v  169.6206 25.1547 52.2696
v  -163.7924 25.1547 52.2696
# 8 vertices

vn -0.5870 -0.5755 0.5694
vn -0.5789 -0.6533 -0.4880
vn 0.5779 -0.6628 -0.4761
vn 0.5581 -0.5968 0.5765
vn -0.5774 0.5774 0.5774
vn 0.5944 0.5580 0.5791
vn 0.5782 0.4794 -0.6602
vn -0.5661 0.4890 -0.6636
# 8 vertex normals

vt 1.0000 0.0000 0.0000
vt 1.0000 1.0000 0.0000
vt 0.0000 1.0000 0.0000
vt 0.0000 0.0000 0.0000
# 4 texture coords

o Box008
g Box008
usemtl 01___Default
s 2
f 1/1/1 2/2/2 3/3/3 4/4/4 
s 4
f 5/4/5 6/1/6 7/2/7 8/3/8 
s 8
f 1/4/1 4/1/4 6/2/6 5/3/5 
s 16
f 4/4/4 3/1/3 7/2/7 6/3/6 
s 32
f 3/4/3 2/1/2 8/2/8 7/3/7 
s 64
f 2/4/2 1/1/1 5/2/5 8/3/8 
# 6 polygons

#
# object Box009
#

v  169.7280 0.0000 67.6978
v  161.7645 0.0000 67.4702
v  161.7991 0.0000 -58.0125
v  170.0782 0.0000 -57.9385
v  169.7280 25.1547 67.6978
v  169.7279 25.1547 -59.2188
v  154.0476 25.1547 -59.2188
v  154.0476 25.1547 67.6978
# 8 vertices

vn 0.5677 -0.5758 0.5884
vn -0.4880 -0.6533 0.5789
vn -0.4752 -0.6625 -0.5790
vn 0.5884 -0.5890 -0.5540
vn 0.5774 0.5774 0.5774
vn 0.5700 0.5650 -0.5965
vn -0.6602 0.4794 -0.5782
vn -0.6636 0.4890 0.5661
# 8 vertex normals

vt 1.0000 0.0000 0.0000
vt 1.0000 1.0000 0.0000
vt 0.0000 1.0000 0.0000
vt 0.0000 0.0000 0.0000
# 4 texture coords

o Box009
g Box009
usemtl 01___Default
s 2
f 9/5/9 10/6/10 11/7/11 12/8/12 
s 4
f 13/8/13 14/5/14 15/6/15 16/7/16 
s 8
f 9/8/9 12/5/12 14/6/14 13/7/13 
s 16
f 12/8/12 11/5/11 15/6/15 14/7/14 
s 32
f 11/8/11 10/5/10 16/6/16 15/7/15 
s 64
f 10/8/10 9/5/9 13/6/13 16/7/16 
# 6 polygons

#
# object Box013
#

v  169.6899 0.0000 69.8332
v  169.6899 0.0000 -60.1668
v  182.0146 0.0000 -60.1668
v  182.0146 0.0000 69.8332
v  169.6899 110.0000 69.8332
v  182.0146 110.0000 69.8332
v  182.0146 110.0000 -60.1668
v  169.6899 110.0000 -60.1668
v  169.6899 66.1627 68.1005
v  169.6899 107.5593 68.0635
v  169.6899 67.5593 68.0635
v  182.0146 107.5593 68.0635
v  182.0146 66.1627 68.1005
v  182.0146 67.5593 68.0635
v  169.6899 67.5593 -57.6933
v  182.0146 67.5593 -57.6933
v  182.0146 107.5593 -57.6933
v  169.6899 107.5593 -57.6933
v  182.0146 107.5593 -17.6933
v  169.6899 107.5593 -17.6933
v  182.0146 67.5593 -17.6933
v  169.6899 67.5593 -17.6933
v  182.0146 107.5593 -15.0120
v  169.6899 107.5593 -15.0120
v  169.6899 67.5593 -15.0120
v  182.0146 67.5593 -15.0120
v  182.0146 107.5593 24.9880
v  169.6899 107.5593 24.9880
v  182.0146 67.5593 24.9880
v  169.6899 67.5593 24.9880
v  182.0146 107.5593 28.0635
v  169.6899 107.5593 28.0635
v  169.6899 67.5593 28.0635
v  182.0146 67.5593 28.0635
v  169.6899 66.1627 28.1005
v  182.0146 66.1627 28.1005
v  182.0146 26.1627 68.1005
v  169.6899 26.1627 68.1005
v  182.0146 26.1627 28.1005
v  169.6899 26.1627 28.1005
v  169.6899 66.1627 -14.9164
v  182.0146 66.1627 -14.9164
v  182.0146 66.1627 25.0836
v  169.6899 66.1627 25.0836
v  182.0146 26.1627 25.0836
v  169.6899 26.1627 25.0836
v  182.0146 26.1627 -14.9164
v  169.6899 26.1627 -14.9164
v  169.6899 66.1627 -57.6016
v  182.0146 66.1627 -57.6016
v  182.0146 66.1627 -17.6016
v  169.6899 66.1627 -17.6016
v  182.0146 26.1627 -17.6016
v  169.6899 26.1627 -17.6016
v  182.0146 26.1627 -57.6016
v  169.6899 26.1627 -57.6016
# 56 vertices

vn -0.5774 -0.5774 0.5774
vn -0.5774 -0.5774 -0.5774
vn 0.5774 -0.5774 -0.5774
vn 0.5774 -0.5774 0.5774
vn -0.5774 0.5774 0.5774
vn 0.5774 0.5774 0.5774
vn 0.5774 0.5774 -0.5774
vn -0.5774 0.5774 -0.5774
vn -0.9045 0.3015 -0.3015
vn 0.9045 0.3015 -0.3015
vn 0.9045 -0.3015 -0.3015
vn -0.9045 -0.3015 -0.3015
vn 0.9045 -0.3015 0.3015
vn -0.9045 -0.3015 0.3015
vn -0.9045 0.3015 0.3015
vn 0.9045 0.3015 0.3015
# 16 vertex normals

vt 1.0000 0.0000 0.0000
vt 1.0000 1.0000 0.0000
vt 0.0000 1.0000 0.0000
vt 0.0000 0.0000 0.0000
vt 0.9867 0.6015 0.0000
vt 0.9864 0.9778 0.0000
vt 0.9864 0.6142 0.0000
vt 0.0136 0.9778 0.0000
vt 0.0133 0.6015 0.0000
vt 0.0136 0.6142 0.0000
vt 0.7500 0.1888 0.0000
vt 0.7500 0.6818 0.0000
vt 1.0000 0.6818 0.0000
vt 1.0000 0.1888 0.0000
vt 0.2500 0.6818 0.0000
vt 0.2500 0.1888 0.0000
vt 0.0000 0.1888 0.0000
vt 0.0000 0.6818 0.0000
vt 0.5000 0.6818 0.0000
vt 0.5000 0.1888 0.0000
vt -0.0000 0.6818 0.0000
vt 0.0000 0.2843 0.0000
vt -0.0000 0.7773 0.0000
vt 0.2500 0.7773 0.0000
vt 0.2500 0.2843 0.0000
vt 0.5000 0.7773 0.0000
vt 0.5000 0.2843 0.0000
vt 0.7500 0.7773 0.0000
vt 0.7500 0.2843 0.0000
vt 1.0000 0.7773 0.0000
vt 1.0000 0.2843 0.0000
vt 0.0000 0.7773 0.0000
vt 0.6550 0.9778 0.0000
vt 0.6787 0.9778 0.0000
vt 0.3274 0.6015 0.0000
vt 0.3481 0.6015 0.0000
vt 0.3473 0.6142 0.0000
vt 0.3267 0.6142 0.0000
vt 0.6550 0.6142 0.0000
vt 0.6558 0.6015 0.0000
vt 0.0190 0.6142 0.0000
vt 0.0197 0.6015 0.0000
vt 0.6787 0.6142 0.0000
vt 0.6790 0.6015 0.0000
vt 0.3473 0.9778 0.0000
vt 0.3267 0.9778 0.0000
vt 0.3274 0.2378 0.0000
vt 0.3481 0.2378 0.0000
vt 0.6558 0.2378 0.0000
vt 0.6790 0.2378 0.0000
vt 0.0190 0.9778 0.0000
vt 0.0197 0.2378 0.0000
vt 0.9867 0.2378 0.0000
vt 0.3213 0.9778 0.0000
vt 0.3450 0.9778 0.0000
vt 0.6519 0.6015 0.0000
vt 0.6527 0.6142 0.0000
vt 0.3450 0.6142 0.0000
vt 0.3442 0.6015 0.0000
vt 0.9803 0.6015 0.0000
vt 0.9810 0.6142 0.0000
vt 0.6733 0.6142 0.0000
vt 0.6726 0.6015 0.0000
vt 0.3210 0.6015 0.0000
vt 0.3213 0.6142 0.0000
vt 0.6733 0.9778 0.0000
vt 0.6527 0.9778 0.0000
vt 0.6519 0.2378 0.0000
vt 0.6726 0.2378 0.0000
vt 0.3442 0.2378 0.0000
vt 0.3210 0.2378 0.0000
vt 0.9810 0.9778 0.0000
vt 0.9803 0.2378 0.0000
vt 0.0133 0.2378 0.0000
# 74 texture coords

o Box013
g Box013
usemtl 08___Default
s 2
f 17/9/17 18/10/18 19/11/19 20/12/20 
s 4
f 21/12/21 22/9/22 23/10/23 24/11/24 
s 8
f 17/12/17 20/9/20 22/10/22 21/11/21 
s 32
f 19/12/19 18/9/18 24/10/24 23/11/23 
s 64
f 25/13/19 17/9/17 26/14/19 27/15/25 
s 16
f 28/16/18 20/12/20 29/17/18 30/18/26 
s 4
f 31/19/22 32/20/21 33/21/17 34/22/20 
s 1
f 35/23/27 36/24/28 34/25/20 33/26/17 
s 4
f 36/24/28 35/23/27 37/27/26 38/28/25 
s 1
f 37/27/26 32/20/21 31/19/22 38/28/25 
s 4
f 39/21/29 40/22/30 41/19/31 42/20/32 
s 1
f 40/25/30 39/29/29 43/23/27 44/24/28 
s 4
f 44/24/28 43/23/27 45/27/26 46/28/25 
s 1
f 45/27/26 42/20/32 41/19/31 46/28/25 
s 4
f 47/21/29 48/22/30 49/19/31 50/20/32 
s 1
f 48/25/30 47/29/29 28/23/18 26/24/19 
s 4
f 26/24/19 28/23/18 30/27/26 27/28/25 
s 1
f 30/27/26 50/20/32 49/19/31 27/28/25 
f 51/30/30 52/31/29 29/32/18 25/33/19 
s 4
f 29/32/18 53/34/24 54/35/23 25/33/19 
s 1
f 53/34/24 55/36/32 56/37/31 54/35/23 
s 2
f 52/38/29 51/39/30 56/37/31 55/36/32 
s 1
f 57/30/30 58/31/29 59/32/27 60/33/28 
s 4
f 59/32/27 61/34/26 62/35/25 60/33/28 
s 1
f 61/34/26 63/36/32 64/37/31 62/35/25 
s 2
f 58/38/29 57/39/30 64/37/31 63/36/32 
s 1
f 65/30/30 66/40/29 67/32/27 68/33/28 
s 4
f 67/32/27 69/34/26 70/35/25 68/33/28 
s 1
f 69/34/26 71/36/21 72/37/22 70/35/25 
s 2
f 66/38/29 65/39/30 72/37/22 71/36/21 
s 64
f 26/14/19 17/9/17 21/10/21 24/11/24 
f 24/11/24 44/41/28 48/42/30 26/14/19 
f 68/43/28 57/44/30 41/45/31 38/46/25 
f 46/47/25 41/45/31 57/44/30 60/48/28 
f 38/46/25 31/49/22 65/50/30 68/43/28 
f 49/51/31 46/47/25 60/48/28 51/52/30 
f 51/52/30 25/13/19 27/15/25 49/51/31 
f 41/45/31 40/53/30 36/54/28 38/46/25 
f 70/55/25 64/56/31 57/44/30 68/43/28 
f 62/57/25 56/58/31 51/52/30 60/48/28 
f 49/51/31 48/42/30 44/41/28 46/47/25 
f 24/11/24 36/54/28 40/53/30 44/41/28 
f 24/11/24 18/12/18 34/59/20 36/54/28 
f 18/12/18 65/50/30 31/49/22 34/59/20 
f 18/12/18 17/9/17 72/60/22 65/50/30 
f 17/9/17 64/56/31 70/55/25 72/60/22 
f 17/9/17 56/58/31 62/57/25 64/56/31 
f 17/9/17 25/13/19 54/61/23 56/58/31 
s 16
f 20/12/20 28/16/18 23/10/23 22/11/22 
f 47/62/29 43/63/27 23/10/23 28/16/18 
f 58/64/29 42/65/32 45/66/26 59/67/27 
f 66/68/29 32/69/21 37/70/26 67/71/27 
f 30/18/26 29/17/18 52/72/29 50/73/32 
f 42/65/32 37/70/26 35/74/27 39/75/29 
f 42/65/32 58/64/29 67/71/27 37/70/26 
f 58/64/29 63/76/32 69/77/26 67/71/27 
f 61/78/26 59/67/27 52/72/29 55/79/32 
f 59/67/27 45/66/26 50/73/32 52/72/29 
f 43/63/27 47/62/29 50/73/32 45/66/26 
f 39/75/29 35/74/27 23/10/23 43/63/27 
f 33/80/17 19/9/19 23/10/23 35/74/27 
f 32/69/21 66/68/29 19/9/19 33/80/17 
f 71/81/21 20/12/20 19/9/19 66/68/29 
f 69/77/26 63/76/32 20/12/20 71/81/21 
f 61/78/26 55/79/32 20/12/20 63/76/32 
f 53/82/24 29/17/18 20/12/20 55/79/32 
# 66 polygons

#
# object Box014
#

v  -163.2111 0.0000 67.8697
v  180.7889 0.0000 67.8697
v  180.7889 0.0000 90.0481
v  -163.2111 0.0000 90.0481
v  -163.2111 110.0000 90.0481
v  180.7889 110.0000 90.0481
v  180.7889 110.0000 67.8697
v  -163.2111 110.0000 67.8697
v  -98.2112 26.1627 67.8697
v  -93.8359 26.1627 67.8697
v  -138.2112 26.1627 67.8697
v  -97.4849 107.5593 90.0481
v  -93.0948 107.5593 90.0481
v  -137.5067 107.5593 90.0481
v  167.6981 107.5593 90.0481
v  166.9659 107.5593 67.8697
v  166.9659 67.5593 67.8697
v  167.6981 67.5593 90.0481
v  126.9441 67.5593 67.8697
v  127.6763 67.5593 90.0481
v  126.9441 107.5593 67.8697
v  127.6763 107.5593 90.0481
v  123.5679 107.5593 67.8697
v  124.3001 107.5593 90.0481
v  84.2783 107.5593 90.0481
v  83.5461 107.5593 67.8697
v  84.2783 67.5593 90.0481
v  83.5461 67.5593 67.8697
v  124.3001 67.5593 90.0481
v  123.5679 67.5593 67.8697
v  79.5523 107.5593 67.8697
v  80.2846 107.5593 90.0481
v  40.2628 107.5593 90.0481
v  39.5305 107.5593 67.8697
v  40.2628 67.5593 90.0481
v  39.5305 67.5593 67.8697
v  80.2846 67.5593 90.0481
v  79.5523 67.5593 67.8697
v  35.1194 107.5593 67.8697
v  35.8516 107.5593 90.0481
v  -4.1702 107.5593 90.0481
v  -4.9024 107.5593 67.8697
v  -4.1702 67.5593 90.0481
v  -4.9024 67.5593 67.8697
v  35.8516 67.5593 90.0481
v  35.1194 67.5593 67.8697
v  -9.1429 107.5593 67.8697
v  -8.4106 107.5593 90.0481
v  -48.4324 107.5593 90.0481
v  -49.1647 107.5593 67.8697
v  -48.4324 67.5593 90.0481
v  -49.1647 67.5593 67.8697
v  -8.4106 67.5593 90.0481
v  -9.1429 67.5593 67.8697
v  -53.8053 107.5593 67.8697
v  -53.0730 107.5593 90.0481
v  -93.8271 107.5593 67.8697
v  -93.0948 67.5593 90.0481
v  -93.8271 67.5593 67.8697
v  -53.0730 67.5593 90.0481
v  -53.8053 67.5593 67.8697
v  -98.2172 107.5593 67.8697
v  -138.2390 107.5593 67.8697
v  -137.5067 67.5593 90.0481
v  -138.2390 67.5593 67.8697
v  -97.4849 67.5593 90.0481
v  -98.2172 67.5593 67.8697
v  166.9348 66.1627 90.0481
v  166.9348 66.1627 67.8697
v  166.9348 26.1627 67.8697
v  166.9348 26.1627 90.0481
v  126.9348 66.1627 90.0481
v  126.9348 66.1627 67.8697
v  126.9348 26.1627 90.0481
v  126.9348 26.1627 67.8697
v  123.4440 66.1627 90.0481
v  123.4440 66.1627 67.8697
v  123.4440 26.1627 67.8697
v  123.4440 26.1627 90.0481
v  83.4440 66.1627 90.0481
v  83.4440 66.1627 67.8697
v  83.4440 26.1627 90.0481
v  83.4440 26.1627 67.8697
v  79.5024 66.1627 90.0481
v  79.5024 66.1627 67.8697
v  79.5024 26.1627 67.8697
v  79.5024 26.1627 90.0481
v  39.5024 66.1627 90.0481
v  39.5024 66.1627 67.8697
v  39.5024 26.1627 90.0481
v  39.5024 26.1627 67.8697
v  35.0967 66.1627 90.0481
v  35.0967 66.1627 67.8697
v  35.0967 26.1627 67.8697
v  35.0967 26.1627 90.0481
v  -4.9033 66.1627 90.0481
v  -4.9033 66.1627 67.8697
v  -4.9033 26.1627 90.0481
v  -4.9033 26.1627 67.8697
v  -9.2082 66.1627 90.0481
v  -9.2082 66.1627 67.8697
v  -9.2082 26.1627 67.8697
v  -9.2082 26.1627 90.0481
v  -49.2082 66.1627 90.0481
v  -49.2082 66.1627 67.8697
v  -49.2082 26.1627 90.0481
v  -49.2082 26.1627 67.8697
v  -53.8359 66.1627 90.0481
v  -53.8359 66.1627 67.8697
v  -53.8359 26.1627 67.8697
v  -53.8359 26.1627 90.0481
v  -93.8359 66.1627 90.0481
v  -93.8359 66.1627 67.8697
v  -93.8359 26.1627 90.0481
v  -98.2112 66.1627 90.0481
v  -98.2112 66.1627 67.8697
v  -98.2112 26.1627 90.0481
v  -138.2112 66.1627 90.0481
v  -138.2112 66.1627 67.8697
v  -138.2112 26.1627 90.0481
# 120 vertices

vn -0.5774 -0.5774 -0.5774
vn 0.5774 -0.5774 -0.5774
vn 0.5774 -0.5774 0.5774
vn -0.5774 -0.5774 0.5774
vn -0.5774 0.5774 0.5774
vn 0.5774 0.5774 0.5774
vn 0.5774 0.5774 -0.5774
vn -0.5774 0.5774 -0.5774
vn -0.3015 0.3015 -0.9045
vn 0.3015 0.3015 -0.9045
vn -0.2992 -0.2931 0.9081
vn 0.3034 -0.3101 0.9010
vn 0.3035 -0.3100 0.9010
vn -0.3035 -0.3100 -0.9010
vn -0.3035 0.3100 -0.9010
vn -0.2992 0.2931 0.9081
vn 0.2992 0.2931 -0.9081
vn 0.3034 0.3101 0.9010
vn 0.2992 -0.2931 -0.9081
vn -0.5877 -0.5756 -0.5686
vn -0.3034 -0.3101 -0.9010
vn -0.3034 0.3101 -0.9010
vn -0.5876 -0.5757 -0.5686
vn 0.3035 0.3100 0.9010
vn -0.3015 -0.3015 0.9045
vn -0.3015 -0.3015 -0.9045
vn -0.3015 0.3015 0.9045
vn 0.3015 -0.3015 0.9045
vn 0.3015 -0.3015 -0.9045
vn 0.3015 0.3015 0.9045
# 30 vertex normals

vt 1.0000 1.0000 0.0000
vt 0.0000 1.0000 0.0000
vt 0.0000 0.0000 0.0000
vt 1.0000 0.0000 0.0000
vt 0.8110 0.2378 0.0000
vt 0.7983 0.2378 0.0000
vt 0.9273 0.2378 0.0000
vt 0.1911 0.9778 0.0000
vt 0.2038 0.9778 0.0000
vt 0.0747 0.9778 0.0000
vt 1.0000 0.9890 0.0000
vt 1.0000 0.1014 0.0000
vt 0.7500 0.1014 0.0000
vt 0.7500 0.9890 0.0000
vt 0.5000 0.0486 0.0000
vt 0.5000 0.9362 0.0000
vt 0.2500 0.0486 0.0000
vt 0.2500 0.9362 0.0000
vt 0.0000 0.1014 0.0000
vt -0.0000 0.9890 0.0000
vt 0.0000 0.9890 0.0000
vt -0.0000 0.1014 0.0000
vt 1.0000 0.9352 0.0000
vt 1.0000 0.0481 0.0000
vt 0.7500 0.0481 0.0000
vt 0.7500 0.9352 0.0000
vt 0.0000 0.0481 0.0000
vt 0.0000 0.9352 0.0000
vt 0.2500 0.9352 0.0000
vt 0.2500 0.0481 0.0000
vt 0.5000 0.9352 0.0000
vt 0.5000 0.0481 0.0000
vt 0.0402 0.9778 0.0000
vt 0.1565 0.9778 0.0000
vt 0.1663 0.9778 0.0000
vt 0.2827 0.9778 0.0000
vt 0.0402 0.6142 0.0000
vt 0.2827 0.6142 0.0000
vt 0.1663 0.6142 0.0000
vt 0.1667 0.6015 0.0000
vt 0.2830 0.6015 0.0000
vt 0.6685 0.6142 0.0000
vt 0.5521 0.6142 0.0000
vt 0.5523 0.6015 0.0000
vt 0.6686 0.6015 0.0000
vt 0.4106 0.6142 0.0000
vt 0.2943 0.6142 0.0000
vt 0.2944 0.6015 0.0000
vt 0.4107 0.6015 0.0000
vt 0.1565 0.6142 0.0000
vt 0.0403 0.6015 0.0000
vt 0.1566 0.6015 0.0000
vt 0.0403 0.2378 0.0000
vt 0.1566 0.2378 0.0000
vt 0.7983 0.6142 0.0000
vt 0.6820 0.6142 0.0000
vt 0.6820 0.6015 0.0000
vt 0.7983 0.6015 0.0000
vt 0.9273 0.6015 0.0000
vt 0.9274 0.6142 0.0000
vt 0.8111 0.6142 0.0000
vt 0.8110 0.6015 0.0000
vt 0.5398 0.6142 0.0000
vt 0.4235 0.6142 0.0000
vt 0.4235 0.6015 0.0000
vt 0.5398 0.6015 0.0000
vt 0.1667 0.2378 0.0000
vt 0.2830 0.2378 0.0000
vt 0.2943 0.9778 0.0000
vt 0.4106 0.9778 0.0000
vt 0.5398 0.9778 0.0000
vt 0.5521 0.9778 0.0000
vt 0.4107 0.2378 0.0000
vt 0.4235 0.2378 0.0000
vt 0.4235 0.9778 0.0000
vt 0.6685 0.9778 0.0000
vt 0.6820 0.2378 0.0000
vt 0.6686 0.2378 0.0000
vt 0.6820 0.9778 0.0000
vt 0.7983 0.9778 0.0000
vt 0.8111 0.9778 0.0000
vt 0.9274 0.9778 0.0000
vt 0.2944 0.2378 0.0000
vt 0.5398 0.2378 0.0000
vt 0.5523 0.2378 0.0000
vt 0.8456 0.9778 0.0000
vt 0.9619 0.9778 0.0000
vt 0.8333 0.6015 0.0000
vt 0.8358 0.6142 0.0000
vt 0.7194 0.6142 0.0000
vt 0.7170 0.6015 0.0000
vt 0.4477 0.6015 0.0000
vt 0.4500 0.6142 0.0000
vt 0.3337 0.6142 0.0000
vt 0.3314 0.6015 0.0000
vt 0.7056 0.6015 0.0000
vt 0.7078 0.6142 0.0000
vt 0.5915 0.6142 0.0000
vt 0.5893 0.6015 0.0000
vt 0.9597 0.6015 0.0000
vt 0.9619 0.6142 0.0000
vt 0.8456 0.6142 0.0000
vt 0.8434 0.6015 0.0000
vt 0.3180 0.6015 0.0000
vt 0.3202 0.6142 0.0000
vt 0.2038 0.6142 0.0000
vt 0.2017 0.6015 0.0000
vt 0.5765 0.6015 0.0000
vt 0.5787 0.6142 0.0000
vt 0.4623 0.6142 0.0000
vt 0.4602 0.6015 0.0000
vt 0.1890 0.6015 0.0000
vt 0.1911 0.6142 0.0000
vt 0.0747 0.6142 0.0000
vt 0.0727 0.6015 0.0000
vt 0.9597 0.2378 0.0000
vt 0.8434 0.2378 0.0000
vt 0.8358 0.9778 0.0000
vt 0.7078 0.9778 0.0000
vt 0.7194 0.9778 0.0000
vt 0.8333 0.2378 0.0000
vt 0.7170 0.2378 0.0000
vt 0.7056 0.2378 0.0000
vt 0.5893 0.2378 0.0000
vt 0.5765 0.2378 0.0000
vt 0.4623 0.9778 0.0000
vt 0.4500 0.9778 0.0000
vt 0.2017 0.2378 0.0000
vt 0.1890 0.2378 0.0000
vt 0.5787 0.9778 0.0000
vt 0.5915 0.9778 0.0000
vt 0.4602 0.2378 0.0000
vt 0.4477 0.2378 0.0000
vt 0.3202 0.9778 0.0000
vt 0.3337 0.9778 0.0000
vt 0.3314 0.2378 0.0000
vt 0.3180 0.2378 0.0000
vt 0.0727 0.2378 0.0000
# 138 texture coords

o Box014
g Box014
usemtl 08___Default
s 2
f 73/83/33 74/84/34 75/85/35 76/86/36 
s 4
f 77/85/37 78/86/38 79/83/39 80/84/40 
s 16
f 75/85/35 74/86/34 79/83/39 78/84/38 
s 32
f 81/87/41 82/88/42 73/86/33 83/89/42 
s 64
f 73/85/33 76/86/36 77/83/37 80/84/40 
s 8
f 84/90/43 85/91/44 77/84/37 86/92/45 
s 4
f 87/93/43 88/94/46 89/95/47 90/96/48 
s 1
f 89/95/47 91/97/49 92/98/50 90/96/48 
s 2
f 91/97/49 93/99/51 94/100/44 92/98/50 
s 1
f 94/100/44 93/99/51 88/101/46 87/102/43 
f 95/101/46 96/103/52 97/100/44 98/99/51 
s 4
f 97/100/44 99/98/50 100/97/49 98/99/51 
s 1
f 99/98/50 101/96/48 102/95/47 100/97/49 
s 2
f 96/93/52 95/94/46 102/95/47 101/96/48 
s 1
f 103/101/46 104/103/43 105/100/44 106/99/51 
s 4
f 105/100/44 107/98/50 108/97/49 106/99/51 
s 1
f 107/98/50 109/96/48 110/95/47 108/97/49 
s 2
f 104/93/43 103/94/46 110/95/47 109/96/48 
s 1
f 111/101/53 112/103/43 113/100/44 114/99/51 
s 4
f 113/100/44 115/98/50 116/97/49 114/99/51 
s 1
f 115/98/50 117/96/48 118/95/54 116/97/49 
s 2
f 112/93/43 111/94/53 118/95/54 117/96/48 
s 1
f 119/104/53 120/103/55 121/100/44 122/99/51 
s 4
f 121/100/44 123/98/50 124/97/49 122/99/51 
s 1
f 123/98/50 125/96/48 126/95/54 124/97/49 
s 2
f 120/93/55 119/94/53 126/95/54 125/96/48 
s 1
f 127/101/53 128/103/43 85/100/44 129/99/51 
s 4
f 85/100/44 130/98/50 131/97/49 129/99/51 
s 1
f 130/98/50 132/96/48 133/95/54 131/97/49 
s 2
f 128/93/43 127/94/53 133/95/54 132/96/48 
s 1
f 134/101/46 84/103/43 86/100/45 135/99/51 
s 4
f 86/100/45 136/98/56 137/97/49 135/99/51 
s 1
f 136/98/56 138/96/48 139/95/47 137/97/49 
s 2
f 84/93/43 134/94/46 139/95/47 138/96/48 
s 4
f 140/105/57 141/106/58 142/107/41 143/108/59 
s 1
f 141/109/58 140/110/57 144/111/60 145/112/61 
s 4
f 144/111/60 146/113/62 147/114/42 145/112/61 
s 1
f 147/114/42 146/113/62 143/108/59 142/107/41 
s 4
f 148/105/57 149/106/58 150/107/41 151/108/40 
s 1
f 149/109/58 148/110/57 152/111/60 153/112/61 
s 4
f 152/111/60 154/113/62 155/114/42 153/112/61 
s 1
f 155/114/42 154/113/62 151/108/40 150/107/41 
s 4
f 156/105/57 157/106/58 158/107/41 159/108/59 
s 1
f 156/110/57 160/111/60 161/112/61 157/109/58 
s 4
f 160/111/60 162/113/62 163/114/42 161/112/61 
s 1
f 162/113/62 159/108/59 158/107/41 163/114/42 
s 4
f 164/105/57 165/106/58 166/107/41 167/108/59 
s 1
f 165/109/58 164/110/57 168/111/60 169/112/61 
s 4
f 168/111/60 170/113/62 171/114/42 169/112/61 
s 1
f 171/114/42 170/113/62 167/108/59 166/107/41 
s 4
f 172/105/57 173/106/58 174/107/41 175/108/59 
s 1
f 173/109/58 172/110/57 176/111/60 177/112/61 
s 4
f 176/111/60 178/113/62 179/114/42 177/112/61 
s 1
f 179/114/42 178/113/62 175/108/59 174/107/41 
s 4
f 180/105/57 181/106/58 182/107/41 183/108/59 
s 1
f 181/109/58 180/110/57 184/111/60 185/112/61 
s 4
f 184/111/60 186/113/62 82/114/42 185/112/61 
s 1
f 82/114/42 186/113/62 183/108/59 182/107/41 
s 4
f 187/105/57 188/106/58 81/107/41 189/108/40 
s 1
f 188/109/58 187/110/57 190/111/34 191/112/61 
s 4
f 190/111/34 192/113/39 83/114/42 191/112/61 
s 1
f 83/114/42 192/113/39 189/108/40 81/107/41 
s 32
f 88/115/46 93/116/51 80/83/40 79/84/39 
f 95/117/46 98/118/51 80/83/40 93/116/51 
f 74/85/34 89/119/47 88/115/46 79/84/39 
f 100/120/49 102/121/47 149/122/58 153/123/61 
f 124/124/49 126/125/54 173/126/58 177/127/61 
f 108/128/49 110/129/47 157/130/58 161/131/61 
f 110/129/47 100/120/49 153/123/61 157/130/58 
f 91/132/49 89/119/47 141/133/58 145/134/61 
f 74/85/34 142/135/41 141/133/58 89/119/47 
f 73/86/33 147/136/42 142/135/41 74/85/34 
f 131/137/49 133/138/54 181/139/58 185/140/61 
f 191/141/61 137/142/49 139/143/47 188/144/58 
f 116/145/49 118/146/54 165/147/58 169/148/61 
f 93/116/51 91/132/49 102/121/47 95/117/46 
f 145/134/61 149/122/58 102/121/47 91/132/49 
f 145/134/61 147/136/42 150/149/41 149/122/58 
f 73/86/33 155/150/42 150/149/41 147/136/42 
f 110/129/47 103/151/46 98/118/51 100/120/49 
f 103/151/46 106/152/51 80/83/40 98/118/51 
f 114/153/51 116/145/49 126/125/54 119/154/53 
f 169/148/61 173/126/58 126/125/54 116/145/49 
f 165/147/58 161/131/61 163/155/42 166/156/41 
f 118/146/54 108/128/49 161/131/61 165/147/58 
f 118/146/54 111/157/53 106/152/51 108/128/49 
f 111/157/53 114/153/51 80/83/40 106/152/51 
f 119/154/53 122/158/51 80/83/40 114/153/51 
f 182/159/41 181/139/58 177/127/61 179/160/42 
f 133/138/54 124/124/49 177/127/61 181/139/58 
f 133/138/54 127/161/53 122/158/51 124/124/49 
f 127/161/53 129/162/51 80/83/40 122/158/51 
f 139/143/47 131/137/49 185/140/61 188/144/58 
f 139/143/47 134/163/46 129/162/51 131/137/49 
f 134/163/46 135/164/51 80/83/40 129/162/51 
f 135/164/51 137/142/49 73/86/33 80/83/40 
f 191/141/61 83/89/42 73/86/33 137/142/49 
f 153/123/61 155/150/42 158/165/41 157/130/58 
f 73/86/33 163/155/42 158/165/41 155/150/42 
f 73/86/33 171/166/42 166/156/41 163/155/42 
f 169/148/61 171/166/42 174/167/41 173/126/58 
f 73/86/33 179/160/42 174/167/41 171/166/42 
f 73/86/33 82/88/42 182/159/41 179/160/42 
f 185/140/61 82/88/42 81/87/41 188/144/58 
s 8
f 77/84/37 94/168/44 87/169/43 78/83/38 
f 148/170/57 101/171/48 99/172/50 152/173/60 
f 172/174/57 125/175/48 123/176/50 176/177/60 
f 156/178/57 109/179/48 107/180/50 160/181/60 
f 140/182/57 90/183/48 92/184/50 144/185/60 
f 180/186/57 132/187/48 130/188/50 184/189/60 
f 164/190/57 117/191/48 115/192/50 168/193/60 
f 187/194/57 138/195/48 136/196/56 190/197/34 
f 87/169/43 90/183/48 75/86/35 78/83/38 
f 140/182/57 143/198/59 75/86/35 90/183/48 
f 143/198/59 146/199/62 76/85/36 75/86/35 
f 92/184/50 94/168/44 101/171/48 144/185/60 
f 94/168/44 77/84/37 96/200/52 101/171/48 
f 77/84/37 104/201/43 97/202/44 96/200/52 
f 148/170/57 146/199/62 144/185/60 101/171/48 
f 151/203/40 76/85/36 146/199/62 148/170/57 
f 154/204/62 159/205/59 76/85/36 151/203/40 
f 156/178/57 154/204/62 152/173/60 109/179/48 
f 159/205/59 154/204/62 156/178/57 
f 162/206/62 167/207/59 76/85/36 159/205/59 
f 115/192/50 113/208/44 125/175/48 168/193/60 
f 113/208/44 77/84/37 120/209/55 125/175/48 
f 187/194/57 186/210/62 184/189/60 138/195/48 
f 189/211/40 76/85/36 186/210/62 187/194/57 
f 99/172/50 97/202/44 109/179/48 152/173/60 
f 97/202/44 104/201/43 109/179/48 
f 77/84/37 112/212/43 105/213/44 104/201/43 
f 130/188/50 85/91/44 138/195/48 184/189/60 
f 85/91/44 84/90/43 138/195/48 
f 164/190/57 162/206/62 160/181/60 117/191/48 
f 167/207/59 162/206/62 164/190/57 
f 170/214/62 175/215/59 76/85/36 167/207/59 
f 107/180/50 105/213/44 117/191/48 160/181/60 
f 105/213/44 112/212/43 117/191/48 
f 77/84/37 113/208/44 112/212/43 
f 77/84/37 128/216/43 121/217/44 120/209/55 
f 172/174/57 170/214/62 168/193/60 125/175/48 
f 175/215/59 170/214/62 172/174/57 
f 178/218/62 183/219/59 76/85/36 175/215/59 
f 180/186/57 178/218/62 176/177/60 132/187/48 
f 183/219/59 178/218/62 180/186/57 
f 186/210/62 76/85/36 183/219/59 
f 192/220/39 77/84/37 76/85/36 189/211/40 
f 190/197/34 136/196/56 77/84/37 192/220/39 
f 86/92/45 77/84/37 136/196/56 
f 123/176/50 121/217/44 132/187/48 176/177/60 
f 121/217/44 128/216/43 132/187/48 
f 77/84/37 85/91/44 128/216/43 
# 140 polygons - 12 triangles

#
# object Plane025
#

v  176.3496 107.5094 -57.4326
v  176.3496 67.8113 -57.4326
v  176.8298 67.8113 -17.7374
v  176.8298 107.5094 -17.7374
# 4 vertices

vn -0.9999 -0.0000 0.0121
# 1 vertex normals

vt 0.0000 1.0000 0.0000
vt 0.0000 0.0000 0.0000
vt 1.0000 0.0000 0.0000
vt 1.0000 1.0000 0.0000
# 4 texture coords

o Plane025
g Plane025
usemtl 06___Default
s 1
f 193/221/63 194/222/63 195/223/63 196/224/63 
# 1 polygons

#
# object Plane026
#

v  176.3496 107.5094 -14.4970
v  176.3496 67.8113 -14.4970
v  176.8298 67.8113 25.1982
v  176.8298 107.5094 25.1982
# 4 vertices

vn -0.9999 -0.0000 0.0121
# 1 vertex normals

vt 0.0000 1.0000 0.0000
vt 0.0000 0.0000 0.0000
vt 1.0000 0.0000 0.0000
vt 1.0000 1.0000 0.0000
# 4 texture coords

o Plane026
g Plane026
usemtl 06___Default
s 1
f 197/225/64 198/226/64 199/227/64 200/228/64 
# 1 polygons

#
# object Plane027
#

v  176.3496 107.5094 28.4824
v  176.3496 67.8113 28.4824
v  176.8298 67.8113 68.1776
v  176.8298 107.5094 68.1776
# 4 vertices

vn -0.9999 -0.0000 0.0121
# 1 vertex normals

vt 0.0000 1.0000 0.0000
vt 0.0000 0.0000 0.0000
vt 1.0000 0.0000 0.0000
vt 1.0000 1.0000 0.0000
# 4 texture coords

o Plane027
g Plane027
usemtl 06___Default
s 1
f 201/229/65 202/230/65 203/231/65 204/232/65 
# 1 polygons

#
# object Plane028
#

v  176.3496 65.5782 -57.4326
v  176.3496 25.8801 -57.4326
v  176.8298 25.8801 -17.7374
v  176.8298 65.5782 -17.7374
# 4 vertices

vn -0.9999 -0.0000 0.0121
# 1 vertex normals

vt 0.0000 1.0000 0.0000
vt 0.0000 0.0000 0.0000
vt 1.0000 0.0000 0.0000
vt 1.0000 1.0000 0.0000
# 4 texture coords

o Plane028
g Plane028
usemtl 06___Default
s 1
f 205/233/66 206/234/66 207/235/66 208/236/66 
# 1 polygons

#
# object Plane029
#

v  176.3496 66.1022 -14.4970
v  176.3496 26.4041 -14.4970
v  176.8298 26.4041 25.1982
v  176.8298 66.1022 25.1982
# 4 vertices

vn -0.9999 -0.0000 0.0121
# 1 vertex normals

vt 0.0000 1.0000 0.0000
vt 0.0000 0.0000 0.0000
vt 1.0000 0.0000 0.0000
vt 1.0000 1.0000 0.0000
# 4 texture coords

o Plane029
g Plane029
usemtl 06___Default
s 1
f 209/237/67 210/238/67 211/239/67 212/240/67 
# 1 polygons

#
# object Plane030
#

v  176.3496 66.1022 28.4824
v  176.3496 26.4041 28.4824
v  176.8298 26.4041 68.1776
v  176.8298 66.1022 68.1776
# 4 vertices

vn -0.9999 -0.0000 0.0121
# 1 vertex normals

vt 0.0000 1.0000 0.0000
vt 0.0000 0.0000 0.0000
vt 1.0000 0.0000 0.0000
vt 1.0000 1.0000 0.0000
# 4 texture coords

o Plane030
g Plane030
usemtl 06___Default
s 1
f 213/241/68 214/242/68 215/243/68 216/244/68 
# 1 polygons

#
# object Plane031
#

v  166.8939 107.5094 77.1225
v  166.8939 67.8113 77.1225
v  127.1968 67.8113 77.4072
v  127.1968 107.5094 77.4072
# 4 vertices

vn -0.0072 -0.0000 -1.0000
# 1 vertex normals

vt 0.0000 1.0000 0.0000
vt 0.0000 0.0000 0.0000
vt 1.0000 0.0000 0.0000
vt 1.0000 1.0000 0.0000
# 4 texture coords

o Plane031
g Plane031
usemtl 06___Default
s 1
f 217/245/69 218/246/69 219/247/69 220/248/69 
# 1 polygons

#
# object Plane032
#

v  123.9786 107.5094 77.1225
v  123.9786 67.8113 77.1225
v  84.2815 67.8113 77.4072
v  84.2815 107.5094 77.4072
# 4 vertices

vn -0.0072 -0.0000 -1.0000
# 1 vertex normals

vt 0.0000 1.0000 0.0000
vt 0.0000 0.0000 0.0000
vt 1.0000 0.0000 0.0000
vt 1.0000 1.0000 0.0000
# 4 texture coords

o Plane032
g Plane032
usemtl 06___Default
s 1
f 221/249/70 222/250/70 223/251/70 224/252/70 
# 1 polygons

#
# object Plane033
#

v  79.7326 107.5094 77.1225
v  79.7326 67.8113 77.1225
v  40.0355 67.8113 77.4072
v  40.0355 107.5094 77.4072
# 4 vertices

vn -0.0072 -0.0000 -1.0000
# 1 vertex normals

vt 0.0000 1.0000 0.0000
vt 0.0000 0.0000 0.0000
vt 1.0000 0.0000 0.0000
vt 1.0000 1.0000 0.0000
# 4 texture coords

o Plane033
g Plane033
usemtl 06___Default
s 1
f 225/253/71 226/254/71 227/255/71 228/256/71 
# 1 polygons

#
# object Plane034
#

v  34.8622 107.5094 77.1225
v  34.8622 67.8113 77.1225
v  -4.8349 67.8113 77.4072
v  -4.8349 107.5094 77.4072
# 4 vertices

vn -0.0072 -0.0000 -1.0000
# 1 vertex normals

vt 0.0000 1.0000 0.0000
vt 0.0000 0.0000 0.0000
vt 1.0000 0.0000 0.0000
vt 1.0000 1.0000 0.0000
# 4 texture coords

o Plane034
g Plane034
usemtl 06___Default
s 1
f 229/257/72 230/258/72 231/259/72 232/260/72 
# 1 polygons

#
# object Plane035
#

v  -8.8723 107.5094 77.1225
v  -8.8723 67.8113 77.1225
v  -48.5694 67.8113 77.4072
v  -48.5694 107.5094 77.4072
# 4 vertices

vn -0.0072 -0.0000 -1.0000
# 1 vertex normals

vt 0.0000 1.0000 0.0000
vt 0.0000 0.0000 0.0000
vt 1.0000 0.0000 0.0000
vt 1.0000 1.0000 0.0000
# 4 texture coords

o Plane035
g Plane035
usemtl 06___Default
s 1
f 233/261/73 234/262/73 235/263/73 236/264/73 
# 1 polygons

#
# object Plane036
#

v  -53.4284 107.5094 77.1225
v  -53.4284 67.8113 77.1225
v  -93.1255 67.8113 77.4072
v  -93.1255 107.5094 77.4072
# 4 vertices

vn -0.0072 -0.0000 -1.0000
# 1 vertex normals

vt 0.0000 1.0000 0.0000
vt 0.0000 0.0000 0.0000
vt 1.0000 0.0000 0.0000
vt 1.0000 1.0000 0.0000
# 4 texture coords

o Plane036
g Plane036
usemtl 06___Default
s 1
f 237/265/74 238/266/74 239/267/74 240/268/74 
# 1 polygons

#
# object Plane037
#

v  -99.1006 107.5094 77.1225
v  -99.1006 67.8113 77.1225
v  -138.7977 67.8113 77.4072
v  -138.7977 107.5094 77.4072
# 4 vertices

vn -0.0072 -0.0000 -1.0000
# 1 vertex normals

vt 0.0000 1.0000 0.0000
vt 0.0000 0.0000 0.0000
vt 1.0000 0.0000 0.0000
vt 1.0000 1.0000 0.0000
# 4 texture coords

o Plane037
g Plane037
usemtl 06___Default
s 1
f 241/269/75 242/270/75 243/271/75 244/272/75 
# 1 polygons

#
# object Plane038
#

v  -99.1006 66.2729 77.1225
v  -99.1006 26.5748 77.1225
v  -138.7977 26.5748 77.4072
v  -138.7977 66.2729 77.4072
# 4 vertices

vn -0.0072 -0.0000 -1.0000
# 1 vertex normals

vt 0.0000 1.0000 0.0000
vt 0.0000 0.0000 0.0000
vt 1.0000 0.0000 0.0000
vt 1.0000 1.0000 0.0000
# 4 texture coords

o Plane038
g Plane038
usemtl 06___Default
s 1
f 245/273/76 246/274/76 247/275/76 248/276/76 
# 1 polygons

#
# object Plane039
#

v  -53.4284 66.2619 77.1225
v  -53.4284 26.5638 77.1225
v  -93.1255 26.5638 77.4072
v  -93.1255 66.2619 77.4072
# 4 vertices

vn -0.0072 -0.0000 -1.0000
# 1 vertex normals

vt 0.0000 1.0000 0.0000
vt 0.0000 0.0000 0.0000
vt 1.0000 0.0000 0.0000
vt 1.0000 1.0000 0.0000
# 4 texture coords

o Plane039
g Plane039
usemtl 06___Default
s 1
f 249/277/77 250/278/77 251/279/77 252/280/77 
# 1 polygons

#
# object Plane040
#

v  -8.8723 66.4192 77.1225
v  -8.8723 26.7211 77.1225
v  -48.5694 26.7211 77.4072
v  -48.5694 66.4192 77.4072
# 4 vertices

vn -0.0072 -0.0000 -1.0000
# 1 vertex normals

vt 0.0000 1.0000 0.0000
vt 0.0000 0.0000 0.0000
vt 1.0000 0.0000 0.0000
vt 1.0000 1.0000 0.0000
# 4 texture coords

o Plane040
g Plane040
usemtl 06___Default
s 1
f 253/281/78 254/282/78 255/283/78 256/284/78 
# 1 polygons

#
# object Plane041
#

v  34.8622 66.5834 77.1225
v  34.8622 26.8853 77.1225
v  -4.8349 26.8853 77.4072
v  -4.8349 66.5834 77.4072
# 4 vertices

vn -0.0072 -0.0000 -1.0000
# 1 vertex normals

vt 0.0000 1.0000 0.0000
vt 0.0000 0.0000 0.0000
vt 1.0000 0.0000 0.0000
vt 1.0000 1.0000 0.0000
# 4 texture coords

o Plane041
g Plane041
usemtl 06___Default
s 1
f 257/285/79 258/286/79 259/287/79 260/288/79 
# 1 polygons

#
# object Plane042
#

v  79.7326 66.7451 77.1225
v  79.7326 27.0470 77.1225
v  40.0355 27.0470 77.4072
v  40.0355 66.7451 77.4072
# 4 vertices

vn -0.0072 -0.0000 -1.0000
# 1 vertex normals

vt 0.0000 1.0000 0.0000
vt 0.0000 0.0000 0.0000
vt 1.0000 0.0000 0.0000
vt 1.0000 1.0000 0.0000
# 4 texture coords

o Plane042
g Plane042
usemtl 06___Default
s 1
f 261/289/80 262/290/80 263/291/80 264/292/80 
# 1 polygons

#
# object Plane043
#

v  123.9786 66.7450 77.1225
v  123.9786 27.0469 77.1225
v  84.2815 27.0469 77.4072
v  84.2815 66.7450 77.4072
# 4 vertices

vn -0.0072 -0.0000 -1.0000
# 1 vertex normals

vt 0.0000 1.0000 0.0000
vt 0.0000 0.0000 0.0000
vt 1.0000 0.0000 0.0000
vt 1.0000 1.0000 0.0000
# 4 texture coords

o Plane043
g Plane043
usemtl 06___Default
s 1
f 265/293/81 266/294/81 267/295/81 268/296/81 
# 1 polygons

#
# object Plane044
#

v  166.8939 66.4165 77.1225
v  166.8939 26.7184 77.1225
v  127.1968 26.7184 77.4072
v  127.1968 66.4165 77.4072
# 4 vertices

vn -0.0072 -0.0000 -1.0000
# 1 vertex normals

vt 0.0000 1.0000 0.0000
vt 0.0000 0.0000 0.0000
vt 1.0000 0.0000 0.0000
vt 1.0000 1.0000 0.0000
# 4 texture coords

o Plane044
g Plane044
usemtl 06___Default
s 1
f 269/297/82 270/298/82 271/299/82 272/300/82 
# 1 polygons

