# 3ds Max Wavefront OBJ Exporter v0.99 - (c)2007 guruware
# File Created: 14.05.2026 10:49:51

mtllib ra_axe.mtl

#
# object axe
#

v  -10.4070 -0.0000 9.5632
v  -10.4070 -0.0000 -9.5632
v  10.4070 -0.0000 -9.5632
v  10.4070 -0.0000 9.5632
v  -8.7806 15.4477 9.5632
v  -8.7806 18.7962 8.6481
v  -10.4070 18.7962 8.6481
v  -10.4070 15.4477 9.5632
v  10.4070 1.6792 9.5632
v  8.7988 1.6792 9.5632
v  -8.7806 1.6792 9.5632
v  -10.4070 1.6792 9.5632
v  10.4070 1.6792 -9.5632
v  -10.4070 1.6792 -9.5632
v  -8.7806 1.6792 -9.5632
v  8.7988 1.6792 -9.5632
v  10.4070 15.4477 9.5632
v  10.4070 18.7962 8.6481
v  8.7988 18.7962 8.6481
v  8.7988 15.4477 9.5632
v  -8.7806 15.4477 -9.5632
v  -8.7806 18.7142 -8.5353
v  -8.7806 21.5540 -4.9306
v  -8.7806 22.7452 -0.0041
v  -8.7806 21.5540 4.9988
v  -10.4070 15.4477 -9.5632
v  -10.4070 21.5540 4.9988
v  -10.4070 22.7452 -0.0041
v  -10.4070 21.5540 -4.9306
v  -10.4070 18.7142 -8.5353
v  10.4070 15.4477 -9.5632
v  10.4070 18.7142 -8.5353
v  10.4070 21.5540 -4.9306
v  10.4070 22.7452 -0.0041
v  10.4070 21.5540 4.9988
v  8.7988 15.4477 -9.5632
v  8.7988 21.5540 4.9988
v  8.7988 22.7452 -0.0041
v  8.7988 21.5540 -4.9306
v  8.7988 18.7142 -8.5353
# 40 vertices

vn 0.0000 -1.0000 -0.0000
vn 0.0000 0.3409 0.9401
vn 0.0000 0.6445 0.7646
vn 0.0000 0.0000 1.0000
vn 1.0000 -0.0000 -0.0000
vn 0.0000 0.0000 -1.0000
vn -1.0000 -0.0000 -0.0000
vn 0.0000 1.0000 -0.0000
vn 1.0000 0.0000 -0.0000
vn 1.0000 -0.0000 0.0000
vn 1.0000 0.0000 0.0000
vn -1.0000 0.0000 -0.0000
vn -1.0000 -0.0000 0.0000
vn 0.0000 0.9366 -0.3505
vn 0.0000 1.0000 -0.0013
vn -0.0000 0.6558 -0.7550
vn 0.0000 0.6558 -0.7550
vn -0.0000 0.9402 0.3407
vn 0.0000 0.9402 0.3407
vn -0.0000 0.3852 -0.9228
vn 0.0000 0.3852 -0.9228
# 21 vertex normals

vt 1.0000 0.0000 0.0000
vt 1.0000 1.0000 0.0000
vt 0.0000 1.0000 0.0000
vt 0.0000 0.0000 0.0000
vt 0.2490 0.0000 0.0000
vt 0.2490 0.1121 0.0000
vt 0.0000 0.1121 0.0000
vt 0.6826 1.0000 0.0000
vt 0.2490 1.0000 0.0000
vt 0.7510 1.0000 0.0000
vt 0.3174 1.0000 0.0000
vt 0.6826 0.0000 0.0000
vt 1.0000 0.1121 0.0000
vt 0.6826 0.1121 0.0000
vt 0.2490 0.8638 0.0000
vt 0.2490 0.7448 0.0000
vt 0.2490 0.5002 0.0000
vt 0.2490 0.2517 0.0000
vt 0.0000 0.2517 0.0000
vt 0.0000 0.5002 0.0000
vt 0.0000 0.7448 0.0000
vt 0.0000 0.8638 0.0000
vt 1.0000 0.8638 0.0000
vt 1.0000 0.7448 0.0000
vt 1.0000 0.5002 0.0000
vt 1.0000 0.2517 0.0000
vt 0.6826 0.2517 0.0000
vt 0.6826 0.5002 0.0000
vt 0.6826 0.7448 0.0000
vt 0.6826 0.8638 0.0000
# 30 texture coords

o axe
g axe
usemtl 09___Default
s 2
f 1/1/1 2/2/1 3/3/1 
f 3/3/1 4/4/1 1/1/1 
s 4
f 5/5/2 6/6/3 7/7/3 
f 7/7/3 8/4/2 5/5/2 
s 8
f 1/4/4 4/1/4 9/2/4 
f 1/4/4 9/2/4 10/8/4 
f 1/4/4 10/8/4 11/9/4 
f 1/4/4 11/9/4 12/3/4 
s 16
f 4/4/5 3/1/5 13/2/5 
f 13/2/5 9/3/5 4/4/5 
s 32
f 3/4/6 2/1/6 14/2/6 
f 3/4/6 14/2/6 15/10/6 
f 3/4/6 15/10/6 16/11/6 
f 3/4/6 16/11/6 13/3/6 
s 64
f 2/4/7 1/1/7 12/2/7 
f 12/2/7 14/3/7 2/4/7 
s 4
f 10/12/8 16/8/8 15/9/8 
f 15/9/8 11/5/8 10/12/8 
f 17/1/2 18/13/3 19/14/3 
f 19/14/3 20/12/2 17/1/2 
s off
f 12/3/4 11/9/4 5/5/4 
f 5/5/4 8/4/4 12/3/4 
f 11/5/9 15/9/9 21/9/9 
f 11/5/5 21/9/5 22/15/5 
f 11/5/10 22/15/10 23/16/10 
f 11/5/11 23/16/11 24/17/11 
f 11/5/9 24/17/9 25/18/9 
f 11/5/11 25/18/11 6/6/11 
f 11/5/9 6/6/9 5/5/9 
f 15/10/6 14/2/6 26/3/6 
f 26/3/6 21/9/6 15/10/6 
f 14/3/12 12/2/12 8/4/12 
f 14/3/13 8/4/13 7/7/13 
f 14/3/12 7/7/12 27/19/12 
f 14/3/12 27/19/12 28/20/12 
f 14/3/12 28/20/12 29/21/12 
f 14/3/12 29/21/12 30/22/12 
f 14/3/12 30/22/12 26/3/12 
f 9/3/9 13/2/9 31/2/9 
f 9/3/5 31/2/5 32/23/5 
f 9/3/10 32/23/10 33/24/10 
f 9/3/10 33/24/10 34/25/10 
f 9/3/5 34/25/5 35/26/5 
f 9/3/11 35/26/11 18/13/11 
f 9/3/9 18/13/9 17/1/9 
f 13/3/6 16/11/6 36/8/6 
f 36/8/6 31/2/6 13/3/6 
f 16/8/12 10/12/12 20/12/12 
f 16/8/13 20/12/13 19/14/13 
f 16/8/12 19/14/12 37/27/12 
f 16/8/12 37/27/12 38/28/12 
f 16/8/13 38/28/13 39/29/13 
f 16/8/12 39/29/12 40/30/12 
f 16/8/12 40/30/12 36/8/12 
f 10/8/4 9/2/4 17/1/4 
f 17/1/4 20/12/4 10/8/4 
s 4
f 23/16/14 29/21/14 28/20/15 
f 28/20/15 24/17/15 23/16/14 
f 33/24/14 39/29/14 38/28/15 
f 38/28/15 34/25/15 33/24/14 
f 22/15/16 30/22/16 29/21/14 
f 29/21/14 23/16/14 22/15/16 
f 32/23/17 40/30/17 39/29/14 
f 39/29/14 33/24/14 32/23/17 
f 24/17/15 28/20/15 27/19/18 
f 27/19/18 25/18/19 24/17/15 
f 34/25/15 38/28/15 37/27/18 
f 37/27/18 35/26/19 34/25/15 
f 25/18/19 27/19/18 7/7/3 
f 7/7/3 6/6/3 25/18/19 
f 35/26/19 37/27/18 19/14/3 
f 19/14/3 18/13/3 35/26/19 
f 21/9/20 26/3/21 30/22/16 
f 30/22/16 22/15/16 21/9/20 
f 31/2/21 36/8/21 40/30/17 
f 40/30/17 32/23/17 31/2/21 
# 76 faces

