# 3ds Max Wavefront OBJ Exporter v0.99 - (c)2007 guruware
# File Created: 14.05.2026 10:48:41

mtllib ra_cilinder00.mtl

#
# object cilinder0
#

v  12.9014 -0.0000 4.4914
v  12.9014 2.2457 3.8897
v  -12.9014 2.2457 3.8897
v  -12.9014 -0.0000 4.4914
v  12.9014 3.8897 2.2457
v  -12.9014 3.8897 2.2457
v  12.9014 4.4914 0.0000
v  -12.9014 4.4914 -0.0000
v  12.9014 3.8897 -2.2457
v  -12.9014 3.8897 -2.2457
v  12.9014 2.2457 -3.8897
v  -12.9014 2.2457 -3.8897
v  12.9014 -0.0000 -4.4914
v  -12.9014 -0.0000 -4.4914
v  12.9014 -2.2457 -3.8897
v  -12.9014 -2.2457 -3.8897
v  12.9014 -3.8897 -2.2457
v  -12.9014 -3.8897 -2.2457
v  12.9014 -4.4914 -0.0000
v  -12.9014 -4.4914 -0.0000
v  12.9014 -3.8897 2.2457
v  -12.9014 -3.8897 2.2457
v  12.9014 -2.2457 3.8897
v  -12.9014 -2.2457 3.8897
# 24 vertices

vn -0.0000 -0.0000 1.0000
vn -0.0000 0.5000 0.8660
vn -0.0000 0.8660 0.5000
vn -0.0000 1.0000 -0.0000
vn 0.0000 0.8660 -0.5000
vn 0.0000 0.5000 -0.8660
vn 0.0000 0.0000 -1.0000
vn 0.0000 -0.5000 -0.8660
vn 0.0000 -0.8660 -0.5000
vn 0.0000 -1.0000 -0.0000
vn -0.0000 -0.8660 0.5000
vn -0.0000 -0.5000 0.8660
vn 1.0000 0.0000 0.0000
vn -1.0000 -0.0000 -0.0000
# 14 vertex normals

vt 0.7500 0.0000 1.0000
vt 0.8333 0.0000 1.0000
vt 0.8333 1.0000 1.0000
vt 0.7500 1.0000 1.0000
vt 0.9167 0.0000 1.0000
vt 0.9167 1.0000 1.0000
vt 1.0000 0.0000 1.0000
vt 1.0000 1.0000 1.0000
vt 0.0000 0.0000 1.0000
vt 0.0833 0.0000 1.0000
vt 0.0833 1.0000 1.0000
vt 0.0000 1.0000 1.0000
vt 0.1667 0.0000 1.0000
vt 0.1667 1.0000 1.0000
vt 0.2500 0.0000 1.0000
vt 0.2500 1.0000 1.0000
vt 0.3333 0.0000 1.0000
vt 0.3333 1.0000 1.0000
vt 0.4167 0.0000 1.0000
vt 0.4167 1.0000 1.0000
vt 0.5000 0.0000 1.0000
vt 0.5000 1.0000 1.0000
vt 0.5833 0.0000 1.0000
vt 0.5833 1.0000 1.0000
vt 0.6667 0.0000 1.0000
vt 0.6667 1.0000 1.0000
vt 0.9330 0.7500 -0.2500
vt 1.0000 0.5000 -0.2500
vt 0.9330 0.2500 -0.2500
vt 0.7500 0.0670 -0.2500
vt 0.5000 0.0000 -0.2500
vt 0.2500 0.0670 -0.2500
vt 0.0670 0.2500 -0.2500
vt 0.0000 0.5000 -0.2500
vt 0.0670 0.7500 -0.2500
vt 0.2500 0.9330 -0.2500
vt 0.5000 1.0000 -0.2500
vt 0.7500 0.9330 -0.2500
vt 0.2500 0.9330 0.2500
vt 0.0670 0.7500 0.2500
vt 0.0000 0.5000 0.2500
vt 0.0670 0.2500 0.2500
vt 0.2500 0.0670 0.2500
vt 0.5000 0.0000 0.2500
vt 0.7500 0.0670 0.2500
vt 0.9330 0.2500 0.2500
vt 1.0000 0.5000 0.2500
vt 0.9330 0.7500 0.2500
vt 0.7500 0.9330 0.2500
vt 0.5000 1.0000 0.2500
# 50 texture coords

o cilinder0
g cilinder0
usemtl 01___Default
s 8
f 1/1/1 2/2/2 3/3/2 
f 3/3/2 4/4/1 1/1/1 
f 2/2/2 5/5/3 6/6/3 
f 6/6/3 3/3/2 2/2/2 
f 5/5/3 7/7/4 8/8/4 
f 8/8/4 6/6/3 5/5/3 
f 7/9/4 9/10/5 10/11/5 
f 10/11/5 8/12/4 7/9/4 
f 9/10/5 11/13/6 12/14/6 
f 12/14/6 10/11/5 9/10/5 
f 11/13/6 13/15/7 14/16/7 
f 14/16/7 12/14/6 11/13/6 
f 13/15/7 15/17/8 16/18/8 
f 16/18/8 14/16/7 13/15/7 
f 15/17/8 17/19/9 18/20/9 
f 18/20/9 16/18/8 15/17/8 
f 17/19/9 19/21/10 20/22/10 
f 20/22/10 18/20/9 17/19/9 
f 19/21/10 21/23/11 22/24/11 
f 22/24/11 20/22/10 19/21/10 
f 21/23/11 23/25/12 24/26/12 
f 24/26/12 22/24/11 21/23/11 
f 23/25/12 1/1/1 4/4/1 
f 4/4/1 24/26/12 23/25/12 
s 1
f 21/27/13 19/28/13 17/29/13 
f 17/29/13 15/30/13 13/31/13 
f 13/31/13 11/32/13 9/33/13 
f 17/29/13 13/31/13 9/33/13 
f 9/33/13 7/34/13 5/35/13 
f 5/35/13 2/36/13 1/37/13 
f 9/33/13 5/35/13 1/37/13 
f 17/29/13 9/33/13 1/37/13 
f 21/27/13 17/29/13 1/37/13 
f 23/38/13 21/27/13 1/37/13 
f 3/39/14 6/40/14 8/41/14 
f 8/41/14 10/42/14 12/43/14 
f 12/43/14 14/44/14 16/45/14 
f 8/41/14 12/43/14 16/45/14 
f 16/45/14 18/46/14 20/47/14 
f 20/47/14 22/48/14 24/49/14 
f 16/45/14 20/47/14 24/49/14 
f 8/41/14 16/45/14 24/49/14 
f 3/39/14 8/41/14 24/49/14 
f 4/50/14 3/39/14 24/49/14 
# 44 faces

