# 3ds Max Wavefront OBJ Exporter v0.99 - (c)2007 guruware
# File Created: 14.05.2026 10:28:13

mtllib ra_cilinder.mtl

#
# object cilinder
#

v  -5.3102 1.4547 1.1555
v  -5.3102 8.2330 -7.3777
v  -5.6254 6.7231 -8.5771
v  -5.6254 -0.0552 -0.0438
v  -4.3546 2.7891 2.2155
v  -4.3546 9.5674 -6.3178
v  -2.8737 3.7871 3.0082
v  -2.8737 10.5654 -5.5250
v  -1.0462 4.3283 3.4382
v  -1.0462 11.1066 -5.0951
v  0.9074 4.3475 3.4534
v  0.9074 11.1258 -5.0799
v  2.7517 3.8423 3.0521
v  2.7517 10.6206 -5.4812
v  4.2640 2.8736 2.2826
v  4.2640 9.6520 -6.2506
v  5.2620 1.5584 1.2379
v  5.2620 8.3367 -7.2954
v  5.6254 0.0552 0.0438
v  5.6254 6.8335 -8.4894
v  5.3102 -1.4547 -1.1555
v  5.3102 5.3237 -9.6888
v  4.3546 -2.7891 -2.2155
v  4.3546 3.9892 -10.7487
v  2.8737 -3.7871 -3.0082
v  2.8737 2.9912 -11.5415
v  1.0462 -4.3283 -3.4382
v  1.0462 2.4500 -11.9714
v  -0.9074 -4.3475 -3.4534
v  -0.9074 2.4309 -11.9866
v  -2.7517 -3.8423 -3.0521
v  -2.7517 2.9361 -11.5853
v  -4.2640 -2.8736 -2.2826
v  -4.2640 3.9047 -10.8159
v  -5.2620 -1.5584 -1.2379
v  -5.2620 5.2199 -9.7712
v  4.2640 16.4303 -14.7839
v  5.2620 15.1150 -15.8286
v  5.6254 13.6118 -17.0227
v  5.3102 12.1020 -18.2220
v  4.3546 10.7676 -19.2820
v  2.8737 9.7696 -20.0748
v  2.7517 17.3989 -14.0145
v  -4.2640 10.6830 -19.3492
v  -5.2620 11.9983 -18.3044
v  -5.6254 13.5015 -17.1104
v  -5.3102 15.0113 -15.9110
v  -4.3546 16.3457 -14.8510
v  -2.8737 17.3437 -14.0583
v  -2.7516 9.7144 -20.1186
# 50 vertices

vn -0.9439 0.2586 0.2054
vn -0.9999 -0.0098 -0.0078
vn -0.7740 0.4958 0.3938
vn -0.5108 0.6732 0.5347
vn -0.5604 0.6485 0.5152
vn -0.1860 0.7694 0.6111
vn 0.1613 0.7728 0.6138
vn 0.4891 0.6830 0.5425
vn 0.5394 0.6593 0.5237
vn 0.7579 0.5108 0.4057
vn 0.9353 0.2770 0.2200
vn 0.9999 0.0098 0.0078
vn 0.9439 -0.2586 -0.2054
vn 0.7740 -0.4958 -0.3938
vn 0.5108 -0.6732 -0.5347
vn 0.5604 -0.6485 -0.5152
vn 0.1860 -0.7694 -0.6111
vn -0.1613 -0.7728 -0.6138
vn -0.4891 -0.6830 -0.5425
vn -0.5394 -0.6593 -0.5237
vn -0.7579 -0.5108 -0.4057
vn -0.9353 -0.2770 -0.2200
vn -0.0000 -0.6220 0.7830
vn 0.0000 0.6220 -0.7830
vn -0.6523 0.5935 0.4714
vn 0.6331 0.6061 0.4814
vn 0.6523 -0.5935 -0.4714
vn -0.6331 -0.6061 -0.4814
# 28 vertex normals

vt 0.8056 0.0000 1.0000
vt 0.8056 0.5000 1.0000
vt 0.7500 0.5000 1.0000
vt 0.7500 0.0000 1.0000
vt 0.8611 0.0000 1.0000
vt 0.8611 0.5000 1.0000
vt 0.9167 0.0000 1.0000
vt 0.9167 0.5000 1.0000
vt 0.9722 0.0000 1.0000
vt 0.9722 0.5000 1.0000
vt 1.0278 0.0000 1.0000
vt 1.0278 0.5000 1.0000
vt 0.0833 0.0000 1.0000
vt 0.0833 0.5000 1.0000
vt 0.0278 0.5000 1.0000
vt 0.0278 0.0000 1.0000
vt 0.1389 0.0000 1.0000
vt 0.1389 0.5000 1.0000
vt 0.1944 0.0000 1.0000
vt 0.1944 0.5000 1.0000
vt 0.2500 0.0000 1.0000
vt 0.2500 0.5000 1.0000
vt 0.3056 0.0000 1.0000
vt 0.3056 0.5000 1.0000
vt 0.3611 0.0000 1.0000
vt 0.3611 0.5000 1.0000
vt 0.4167 0.0000 1.0000
vt 0.4167 0.5000 1.0000
vt 0.4722 0.0000 1.0000
vt 0.4722 0.5000 1.0000
vt 0.5278 0.0000 1.0000
vt 0.5278 0.5000 1.0000
vt 0.5833 0.0000 1.0000
vt 0.5833 0.5000 1.0000
vt 0.6389 0.0000 1.0000
vt 0.6389 0.5000 1.0000
vt 0.6944 0.0000 1.0000
vt 0.6944 0.5000 1.0000
vt 0.8214 0.8830 -0.2500
vt 0.9330 0.7500 -0.2500
vt 0.9924 0.5868 -0.2500
vt 0.9924 0.4132 -0.2500
vt 0.9330 0.2500 -0.2500
vt 0.8214 0.1170 -0.2500
vt 0.6710 0.0302 -0.2500
vt 0.5000 0.0000 -0.2500
vt 0.3290 0.0302 -0.2500
vt 0.1786 0.1170 -0.2500
vt 0.0670 0.2500 -0.2500
vt 0.0076 0.4132 -0.2500
vt 0.0076 0.5868 -0.2500
vt 0.0670 0.7500 -0.2500
vt 0.1786 0.8830 -0.2500
vt 0.3290 0.9698 -0.2500
vt 0.5000 1.0000 -0.2500
vt 0.6710 0.9698 -0.2500
vt 0.1786 0.1170 0.2500
vt 0.3290 0.0302 0.2500
vt 0.5000 0.0000 0.2500
vt 0.6710 0.0302 0.2500
vt 0.8214 0.1170 0.2500
vt 0.9330 0.2500 0.2500
vt 0.0670 0.2500 0.2500
vt 0.8214 0.8830 0.2500
vt 0.6710 0.9698 0.2500
vt 0.5000 1.0000 0.2500
vt 0.3290 0.9698 0.2500
vt 0.1786 0.8830 0.2500
vt 0.0670 0.7500 0.2500
vt 0.9330 0.7500 0.2500
vt 0.8056 1.0000 1.0000
vt 0.7500 1.0000 1.0000
vt 0.8611 1.0000 1.0000
vt 0.9167 1.0000 1.0000
vt 0.1389 1.0000 1.0000
vt 0.0833 1.0000 1.0000
vt 0.1944 1.0000 1.0000
vt 0.2500 1.0000 1.0000
vt 0.3056 1.0000 1.0000
vt 0.3611 1.0000 1.0000
vt 0.4167 1.0000 1.0000
vt 0.6389 1.0000 1.0000
vt 0.5833 1.0000 1.0000
vt 0.6944 1.0000 1.0000
# 84 texture coords

o cilinder
g cilinder
usemtl 01___Default
s 8
f 1/1/1 2/2/1 3/3/2 
f 3/3/2 4/4/2 1/1/1 
f 5/5/3 6/6/3 2/2/1 
f 2/2/1 1/1/1 5/5/3 
f 7/7/4 8/8/5 6/6/3 
f 6/6/3 5/5/3 7/7/4 
f 9/9/6 10/10/6 8/8/5 
f 8/8/5 7/7/4 9/9/6 
f 11/11/7 12/12/7 10/10/6 
f 10/10/6 9/9/6 11/11/7 
f 13/13/8 14/14/9 12/15/7 
f 12/15/7 11/16/7 13/13/8 
f 15/17/10 16/18/10 14/14/9 
f 14/14/9 13/13/8 15/17/10 
f 17/19/11 18/20/11 16/18/10 
f 16/18/10 15/17/10 17/19/11 
f 19/21/12 20/22/12 18/20/11 
f 18/20/11 17/19/11 19/21/12 
f 21/23/13 22/24/13 20/22/12 
f 20/22/12 19/21/12 21/23/13 
f 23/25/14 24/26/14 22/24/13 
f 22/24/13 21/23/13 23/25/14 
f 25/27/15 26/28/16 24/26/14 
f 24/26/14 23/25/14 25/27/15 
f 27/29/17 28/30/17 26/28/16 
f 26/28/16 25/27/15 27/29/17 
f 29/31/18 30/32/18 28/30/17 
f 28/30/17 27/29/17 29/31/18 
f 31/33/19 32/34/20 30/32/18 
f 30/32/18 29/31/18 31/33/19 
f 33/35/21 34/36/21 32/34/20 
f 32/34/20 31/33/19 33/35/21 
f 35/37/22 36/38/22 34/36/21 
f 34/36/21 33/35/21 35/37/22 
f 4/4/2 3/3/2 36/38/22 
f 36/38/22 35/37/22 4/4/2 
s 1
f 33/39/23 31/40/23 29/41/23 
f 29/41/23 27/42/23 25/43/23 
f 25/43/23 23/44/23 21/45/23 
f 29/41/23 25/43/23 21/45/23 
f 21/45/23 19/46/23 17/47/23 
f 17/47/23 15/48/23 13/49/23 
f 21/45/23 17/47/23 13/49/23 
f 13/49/23 11/50/23 9/51/23 
f 9/51/23 7/52/23 5/53/23 
f 13/49/23 9/51/23 5/53/23 
f 21/45/23 13/49/23 5/53/23 
f 29/41/23 21/45/23 5/53/23 
f 5/53/23 1/54/23 4/55/23 
f 29/41/23 5/53/23 4/55/23 
f 33/39/23 29/41/23 4/55/23 
f 35/56/23 33/39/23 4/55/23 
f 37/57/24 38/58/24 39/59/24 
f 39/59/24 40/60/24 41/61/24 
f 39/59/24 41/61/24 42/62/24 
f 37/57/24 39/59/24 42/62/24 
f 43/63/24 37/57/24 42/62/24 
f 44/64/24 45/65/24 46/66/24 
f 46/66/24 47/67/24 48/68/24 
f 46/66/24 48/68/24 49/69/24 
f 44/64/24 46/66/24 49/69/24 
f 50/70/24 44/64/24 49/69/24 
s 8
f 47/71/1 46/72/2 3/3/2 
f 3/3/2 2/2/1 47/71/1 
f 48/73/3 47/71/1 2/2/1 
f 2/2/1 6/6/3 48/73/3 
f 49/74/25 48/73/3 6/6/3 
f 6/6/3 8/8/5 49/74/25 
f 37/75/10 43/76/26 14/14/9 
f 14/14/9 16/18/10 37/75/10 
f 38/77/11 37/75/10 16/18/10 
f 16/18/10 18/20/11 38/77/11 
f 39/78/12 38/77/11 18/20/11 
f 18/20/11 20/22/12 39/78/12 
f 40/79/13 39/78/12 20/22/12 
f 20/22/12 22/24/13 40/79/13 
f 41/80/14 40/79/13 22/24/13 
f 22/24/13 24/26/14 41/80/14 
f 42/81/27 41/80/14 24/26/14 
f 24/26/14 26/28/16 42/81/27 
f 44/82/21 50/83/28 32/34/20 
f 32/34/20 34/36/21 44/82/21 
f 45/84/22 44/82/21 34/36/21 
f 34/36/21 36/38/22 45/84/22 
f 46/72/2 45/84/22 36/38/22 
f 36/38/22 3/3/2 46/72/2 
s 2
f 26/49/2 14/43/2 43/76/2 
f 43/76/2 42/81/2 26/49/2 
f 50/83/12 49/74/12 8/40/12 
f 8/40/12 32/52/12 50/83/12 
s 1
f 28/50/24 12/42/24 14/43/24 
f 14/43/24 26/49/24 28/50/24 
s 2
f 30/51/24 10/41/24 12/42/24 
f 12/42/24 28/50/24 30/51/24 
s 1
f 32/52/24 8/40/24 10/41/24 
f 10/41/24 30/51/24 32/52/24 
# 96 faces

