# 3ds Max Wavefront OBJ Exporter v0.99 - (c)2007 guruware
# File Created: 14.05.2026 09:32:56

mtllib ra_fixedBase.mtl

#
# object base
#

v  17.7631 0.0000 -0.0000
v  17.0435 0.0000 -5.0044
v  17.0435 13.2947 -5.0044
v  17.7631 13.2947 -0.0000
v  14.9432 0.0000 -9.6034
v  14.9432 13.2947 -9.6034
v  11.6323 0.0000 -13.4244
v  11.6323 13.2947 -13.4244
v  7.3790 0.0000 -16.1579
v  7.3790 13.2947 -16.1579
v  2.5279 0.0000 -17.5823
v  2.5279 13.2947 -17.5823
v  -2.5280 0.0000 -17.5823
v  -2.5280 13.2947 -17.5823
v  -7.3790 0.0000 -16.1579
v  -7.3790 13.2947 -16.1579
v  -11.6323 0.0000 -13.4244
v  -11.6323 13.2947 -13.4244
v  -14.9432 0.0000 -9.6034
v  -14.9432 13.2947 -9.6034
v  -17.0435 0.0000 -5.0044
v  -17.0435 13.2947 -5.0044
v  -17.7631 0.0000 -0.0000
v  -17.7631 13.2947 -0.0000
v  -17.0435 0.0000 5.0044
v  -17.0435 13.2947 5.0044
v  -14.9432 0.0000 9.6034
v  -14.9432 13.2947 9.6034
v  -11.6323 0.0000 13.4244
v  -11.6323 13.2947 13.4244
v  -7.3791 0.0000 16.1579
v  -7.3791 13.2947 16.1579
v  -2.5280 0.0000 17.5823
v  -2.5280 13.2947 17.5823
v  2.5279 0.0000 17.5823
v  2.5279 13.2947 17.5823
v  7.3790 0.0000 16.1579
v  7.3790 13.2947 16.1579
v  11.6323 0.0000 13.4244
v  11.6323 13.2947 13.4244
v  14.9432 0.0000 9.6035
v  14.9432 13.2947 9.6035
v  17.0435 0.0000 5.0045
v  17.0435 13.2947 5.0045
# 44 vertices

vn 1.0000 0.0000 0.0000
vn 0.9595 0.0000 -0.2817
vn 0.8413 0.0000 -0.5406
vn 0.6549 0.0000 -0.7557
vn 0.4154 0.0000 -0.9096
vn 0.1423 0.0000 -0.9898
vn -0.1423 0.0000 -0.9898
vn -0.4154 0.0000 -0.9096
vn -0.6549 0.0000 -0.7557
vn -0.8413 0.0000 -0.5406
vn -0.9595 0.0000 -0.2817
vn -1.0000 0.0000 -0.0000
vn -0.9595 0.0000 0.2817
vn -0.8413 0.0000 0.5406
vn -0.6549 0.0000 0.7557
vn -0.4154 0.0000 0.9096
vn -0.1423 0.0000 0.9898
vn 0.1423 0.0000 0.9898
vn 0.4154 0.0000 0.9096
vn 0.6549 0.0000 0.7558
vn 0.8413 0.0000 0.5406
vn 0.9595 0.0000 0.2817
vn 0.0000 -1.0000 -0.0000
vn 0.0000 1.0000 -0.0000
# 24 vertex normals

vt 0.7500 0.0000 1.0000
vt 0.7955 0.0000 1.0000
vt 0.7955 1.0000 1.0000
vt 0.7500 1.0000 1.0000
vt 0.8409 0.0000 1.0000
vt 0.8409 1.0000 1.0000
vt 0.8864 0.0000 1.0000
vt 0.8864 1.0000 1.0000
vt 0.9318 0.0000 1.0000
vt 0.9318 1.0000 1.0000
vt 0.9773 0.0000 1.0000
vt 0.9773 1.0000 1.0000
vt 1.0227 0.0000 1.0000
vt 1.0227 1.0000 1.0000
vt 0.0227 0.0000 1.0000
vt 0.0682 0.0000 1.0000
vt 0.0682 1.0000 1.0000
vt 0.0227 1.0000 1.0000
vt 0.1136 0.0000 1.0000
vt 0.1136 1.0000 1.0000
vt 0.1591 0.0000 1.0000
vt 0.1591 1.0000 1.0000
vt 0.2045 0.0000 1.0000
vt 0.2045 1.0000 1.0000
vt 0.2500 0.0000 1.0000
vt 0.2500 1.0000 1.0000
vt 0.2955 0.0000 1.0000
vt 0.2955 1.0000 1.0000
vt 0.3409 0.0000 1.0000
vt 0.3409 1.0000 1.0000
vt 0.3864 0.0000 1.0000
vt 0.3864 1.0000 1.0000
vt 0.4318 0.0000 1.0000
vt 0.4318 1.0000 1.0000
vt 0.4773 0.0000 1.0000
vt 0.4773 1.0000 1.0000
vt 0.5227 0.0000 1.0000
vt 0.5227 1.0000 1.0000
vt 0.5682 0.0000 1.0000
vt 0.5682 1.0000 1.0000
vt 0.6136 0.0000 1.0000
vt 0.6136 1.0000 1.0000
vt 0.6591 0.0000 1.0000
vt 0.6591 1.0000 1.0000
vt 0.7045 0.0000 1.0000
vt 0.7045 1.0000 1.0000
vt 0.7703 0.9206 -0.2500
vt 0.8779 0.8274 -0.2500
vt 0.9548 0.7077 -0.2500
vt 0.9949 0.5712 -0.2500
vt 0.9949 0.4288 -0.2500
vt 0.9548 0.2923 -0.2500
vt 0.8779 0.1726 -0.2500
vt 0.7703 0.0794 -0.2500
vt 0.6409 0.0203 -0.2500
vt 0.5000 0.0000 -0.2500
vt 0.3591 0.0203 -0.2500
vt 0.2297 0.0794 -0.2500
vt 0.1221 0.1726 -0.2500
vt 0.0452 0.2923 -0.2500
vt 0.0051 0.4288 -0.2500
vt 0.0051 0.5712 -0.2500
vt 0.0452 0.7077 -0.2500
vt 0.1221 0.8274 -0.2500
vt 0.2297 0.9206 -0.2500
vt 0.3591 0.9797 -0.2500
vt 0.5000 1.0000 -0.2500
vt 0.6409 0.9797 -0.2500
vt 0.3591 0.9797 0.2500
vt 0.2297 0.9206 0.2500
vt 0.1221 0.8274 0.2500
vt 0.0452 0.7077 0.2500
vt 0.0051 0.5712 0.2500
vt 0.0051 0.4288 0.2500
vt 0.0452 0.2923 0.2500
vt 0.1221 0.1726 0.2500
vt 0.2297 0.0794 0.2500
vt 0.3591 0.0203 0.2500
vt 0.5000 0.0000 0.2500
vt 0.6409 0.0203 0.2500
vt 0.7703 0.0794 0.2500
vt 0.8779 0.1726 0.2500
vt 0.9548 0.2923 0.2500
vt 0.9949 0.4288 0.2500
vt 0.9949 0.5712 0.2500
vt 0.9548 0.7077 0.2500
vt 0.8779 0.8274 0.2500
vt 0.7703 0.9206 0.2500
vt 0.6409 0.9797 0.2500
vt 0.5000 1.0000 0.2500
# 90 texture coords

o base
g base
usemtl 01___Default
s 8
f 1/1/1 2/2/2 3/3/2 
f 3/3/2 4/4/1 1/1/1 
f 2/2/2 5/5/3 6/6/3 
f 6/6/3 3/3/2 2/2/2 
f 5/5/3 7/7/4 8/8/4 
f 8/8/4 6/6/3 5/5/3 
f 7/7/4 9/9/5 10/10/5 
f 10/10/5 8/8/4 7/7/4 
f 9/9/5 11/11/6 12/12/6 
f 12/12/6 10/10/5 9/9/5 
f 11/11/6 13/13/7 14/14/7 
f 14/14/7 12/12/6 11/11/6 
f 13/15/7 15/16/8 16/17/8 
f 16/17/8 14/18/7 13/15/7 
f 15/16/8 17/19/9 18/20/9 
f 18/20/9 16/17/8 15/16/8 
f 17/19/9 19/21/10 20/22/10 
f 20/22/10 18/20/9 17/19/9 
f 19/21/10 21/23/11 22/24/11 
f 22/24/11 20/22/10 19/21/10 
f 21/23/11 23/25/12 24/26/12 
f 24/26/12 22/24/11 21/23/11 
f 23/25/12 25/27/13 26/28/13 
f 26/28/13 24/26/12 23/25/12 
f 25/27/13 27/29/14 28/30/14 
f 28/30/14 26/28/13 25/27/13 
f 27/29/14 29/31/15 30/32/15 
f 30/32/15 28/30/14 27/29/14 
f 29/31/15 31/33/16 32/34/16 
f 32/34/16 30/32/15 29/31/15 
f 31/33/16 33/35/17 34/36/17 
f 34/36/17 32/34/16 31/33/16 
f 33/35/17 35/37/18 36/38/18 
f 36/38/18 34/36/17 33/35/17 
f 35/37/18 37/39/19 38/40/19 
f 38/40/19 36/38/18 35/37/18 
f 37/39/19 39/41/20 40/42/20 
f 40/42/20 38/40/19 37/39/19 
f 39/41/20 41/43/21 42/44/21 
f 42/44/21 40/42/20 39/41/20 
f 41/43/21 43/45/22 44/46/22 
f 44/46/22 42/44/21 41/43/21 
f 43/45/22 1/1/1 4/4/1 
f 4/4/1 44/46/22 43/45/22 
s 1
f 41/47/23 39/48/23 37/49/23 
f 37/49/23 35/50/23 33/51/23 
f 33/51/23 31/52/23 29/53/23 
f 37/49/23 33/51/23 29/53/23 
f 29/53/23 27/54/23 25/55/23 
f 25/55/23 23/56/23 21/57/23 
f 29/53/23 25/55/23 21/57/23 
f 37/49/23 29/53/23 21/57/23 
f 21/57/23 19/58/23 17/59/23 
f 17/59/23 15/60/23 13/61/23 
f 21/57/23 17/59/23 13/61/23 
f 13/61/23 11/62/23 9/63/23 
f 9/63/23 7/64/23 5/65/23 
f 13/61/23 9/63/23 5/65/23 
f 21/57/23 13/61/23 5/65/23 
f 37/49/23 21/57/23 5/65/23 
f 5/65/23 2/66/23 1/67/23 
f 37/49/23 5/65/23 1/67/23 
f 41/47/23 37/49/23 1/67/23 
f 43/68/23 41/47/23 1/67/23 
f 3/69/24 6/70/24 8/71/24 
f 8/71/24 10/72/24 12/73/24 
f 12/73/24 14/74/24 16/75/24 
f 8/71/24 12/73/24 16/75/24 
f 16/75/24 18/76/24 20/77/24 
f 20/77/24 22/78/24 24/79/24 
f 16/75/24 20/77/24 24/79/24 
f 8/71/24 16/75/24 24/79/24 
f 24/79/24 26/80/24 28/81/24 
f 28/81/24 30/82/24 32/83/24 
f 24/79/24 28/81/24 32/83/24 
f 32/83/24 34/84/24 36/85/24 
f 36/85/24 38/86/24 40/87/24 
f 32/83/24 36/85/24 40/87/24 
f 24/79/24 32/83/24 40/87/24 
f 8/71/24 24/79/24 40/87/24 
f 40/87/24 42/88/24 44/89/24 
f 8/71/24 40/87/24 44/89/24 
f 3/69/24 8/71/24 44/89/24 
f 4/90/24 3/69/24 44/89/24 
# 84 faces

