# 3ds Max Wavefront OBJ Exporter v0.99 - (c)2007 guruware
# File Created: 14.05.2026 09:41:57

mtllib ra_left.mtl

#
# object Box02
#

v  0.0000 9.2709 -10.5434
v  0.0000 9.5140 -9.0984
v  0.0000 12.3490 -11.2686
v  0.0000 11.6431 -13.7451
v  0.0000 9.5140 -7.3250
v  -0.0000 12.3490 -6.0486
v  -0.0000 6.4635 -3.0880
v  -0.0000 8.0297 -0.1220
v  1.8472 9.2709 -10.5434
v  1.8472 11.6431 -13.7451
v  1.8471 12.3490 -11.2686
v  1.8471 9.5140 -9.0984
v  1.8471 12.3490 -6.0486
v  1.8471 9.5140 -7.3250
v  1.8471 8.0297 -0.1220
v  1.8471 6.4635 -3.0880
v  0.0000 1.6213 -1.4821
v  1.8472 1.6213 -1.4821
v  1.8471 1.6171 1.9150
v  0.0000 1.6171 1.9150
# 20 vertices

vn -1.0000 -0.0000 -0.0000
vn 1.0000 0.0000 0.0000
vn 0.0000 -0.9861 0.1660
vn 0.0000 -0.9965 0.0833
vn 0.0000 -0.9517 -0.3070
vn 0.0000 -0.8115 -0.5843
vn 0.0000 -1.0000 -0.0012
vn 0.0000 0.8081 0.5890
vn -0.0000 0.9508 0.3097
vn -0.0000 0.9904 -0.1384
vn -0.0000 0.9617 -0.2741
vn 0.0000 -0.8035 -0.5953
vn 0.0000 -0.3148 -0.9492
vn 0.0000 0.3028 0.9531
vn -0.0000 0.3028 0.9531
# 15 vertex normals

vt 1.0000 0.0000 0.0000
vt 0.6667 0.0000 0.0000
vt 0.6667 1.0000 0.0000
vt 1.0000 1.0000 0.0000
vt 0.3333 0.0000 0.0000
vt 0.3333 1.0000 0.0000
vt -0.0000 0.0000 0.0000
vt -0.0000 1.0000 0.0000
vt 0.0000 0.0000 0.0000
vt 0.0000 1.0000 0.0000
# 10 texture coords

o Box02
g Box02
usemtl 05___Defa
s 2
f 1/1/1 2/2/1 3/3/1 
f 3/3/1 4/4/1 1/1/1 
f 2/2/1 5/5/1 6/6/1 
f 6/6/1 3/3/1 2/2/1 
f 5/5/1 7/7/1 8/8/1 
f 8/8/1 6/6/1 5/5/1 
s 4
f 9/9/2 10/10/2 11/6/2 
f 11/6/2 12/5/2 9/9/2 
f 12/5/2 11/6/2 13/3/2 
f 13/3/2 14/2/2 12/5/2 
f 14/2/2 13/3/2 15/4/2 
f 15/4/2 16/1/2 14/2/2 
s 8
f 1/9/3 9/10/3 12/6/4 
f 12/6/4 2/5/4 1/9/3 
f 2/5/4 12/6/4 14/3/5 
f 14/3/5 5/2/5 2/5/4 
f 5/2/5 14/3/5 16/4/6 
f 16/4/6 7/1/6 5/2/5 
s 16
f 17/9/7 18/10/7 19/4/7 
f 19/4/7 20/1/7 17/9/7 
s 32
f 8/9/8 15/10/8 13/6/9 
f 13/6/9 6/5/9 8/9/8 
f 6/5/9 13/6/9 11/3/10 
f 11/3/10 3/2/10 6/5/9 
f 3/2/10 11/3/10 10/4/11 
f 10/4/11 4/1/11 3/2/10 
s 64
f 4/9/12 10/10/12 9/4/12 
f 9/4/12 1/1/12 4/9/12 
s off
f 8/8/1 7/7/1 17/9/1 
f 17/9/1 20/1/1 8/8/1 
f 7/1/13 16/4/13 18/10/13 
f 18/10/13 17/9/13 7/1/13 
f 16/1/2 15/4/2 19/4/2 
f 19/4/2 18/10/2 16/1/2 
f 15/10/14 8/9/14 20/1/14 
f 20/1/15 19/4/15 15/10/15 
# 36 faces

