# 3ds Max Wavefront OBJ Exporter v0.99 - (c)2007 guruware
# File Created: 14.05.2026 10:46:19

mtllib ra_longArm.mtl

#
# object longArm
#

v  -0.0000 -3.2551 8.9432
v  -0.0000 1.6526 9.3726
v  -16.5902 1.6526 9.3726
v  -16.5902 -3.2551 8.9432
v  -0.0000 6.1175 7.2906
v  -16.5902 6.1175 7.2906
v  -0.0000 55.0031 -17.4931
v  -2.2551 55.0031 -17.4931
v  -2.2551 50.1515 -16.6376
v  -0.0000 50.1515 -16.6376
v  -0.0000 58.7770 -20.6598
v  -2.2551 58.7770 -20.6598
v  -0.0000 60.4619 -25.2891
v  -2.2551 60.4619 -25.2891
v  0.0000 59.8780 -30.9490
v  -2.2551 59.8780 -30.9490
v  -0.0000 46.0147 -40.8721
v  -2.2551 46.0147 -40.8721
v  -16.5902 24.0688 -43.2262
v  -16.5902 46.0148 -40.8721
v  -14.4519 46.0148 -40.8721
v  0.0000 -8.9432 -3.2551
v  -0.0000 -9.3726 1.6526
v  -16.5902 -9.3726 1.6526
v  -16.5902 -8.9432 -3.2551
v  -0.0000 -7.2906 6.1175
v  -16.5902 -7.2906 6.1175
v  0.0000 24.0688 -43.2262
v  -0.0000 33.0725 -26.6373
v  -16.5902 33.0725 -26.6373
v  -2.2551 33.0725 -26.6373
v  -16.5902 50.1515 -16.6376
v  -16.5902 55.0031 -17.4931
v  -16.5902 58.7770 -20.6598
v  -16.5902 60.4619 -25.2891
v  -16.5902 59.8780 -30.9490
v  -14.4519 50.1515 -16.6376
v  -14.4519 55.0031 -17.4931
v  -14.4519 58.7770 -20.6598
v  -14.4519 60.4619 -25.2891
v  -14.4519 59.8780 -30.9490
v  -14.4519 33.0725 -26.6373
# 42 vertices

vn -0.0000 -0.3420 0.9397
vn -0.0000 0.1736 0.9848
vn -0.0000 0.4226 0.9063
vn 0.0000 0.4226 0.9063
vn -0.0000 -0.1766 0.9843
vn 0.0000 0.8192 0.5736
vn 0.0000 0.9924 0.1228
vn 0.0000 0.8647 -0.5022
vn 0.0000 0.3561 -0.9345
vn 0.0000 0.2731 -0.9620
vn 0.0000 -0.3772 -0.9261
vn 0.0000 -0.9254 -0.3791
vn 0.0000 -0.9848 0.1736
vn -0.0000 -0.7660 0.6428
vn 1.0000 0.0000 0.0000
vn -1.0000 -0.0000 -0.0000
vn -1.0000 0.0000 0.0000
vn -0.0000 -0.5053 0.8630
vn 1.0000 -0.0000 0.0000
vn -1.0000 -0.0000 0.0000
vn -0.0000 0.8192 0.5736
vn -0.0000 0.7399 0.6727
vn -1.0000 0.0000 -0.0000
vn -0.0000 0.7830 0.6221
# 24 vertex normals

vt 0.7500 0.0000 1.0000
vt 0.8333 0.0000 1.0000
vt 0.8333 1.0000 1.0000
vt 0.7500 1.0000 1.0000
vt 0.9167 0.0000 1.0000
vt 0.9167 1.0000 1.0000
vt 0.0833 0.0000 1.0000
vt 0.0833 0.1359 1.0000
vt 0.0000 0.1359 1.0000
vt 0.0000 0.0000 1.0000
vt 0.1667 0.0000 1.0000
vt 0.1667 0.1359 1.0000
vt 0.2500 0.0000 1.0000
vt 0.2500 0.1359 1.0000
vt 0.3333 0.0000 1.0000
vt 0.3333 0.1359 1.0000
vt 0.4167 0.0000 1.0000
vt 0.4167 0.1359 1.0000
vt 0.4383 1.0000 1.0000
vt 0.4167 1.0000 1.0000
vt 0.4167 0.8711 1.0000
vt 0.5000 0.0000 1.0000
vt 0.5833 0.0000 1.0000
vt 0.5833 1.0000 1.0000
vt 0.5000 1.0000 1.0000
vt 0.6667 0.0000 1.0000
vt 0.6667 1.0000 1.0000
vt 0.9330 0.7500 -0.2500
vt 1.0000 0.5000 -0.2500
vt 0.9504 0.3150 -0.2500
vt 0.0126 0.5472 -0.2500
vt 0.0670 0.7500 -0.2500
vt 0.2500 0.9330 -0.2500
vt 0.5000 1.0000 -0.2500
vt 0.7500 0.9330 -0.2500
vt 0.2500 0.9330 0.2500
vt 0.0670 0.7500 0.2500
vt 0.0126 0.5472 0.2500
vt 0.9504 0.3150 0.2500
vt 1.0000 0.5000 0.2500
vt 0.9330 0.7500 0.2500
vt 0.7500 0.9330 0.2500
vt 0.5000 1.0000 0.2500
vt 1.0000 0.0000 1.0000
vt 1.0000 0.1359 1.0000
vt 0.9843 0.1359 1.0000
vt 0.9843 0.0000 1.0000
vt 0.4383 0.0000 1.0000
vt 0.9330 0.2500 -0.2500
vt 0.7500 0.0670 -0.2500
vt 0.5000 0.0000 -0.2500
vt 0.2500 0.0670 -0.2500
vt 0.0670 0.2500 -0.2500
vt 0.0000 0.5000 -0.2500
vt 0.0000 0.5000 0.2500
vt 0.0670 0.2500 0.2500
vt 0.2500 0.0670 0.2500
vt 0.5000 0.0000 0.2500
vt 0.7500 0.0670 0.2500
vt 0.9330 0.2500 0.2500
vt 0.0833 1.0000 1.0000
vt 0.0000 1.0000 1.0000
vt 0.0000 0.8711 1.0000
vt 0.0833 0.8711 1.0000
vt 0.1667 1.0000 1.0000
vt 0.1667 0.8711 1.0000
vt 0.2500 1.0000 1.0000
vt 0.2500 0.8711 1.0000
vt 0.3333 1.0000 1.0000
vt 0.3333 0.8711 1.0000
vt 1.0000 1.0000 1.0000
vt 0.9843 1.0000 1.0000
vt 0.9843 0.8711 1.0000
vt 1.0000 0.8711 1.0000
# 74 texture coords

o longArm
g longArm
usemtl 05___Defa
s 8
f 1/1/1 2/2/2 3/3/2 
f 3/3/2 4/4/1 1/1/1 
f 2/2/2 5/5/3 6/6/3 
f 6/6/3 3/3/2 2/2/2 
f 7/7/3 8/8/4 9/9/5 
f 9/9/5 10/10/5 7/7/3 
f 11/11/6 12/12/6 8/8/4 
f 8/8/4 7/7/3 11/11/6 
f 13/13/7 14/14/7 12/12/6 
f 12/12/6 11/11/6 13/13/7 
f 15/15/8 16/16/8 14/14/7 
f 14/14/7 13/13/7 15/15/8 
f 17/17/9 18/18/10 16/16/8 
f 16/16/8 15/15/8 17/17/9 
f 19/19/11 20/20/9 21/21/10 
f 22/22/12 23/23/13 24/24/13 
f 24/24/13 25/25/12 22/22/12 
f 23/23/13 26/26/14 27/27/14 
f 27/27/14 24/24/13 23/23/13 
f 26/26/14 1/1/1 4/4/1 
f 4/4/1 27/27/14 26/26/14 
s 1
f 23/28/15 22/29/15 28/30/15 
f 28/30/15 29/31/15 5/32/15 
f 23/28/15 28/30/15 5/32/15 
f 5/32/15 2/33/15 1/34/15 
f 23/28/15 5/32/15 1/34/15 
f 26/35/15 23/28/15 1/34/15 
f 3/36/16 6/37/17 30/38/16 
f 30/38/16 19/39/16 25/40/16 
f 3/36/16 30/38/16 25/40/16 
f 25/40/16 24/41/16 27/42/16 
f 3/36/16 25/40/16 27/42/16 
f 4/43/16 3/36/16 27/42/16 
s 8
f 10/44/5 9/45/5 31/46/18 
f 31/46/18 29/47/18 10/44/5 
f 22/22/12 25/25/12 19/19/11 
f 19/19/11 28/48/11 22/22/12 
s 1
f 17/49/15 15/50/19 13/51/19 
f 13/51/19 11/52/15 7/53/19 
f 17/49/15 13/51/19 7/53/19 
f 7/53/19 10/54/19 29/31/15 
f 17/49/15 7/53/19 29/31/15 
f 28/30/15 17/49/15 29/31/15 
f 32/55/17 33/56/17 34/57/17 
f 34/57/17 35/58/17 36/59/17 
f 32/55/17 34/57/17 36/59/17 
f 36/59/17 20/60/20 19/39/16 
f 32/55/17 36/59/17 19/39/16 
f 30/38/16 32/55/17 19/39/16 
s 8
f 33/61/3 32/62/5 37/63/5 
f 37/63/5 38/64/3 33/61/3 
f 34/65/21 33/61/3 38/64/3 
f 38/64/3 39/66/21 34/65/21 
f 35/67/7 34/65/21 39/66/21 
f 39/66/21 40/68/7 35/67/7 
f 36/69/8 35/67/7 40/68/7 
f 40/68/7 41/70/8 36/69/8 
f 20/20/9 36/69/8 41/70/8 
f 41/70/8 21/21/10 20/20/9 
f 32/71/5 30/72/18 42/73/18 
f 42/73/18 37/74/5 32/71/5 
s 1
f 31/55/22 18/37/22 21/53/22 
f 21/53/22 42/54/22 31/55/22 
s 2
f 42/73/19 21/53/19 41/70/19 
f 41/70/19 40/68/15 39/66/15 
f 41/70/19 39/66/15 38/64/19 
f 42/73/19 41/70/19 38/64/19 
f 37/63/19 42/73/19 38/64/19 
s 4
f 12/12/23 14/14/23 16/16/23 
f 16/16/23 18/18/23 31/55/23 
f 16/16/23 31/55/23 9/45/23 
f 12/12/23 16/16/23 9/45/23 
f 8/8/16 12/12/23 9/45/23 
s 2
f 6/6/24 5/5/24 29/44/24 
f 29/44/24 30/71/24 6/6/24 
s 8
f 21/21/10 18/18/10 28/48/11 
f 28/48/11 19/19/11 21/21/10 
f 18/18/10 17/17/9 28/48/11 
# 78 faces

