# 3ds Max Wavefront OBJ Exporter v0.99 - (c)2007 guruware
# File Created: 14.05.2026 10:42:20

mtllib ra_mediumArm.mtl

#
# object mediumArm
#

v  0.0000 -5.1077 -6.0871
v  0.0000 -1.3798 -7.8254
v  11.6777 -1.3798 -7.8254
v  11.6777 -5.1077 -6.0871
v  0.0000 2.7177 -7.4669
v  11.6777 2.7177 -7.4669
v  0.0000 6.0871 -5.1077
v  11.6777 6.0871 -5.1077
v  0.0000 7.8254 -1.3798
v  11.6777 7.8254 -1.3798
v  -0.0000 7.4669 2.7177
v  11.6777 7.4669 2.7177
v  -0.0000 -21.0012 38.0350
v  11.6777 -21.0012 38.0350
v  -0.0000 -26.0384 44.2840
v  0.0000 -32.7361 28.1883
v  0.0000 -38.6130 35.4791
v  -0.0000 -38.9715 39.5767
v  -0.0000 -37.2332 43.3046
v  -0.0000 -33.8638 45.6638
v  -0.0000 -29.7662 46.0223
v  11.6777 -37.2332 43.3046
v  11.6777 -38.9715 39.5767
v  11.6777 -38.6130 35.4791
v  11.6777 -32.7361 28.1883
v  11.6777 -26.0384 44.2840
v  11.6777 -29.7662 46.0223
v  11.6777 -33.8638 45.6638
v  1.0828 -37.2332 43.3046
v  1.0828 -33.8638 45.6638
v  1.0828 -38.9715 39.5767
v  1.0828 -38.6130 35.4791
v  1.0828 -32.7361 28.1883
v  1.0828 -29.7662 46.0223
v  1.0828 -26.0384 44.2840
v  1.0828 -21.0012 38.0350
v  10.5423 -33.8638 45.6638
v  10.5423 -37.2332 43.3046
v  10.5423 -38.9715 39.5767
v  10.5423 -38.6130 35.4791
v  10.5423 -21.0012 38.0350
v  10.5423 -26.0384 44.2840
v  10.5423 -29.7662 46.0223
v  10.5423 -32.7361 28.1883
# 44 vertices

vn 0.0000 -0.6165 -0.7873
vn 0.0000 -0.1736 -0.9848
vn 0.0000 0.3420 -0.9397
vn 0.0000 0.7660 -0.6428
vn -0.0000 0.9848 -0.1736
vn -0.0000 0.9276 0.3736
vn -0.0000 0.7786 0.6276
vn -1.0000 -0.0000 -0.0000
vn 1.0000 0.0000 0.0000
vn 1.0000 -0.0000 -0.0000
vn 0.0000 -0.7786 -0.6276
vn -0.0000 -0.5736 0.8192
vn -0.0000 -0.9063 0.4226
vn 0.0000 -0.9962 -0.0872
vn -0.0000 0.4226 0.9063
vn -0.0000 -0.0872 0.9962
vn 0.0000 0.7786 0.6276
vn 0.0000 0.4226 0.9063
vn 0.0000 -0.0872 0.9962
vn 0.0000 -0.6428 0.7660
vn -0.0000 -0.6428 0.7660
vn -1.0000 0.0000 -0.0000
vn -1.0000 -0.0000 0.0000
# 23 vertex normals

vt 0.4167 0.0000 1.0000
vt 0.3333 0.0000 1.0000
vt 0.3333 1.0000 1.0000
vt 0.4167 1.0000 1.0000
vt 0.2500 0.0000 1.0000
vt 0.2500 1.0000 1.0000
vt 0.1667 0.0000 1.0000
vt 0.1667 1.0000 1.0000
vt 0.0833 0.0000 1.0000
vt 0.0833 1.0000 1.0000
vt 0.0000 0.0000 1.0000
vt 0.0000 1.0000 1.0000
vt -0.0708 0.0000 1.0000
vt -0.0708 1.0000 1.0000
vt 0.0569 0.7124 -0.2500
vt 0.0000 0.5000 -0.2500
vt 0.0670 0.2500 -0.2500
vt 0.0670 0.7500 -0.2500
vt 0.2500 0.0670 -0.2500
vt 0.5000 0.0000 -0.2500
vt 0.7500 0.0670 -0.2500
vt 0.9330 0.2500 -0.2500
vt 0.9883 0.4561 -0.2500
vt 1.0000 0.5000 -0.2500
vt 0.9330 0.7500 -0.2500
vt 0.7500 0.9330 -0.2500
vt 0.5000 1.0000 -0.2500
vt 0.2500 0.9330 -0.2500
vt 0.7500 0.9330 0.2500
vt 0.9330 0.7500 0.2500
vt 1.0000 0.5000 0.2500
vt 0.9883 0.4561 0.2500
vt 0.9330 0.2500 0.2500
vt 0.7500 0.0670 0.2500
vt 0.5000 0.0000 0.2500
vt 0.2500 0.0670 0.2500
vt 0.0670 0.2500 0.2500
vt 0.0000 0.5000 0.2500
vt 0.0569 0.7124 0.2500
vt 0.0670 0.7500 0.2500
vt 0.2500 0.9330 0.2500
vt 0.5000 1.0000 0.2500
vt 0.4854 1.0000 1.0000
vt 0.4854 0.0000 1.0000
vt 1.2335 0.1805 0.0763
vt 1.2113 -0.0492 0.0921
vt 0.9275 -0.1714 0.2930
vt 0.4582 -0.1534 0.6254
vt 0.1584 -0.0321 0.2500
vt 0.2395 -0.2232 0.2500
vt 0.2885 -0.2722 0.2500
vt 0.2924 -0.1660 0.2500
# 52 texture coords

o mediumArm
g mediumArm
usemtl 05___Defa
s 8
f 1/1/1 2/2/2 3/3/2 
f 3/3/2 4/4/1 1/1/1 
f 2/2/2 5/5/3 6/6/3 
f 6/6/3 3/3/2 2/2/2 
f 5/5/3 7/7/4 8/8/4 
f 8/8/4 6/6/3 5/5/3 
f 7/7/4 9/9/5 10/10/5 
f 10/10/5 8/8/4 7/7/4 
f 9/9/5 11/11/6 12/12/6 
f 12/12/6 10/10/5 9/9/5 
f 13/13/7 14/14/7 12/12/6 
f 12/12/6 11/11/6 13/13/7 
s 1
f 13/15/8 11/16/8 9/17/8 
f 15/18/8 13/15/8 9/17/8 
f 9/17/8 7/19/8 5/20/8 
f 5/20/8 2/21/8 1/22/8 
f 9/17/8 5/20/8 1/22/8 
f 16/23/8 17/24/8 18/25/8 
f 1/22/8 16/23/8 18/25/8 
f 18/25/8 19/26/8 20/27/8 
f 1/22/8 18/25/8 20/27/8 
f 9/17/8 1/22/8 20/27/8 
f 15/18/8 9/17/8 20/27/8 
f 21/28/8 15/18/8 20/27/8 
f 22/29/9 23/30/9 24/31/9 
f 25/32/10 4/33/10 3/34/9 
f 24/31/9 25/32/10 3/34/9 
f 3/34/9 6/35/9 8/36/9 
f 24/31/9 3/34/9 8/36/9 
f 8/36/9 10/37/9 12/38/9 
f 14/39/10 26/40/9 27/41/9 
f 12/38/9 14/39/10 27/41/9 
f 8/36/9 12/38/9 27/41/9 
f 24/31/9 8/36/9 27/41/9 
f 22/29/9 24/31/9 27/41/9 
f 28/42/9 22/29/9 27/41/9 
s 8
f 1/1/1 4/4/1 25/43/11 
f 25/43/11 16/44/11 1/1/1 
s off
f 20/27/12 19/26/12 29/26/12 
f 29/26/12 30/27/12 20/27/12 
f 19/26/13 18/25/13 31/25/13 
f 31/25/13 29/26/13 19/26/13 
f 18/25/14 17/24/14 32/24/14 
f 32/24/14 31/25/14 18/25/14 
f 17/24/11 16/23/11 33/23/11 
f 33/23/11 32/24/11 17/24/11 
f 15/18/15 21/28/15 34/28/15 
f 34/28/15 35/18/15 15/18/15 
f 21/28/16 20/27/16 30/27/16 
f 30/27/16 34/28/16 21/28/16 
f 13/15/7 15/18/7 35/18/7 
f 35/18/7 36/15/7 13/15/7 
f 22/29/12 28/42/12 37/42/12 
f 37/42/12 38/29/12 22/29/12 
f 23/30/13 22/29/13 38/29/13 
f 38/29/13 39/30/13 23/30/13 
f 24/31/14 23/30/14 39/30/14 
f 39/30/14 40/31/14 24/31/14 
f 26/40/17 14/39/17 41/39/17 
f 41/39/17 42/40/17 26/40/17 
f 27/41/18 26/40/18 42/40/18 
f 42/40/18 43/41/18 27/41/18 
f 28/42/19 27/41/19 43/41/19 
f 43/41/16 37/42/16 28/42/16 
f 25/32/11 24/31/11 40/31/11 
f 40/31/11 44/32/11 25/32/11 
s 2
f 13/30/20 16/42/21 25/29/20 
f 25/29/20 14/31/20 13/30/20 
s 5
f 40/32/8 39/45/8 38/46/22 
f 38/46/22 37/47/23 43/48/23 
f 40/32/8 38/46/22 43/48/23 
f 40/32/8 43/48/23 42/13/8 
f 44/14/8 40/32/8 42/13/8 
f 44/14/8 42/13/8 41/39/8 
s 17
f 35/37/9 34/49/9 30/50/9 
f 30/50/9 29/51/9 31/52/9 
f 35/37/9 30/50/9 31/52/9 
f 35/37/9 31/52/9 32/36/9 
f 35/37/9 32/36/9 33/40/9 
f 36/41/9 35/37/9 33/40/9 
# 80 faces

