# 3ds Max Wavefront OBJ Exporter v0.99 - (c)2007 guruware
# File Created: 14.05.2026 09:44:32

mtllib ra_right.mtl

#
# object Box04
#

v  0.0000 6.9282 -12.3190
v  0.0000 5.4873 -12.0533
v  0.0000 6.5569 -15.4595
v  0.0000 9.1256 -15.6432
v  0.0000 3.8208 -11.4467
v  0.0000 1.6517 -13.6742
v  0.0000 0.8826 -7.1310
v  -0.0000 -2.4401 -7.5884
v  1.8472 6.9282 -12.3190
v  1.8472 9.1256 -15.6432
v  1.8472 6.5569 -15.4595
v  1.8472 5.4873 -12.0533
v  1.8472 1.6517 -13.6742
v  1.8472 3.8208 -11.4467
v  1.8471 -2.4401 -7.5884
v  1.8471 0.8826 -7.1310
v  -0.0000 1.0298 -2.0316
v  1.8471 1.0298 -2.0316
v  1.8471 -2.1611 -0.8657
v  -0.0000 -2.1611 -0.8657
# 20 vertices

vn -1.0000 0.0000 -0.0000
vn 1.0000 -0.0000 0.0000
vn -0.0000 0.1813 0.9834
vn 0.0000 0.2626 0.9649
vn 0.0000 0.6140 0.7893
vn 0.0000 0.8266 0.5628
vn -0.0000 0.3432 0.9393
vn 0.0000 -0.8299 -0.5580
vn -0.0000 -0.6162 -0.7876
vn 0.0000 -0.2087 -0.9780
vn 0.0000 -0.0713 -0.9975
vn 0.0000 0.8342 0.5514
vn -1.0000 0.0000 0.0000
vn 0.0000 0.9996 -0.0288
vn 1.0000 -0.0000 -0.0000
vn 0.0000 -0.9991 0.0415
vn -0.0000 -0.9991 0.0415
# 17 vertex normals

vt 1.0000 0.0000 0.0000
vt 0.6667 0.0000 0.0000
vt 0.6667 1.0000 0.0000
vt 1.0000 1.0000 0.0000
vt 0.3333 0.0000 0.0000
vt 0.3333 1.0000 0.0000
vt -0.0000 0.0000 0.0000
vt -0.0000 1.0000 0.0000
vt 0.0000 0.0000 0.0000
vt 0.0000 1.0000 0.0000
# 10 texture coords

o Box04
g Box04
usemtl 05___Defa
s 2
f 3/3/1 2/2/1 1/1/1 
f 1/1/1 4/4/1 3/3/1 
f 6/6/1 5/5/1 2/2/1 
f 2/2/1 3/3/1 6/6/1 
f 8/8/1 7/7/1 5/5/1 
f 5/5/1 6/6/1 8/8/1 
s 4
f 11/6/2 10/10/2 9/9/2 
f 9/9/2 12/5/2 11/6/2 
f 13/3/2 11/6/2 12/5/2 
f 12/5/2 14/2/2 13/3/2 
f 15/4/2 13/3/2 14/2/2 
f 14/2/2 16/1/2 15/4/2 
s 8
f 12/6/4 9/10/3 1/9/3 
f 1/9/3 2/5/4 12/6/4 
f 14/3/5 12/6/4 2/5/4 
f 2/5/4 5/2/5 14/3/5 
f 16/4/6 14/3/5 5/2/5 
f 5/2/5 7/1/6 16/4/6 
s 16
f 19/4/7 18/10/7 17/9/7 
f 17/9/7 20/1/7 19/4/7 
s 32
f 13/6/9 15/10/8 8/9/8 
f 8/9/8 6/5/9 13/6/9 
f 11/3/10 13/6/9 6/5/9 
f 6/5/9 3/2/10 11/3/10 
f 10/4/11 11/3/10 3/2/10 
f 3/2/10 4/1/11 10/4/11 
s 64
f 9/4/12 10/10/12 4/9/12 
f 4/9/12 1/1/12 9/4/12 
s off
f 17/9/13 7/7/13 8/8/13 
f 8/8/13 20/1/13 17/9/13 
f 18/10/14 16/4/14 7/1/14 
f 7/1/14 17/9/14 18/10/14 
f 19/4/15 15/4/15 16/1/15 
f 16/1/15 18/10/15 19/4/15 
f 20/1/16 8/9/16 15/10/16 
f 15/10/17 19/4/17 20/1/17 
# 36 faces

