# 3ds Max Wavefront OBJ Exporter v0.99 - (c)2007 guruware
# File Created: 14.05.2026 10:35:49

mtllib ra_shortArm.mtl

#
# object shortArm
#

v  -0.0000 -2.4284 -6.6551
v  -1.1895 -2.4284 -6.6551
v  -1.1895 1.2762 -7.3083
v  -0.0000 1.2762 -7.3083
v  -0.0000 -5.3101 -4.2370
v  -1.1895 -5.3101 -4.2370
v  -0.0000 -6.5968 -0.7021
v  -1.1895 -6.5968 -0.7021
v  -0.0000 -6.1509 3.6197
v  -1.1895 -6.1509 3.6197
v  -0.0000 5.4026 11.5176
v  -1.1895 5.4026 11.5176
v  -0.0000 20.2702 14.7288
v  -8.7509 20.2702 14.7288
v  -8.7509 5.4026 11.5176
v  -7.6230 5.4026 11.5176
v  -1.1895 14.3176 0.3273
v  -0.0000 14.3176 0.3273
v  -0.0000 28.9065 4.0679
v  -8.7509 28.8906 4.0876
v  -8.7509 1.2762 -7.3083
v  -8.7509 -2.4284 -6.6551
v  -8.7509 -5.3101 -4.2370
v  -8.7509 -6.5968 -0.7021
v  -8.7509 -6.1509 3.6197
v  -8.7509 14.3176 0.3273
v  -7.6230 1.2762 -7.3083
v  -7.6230 -2.4284 -6.6551
v  -7.6230 -5.3101 -4.2370
v  -7.6230 -6.5968 -0.7021
v  -7.6230 -6.1509 3.6197
v  -7.6230 14.3176 0.3273
v  -8.7509 18.3575 -4.7576
v  -0.0000 18.3733 -4.7775
v  -1.5378 23.6135 -0.3711
v  -1.9234 24.7153 0.5556
v  -1.9234 22.5103 -1.2961
v  -2.9771 21.7013 -1.9715
v  -2.9771 25.5205 1.2357
v  -4.4164 25.8133 1.4870
v  -5.8557 25.5153 1.2422
v  -6.9094 24.7063 0.5668
v  -7.2951 23.6031 -0.3581
v  -6.9094 22.5013 -1.2848
v  -5.8557 21.6961 -1.9650
v  -4.4164 21.4033 -2.2163
v  -1.9234 30.7905 -11.6023
v  -1.5378 31.9125 -10.7008
v  -2.9771 29.9691 -12.2622
v  -4.4164 29.6684 -12.5038
v  -5.8557 29.9691 -12.2622
v  -6.9094 30.7905 -11.6023
v  -7.2951 31.9125 -10.7008
v  -6.9094 33.0346 -9.7993
v  -5.8557 33.8560 -9.1394
v  -4.4164 34.1566 -8.8979
v  -2.9771 33.8560 -9.1394
v  -1.9234 33.0346 -9.7993
v  -1.9234 22.5275 3.2787
v  -1.5378 21.4055 2.3772
v  -2.9771 23.3489 3.9386
v  -4.4164 23.6496 4.1802
v  -5.8557 23.3489 3.9386
v  -6.9094 22.5275 3.2787
v  -7.2951 21.4055 2.3772
v  -6.9094 20.2834 1.4758
v  -5.8557 19.4620 0.8158
v  -4.4164 19.1613 0.5743
v  -2.9771 19.4620 0.8158
v  -1.9234 20.2834 1.4758
# 70 vertices

vn 0.0000 -0.4226 -0.9063
vn 0.0000 0.1766 -0.9843
vn 0.0000 -0.8192 -0.5736
vn 0.0000 -0.9924 -0.1228
vn 0.0000 -0.8593 0.5115
vn 0.0000 -0.3951 0.9186
vn 0.0000 -0.3344 0.9424
vn 0.0000 0.3322 0.9432
vn -0.0000 -0.3344 0.9424
vn 0.0000 0.5053 -0.8630
vn 0.0000 0.7770 0.6295
vn 1.0000 0.0000 0.0000
vn 1.0000 0.0000 -0.0000
vn -1.0000 -0.0000 -0.0000
vn -1.0000 0.0000 -0.0000
vn -0.0000 -0.4226 -0.9063
vn -0.0000 -0.8192 -0.5736
vn 0.0000 -0.7821 -0.6231
vn -0.0000 -0.7821 -0.6231
vn 1.0000 -0.0000 0.0000
vn -0.0000 -0.7830 -0.6221
vn -0.0018 0.6431 -0.7658
vn 0.7646 -0.5024 -0.4036
vn 0.3603 -0.7272 -0.5843
vn 0.0000 -0.7796 -0.6263
vn -0.3603 -0.7272 -0.5843
vn -0.7646 -0.5024 -0.4036
vn -0.7646 0.5024 0.4036
vn -0.3603 0.7272 0.5843
vn -0.0000 0.7796 0.6263
vn 0.3603 0.7272 0.5843
vn 0.7646 0.5024 0.4036
vn -0.0000 -0.6263 0.7796
vn 0.0000 -0.6263 0.7796
vn 0.0000 0.6263 -0.7796
vn -0.0000 0.6263 -0.7796
# 36 vertex normals

vt 0.0833 0.0000 1.0000
vt 0.0833 0.1359 1.0000
vt 0.0000 0.1359 1.0000
vt 0.0000 0.0000 1.0000
vt 0.1667 0.0000 1.0000
vt 0.1667 0.1359 1.0000
vt 0.2500 0.0000 1.0000
vt 0.2500 0.1359 1.0000
vt 0.3333 0.0000 1.0000
vt 0.3333 0.1359 1.0000
vt 0.4167 0.0000 1.0000
vt 0.4167 0.1359 1.0000
vt 0.4383 0.0000 1.0000
vt 0.4383 1.0000 1.0000
vt 0.4167 1.0000 1.0000
vt 0.4167 0.8711 1.0000
vt 1.0000 0.0000 1.0000
vt 1.0000 0.1359 1.0000
vt 0.9843 0.1359 1.0000
vt 0.9843 0.0000 1.0000
vt 0.4587 0.0000 1.0000
vt 0.4587 1.0000 1.0000
vt 0.9330 0.2500 -0.2500
vt 0.7500 0.0670 -0.2500
vt 0.5000 0.0000 -0.2500
vt 0.2500 0.0670 -0.2500
vt 0.0670 0.2500 -0.2500
vt 0.0000 0.5000 -0.2500
vt 0.0126 0.5472 -0.2500
vt 0.9504 0.3150 -0.2500
vt 0.0000 0.5000 0.2500
vt 0.0670 0.2500 0.2500
vt 0.2500 0.0670 0.2500
vt 0.5000 0.0000 0.2500
vt 0.7500 0.0670 0.2500
vt 0.9330 0.2500 0.2500
vt 0.9504 0.3150 0.2500
vt 0.0126 0.5472 0.2500
vt 0.0833 1.0000 1.0000
vt 0.0000 1.0000 1.0000
vt 0.0000 0.8711 1.0000
vt 0.0833 0.8711 1.0000
vt 0.1667 1.0000 1.0000
vt 0.1667 0.8711 1.0000
vt 0.2500 1.0000 1.0000
vt 0.2500 0.8711 1.0000
vt 0.3333 1.0000 1.0000
vt 0.3333 0.8711 1.0000
vt 1.0000 1.0000 1.0000
vt 0.9843 1.0000 1.0000
vt 0.9843 0.8711 1.0000
vt 1.0000 0.8711 1.0000
vt 0.0670 0.7500 0.2500
vt 0.9836 1.0000 1.0000
vt 0.9836 0.0000 1.0000
vt 0.9668 0.3762 -0.2500
vt 0.0234 0.5872 -0.2500
vt 0.9668 0.3760 0.2500
vt 0.0233 0.5870 0.2500
vt 0.9546 0.4184 0.2500
vt 0.9556 0.4671 0.2500
vt 1.0000 0.5000 0.2500
vt 0.9446 0.4032 0.2500
vt 0.9125 0.4849 0.2500
vt 0.7500 0.9330 0.2500
vt 0.9470 0.5373 0.2500
vt 0.9312 0.6103 0.2500
vt 0.9243 0.6220 0.2500
vt 0.9330 0.7500 0.2500
vt 0.8901 0.7113 0.2500
vt 0.8647 0.7538 0.2500
vt 0.8518 0.7496 0.2500
vt 0.8549 0.6999 0.2500
vt 0.8731 0.6179 0.2500
vt 0.8333 1.0000 1.0000
vt 0.7500 1.0000 1.0000
vt 0.7500 0.2102 1.0000
vt 0.8333 0.2119 1.0000
vt 0.9167 1.0000 1.0000
vt 0.9167 0.2131 1.0000
vt 1.0000 0.2134 1.0000
vt 0.0000 0.2134 1.0000
vt 0.0833 0.2126 1.0000
vt 0.1667 0.2111 1.0000
vt 0.2500 0.2092 1.0000
vt 0.3333 0.2074 1.0000
vt 0.4167 0.2062 1.0000
vt 0.5000 1.0000 1.0000
vt 0.5000 0.2059 1.0000
vt 0.5833 1.0000 1.0000
vt 0.5833 0.2067 1.0000
vt 0.6667 1.0000 1.0000
vt 0.6667 0.2082 1.0000
vt 0.6667 0.0000 1.0000
vt 0.7500 0.0000 1.0000
vt 0.9330 0.7500 -0.2500
vt 1.0000 0.5000 -0.2500
vt 0.0670 0.7500 -0.2500
vt 0.2500 0.9330 -0.2500
vt 0.5000 1.0000 -0.2500
vt 0.7500 0.9330 -0.2500
vt 0.2500 0.9330 0.2500
vt 0.5000 1.0000 0.2500
vt 0.9167 0.0000 1.0000
vt 0.8333 0.0000 1.0000
vt 0.5000 0.0000 1.0000
vt 0.5833 0.0000 1.0000
# 107 texture coords

o shortArm
g shortArm
usemtl 05___Defa
s 8
f 1/1/1 2/2/1 3/3/2 
f 3/3/2 4/4/2 1/1/1 
f 5/5/3 6/6/3 2/2/1 
f 2/2/1 1/1/1 5/5/3 
f 7/7/4 8/8/4 6/6/3 
f 6/6/3 5/5/3 7/7/4 
f 9/9/5 10/10/5 8/8/4 
f 8/8/4 7/7/4 9/9/5 
f 11/11/6 12/12/7 10/10/5 
f 10/10/5 9/9/5 11/11/6 
f 13/13/8 14/14/8 15/15/6 
f 13/13/8 15/15/6 16/16/9 
f 13/13/8 16/16/9 12/12/7 
f 11/11/6 13/13/8 12/12/7 
f 4/17/2 3/18/2 17/19/10 
f 17/19/10 18/20/10 4/17/2 
f 19/21/11 20/22/11 14/14/8 
f 14/14/8 13/13/8 19/21/11 
s 1
f 11/23/12 9/24/12 7/25/12 
f 7/25/12 5/26/12 1/27/12 
f 11/23/12 7/25/12 1/27/12 
f 1/27/12 4/28/13 18/29/12 
f 11/23/12 1/27/12 18/29/12 
f 13/30/12 11/23/12 18/29/12 
f 21/31/14 22/32/14 23/33/14 
f 23/33/14 24/34/14 25/35/14 
f 21/31/14 23/33/14 25/35/14 
f 25/35/14 15/36/15 14/37/14 
f 21/31/14 25/35/14 14/37/14 
f 26/38/14 21/31/14 14/37/14 
s 8
f 22/39/1 21/40/2 27/41/2 
f 27/41/2 28/42/16 22/39/1 
f 23/43/17 22/39/1 28/42/16 
f 28/42/16 29/44/17 23/43/17 
f 24/45/4 23/43/17 29/44/17 
f 29/44/17 30/46/4 24/45/4 
f 25/47/5 24/45/4 30/46/4 
f 30/46/4 31/48/5 25/47/5 
f 15/15/6 25/47/5 31/48/5 
f 31/48/5 16/16/9 15/15/6 
f 21/49/2 26/50/10 32/51/10 
f 32/51/10 27/52/2 21/49/2 
s 1
f 17/31/18 12/53/18 16/27/18 
f 16/27/18 32/28/19 17/31/18 
s 2
f 32/51/12 16/27/12 31/48/12 
f 31/48/12 30/46/20 29/44/20 
f 31/48/12 29/44/20 28/42/12 
f 32/51/12 31/48/12 28/42/12 
f 27/41/13 32/51/12 28/42/12 
s 4
f 6/6/14 8/8/14 10/10/14 
f 10/10/14 12/12/14 17/31/14 
f 10/10/14 17/31/14 3/18/14 
f 6/6/14 10/10/14 3/18/14 
f 2/2/14 6/6/14 3/18/14 
s 2
f 33/54/21 34/55/21 18/17/21 
f 18/17/21 26/49/21 33/54/21 
s 1
f 19/56/12 13/30/12 18/29/12 
f 18/29/12 34/57/12 19/56/12 
f 26/38/14 14/37/14 20/58/14 
f 20/58/14 33/59/14 26/38/14 
s 4
f 35/60/22 36/61/22 19/62/22 
f 35/60/22 19/62/22 34/36/22 
f 37/63/22 35/60/22 34/36/22 
f 38/64/22 37/63/22 34/36/22 
f 38/64/22 34/36/22 33/65/22 
f 19/62/22 36/61/22 39/66/22 
f 19/62/22 39/66/22 40/67/22 
f 19/62/22 40/67/22 41/68/22 
f 20/69/22 19/62/22 41/68/22 
f 20/69/22 41/68/22 42/70/22 
f 20/69/22 42/70/22 43/71/22 
f 33/65/22 20/69/22 43/71/22 
f 33/65/22 43/71/22 44/72/22 
f 33/65/22 44/72/22 45/73/22 
f 33/65/22 45/73/22 46/74/22 
f 38/64/22 33/65/22 46/74/22 
s 8
f 47/75/23 48/76/12 35/77/12 
f 35/77/12 37/78/23 47/75/23 
f 49/79/24 47/75/23 37/78/23 
f 37/78/23 38/80/24 49/79/24 
f 50/49/25 49/79/24 38/80/24 
f 38/80/24 46/81/25 50/49/25 
f 51/39/26 50/40/25 46/82/25 
f 46/82/25 45/83/26 51/39/26 
f 52/43/27 51/39/26 45/83/26 
f 45/83/26 44/84/27 52/43/27 
f 53/45/14 52/43/27 44/84/27 
f 44/84/27 43/85/14 53/45/14 
f 54/47/28 53/45/14 43/85/14 
f 43/85/14 42/86/28 54/47/28 
f 55/15/29 54/47/28 42/86/28 
f 42/86/28 41/87/29 55/15/29 
f 56/88/30 55/15/29 41/87/29 
f 41/87/29 40/89/30 56/88/30 
f 57/90/31 56/88/30 40/89/30 
f 40/89/30 39/91/31 57/90/31 
f 58/92/32 57/90/31 39/91/31 
f 39/91/31 36/93/32 58/92/32 
f 35/77/12 36/93/32 59/94/32 
f 59/94/32 60/95/12 35/77/12 
s 1
f 61/96/33 62/97/34 63/23/34 
f 63/23/34 64/24/34 65/25/34 
f 65/25/34 66/26/34 67/27/34 
f 63/23/34 65/25/34 67/27/34 
f 67/27/34 68/28/33 69/98/34 
f 69/98/34 70/99/34 60/100/34 
f 67/27/34 69/98/34 60/100/34 
f 63/23/34 67/27/34 60/100/34 
f 61/96/33 63/23/34 60/100/34 
f 59/101/33 61/96/33 60/100/34 
f 47/102/35 49/53/35 50/31/36 
f 50/31/36 51/32/36 52/33/35 
f 52/33/35 53/34/35 54/35/35 
f 50/31/36 52/33/35 54/35/35 
f 54/35/35 55/36/35 56/62/36 
f 56/62/36 57/69/36 58/65/35 
f 54/35/35 56/62/36 58/65/35 
f 50/31/36 54/35/35 58/65/35 
f 47/102/35 50/31/36 58/65/35 
f 48/103/35 47/102/35 58/65/35 
s 8
f 48/76/12 58/92/32 36/93/32 
f 36/93/32 35/77/12 48/76/12 
f 69/104/24 38/80/24 37/78/23 
f 37/78/23 70/105/23 69/104/24 
f 35/77/12 60/95/12 70/105/23 
f 70/105/23 37/78/23 35/77/12 
f 68/17/25 46/81/25 38/80/24 
f 38/80/24 69/104/24 68/17/25 
f 67/1/26 45/83/26 46/82/25 
f 46/82/25 68/4/25 67/1/26 
f 66/5/27 44/84/27 45/83/26 
f 45/83/26 67/1/26 66/5/27 
f 65/7/14 43/85/14 44/84/27 
f 44/84/27 66/5/27 65/7/14 
f 64/9/28 42/86/28 43/85/14 
f 43/85/14 65/7/14 64/9/28 
f 63/11/29 41/87/29 42/86/28 
f 42/86/28 64/9/28 63/11/29 
f 62/106/30 40/89/30 41/87/29 
f 41/87/29 63/11/29 62/106/30 
f 61/107/31 39/91/31 40/89/30 
f 40/89/30 62/106/30 61/107/31 
f 59/94/32 36/93/32 39/91/31 
f 39/91/31 61/107/31 59/94/32 
# 144 faces

