# 3ds Max Wavefront OBJ Exporter v0.99 - (c)2007 guruware
# File Created: 13.05.2026 16:41:04

mtllib column.mtl

#
# object column
#

v  24.3391 110.0000 -1.1457
v  25.0000 110.0000 -0.0000
v  25.0000 0.0000 -0.0000
v  24.3391 0.0000 -1.1457
v  22.4568 110.0000 -2.1978
v  22.4568 0.0000 -2.1978
v  19.5039 110.0000 -3.1262
v  19.5039 0.0000 -3.1262
v  15.6310 110.0000 -3.9008
v  15.6310 0.0000 -3.9008
v  10.9889 110.0000 -4.4914
v  10.9889 0.0000 -4.4914
v  5.7283 110.0000 -4.8678
v  5.7283 0.0000 -4.8678
v  -0.0000 110.0000 -5.0000
v  -0.0000 0.0000 -5.0000
v  -5.7283 110.0000 -4.8678
v  -5.7283 0.0000 -4.8678
v  -10.9889 110.0000 -4.4914
v  -10.9889 0.0000 -4.4914
v  -15.6310 110.0000 -3.9008
v  -15.6310 0.0000 -3.9008
v  -19.5039 110.0000 -3.1262
v  -19.5039 0.0000 -3.1262
v  -22.4568 110.0000 -2.1978
v  -22.4568 0.0000 -2.1978
v  -24.3391 110.0000 -1.1457
v  -24.3391 0.0000 -1.1457
v  -25.0000 110.0000 0.0000
v  -25.0000 0.0000 0.0000
v  -24.3391 110.0000 1.1457
v  -24.3391 0.0000 1.1457
v  -22.4568 110.0000 2.1978
v  -22.4568 0.0000 2.1978
v  -19.5039 110.0000 3.1262
v  -19.5039 0.0000 3.1262
v  -15.6310 110.0000 3.9008
v  -15.6310 0.0000 3.9008
v  -10.9889 110.0000 4.4914
v  -10.9889 0.0000 4.4914
v  -5.7283 110.0000 4.8678
v  -5.7283 0.0000 4.8678
v  0.0000 110.0000 5.0000
v  0.0000 0.0000 5.0000
v  5.7283 110.0000 4.8678
v  5.7283 0.0000 4.8678
v  10.9889 110.0000 4.4914
v  10.9889 0.0000 4.4914
v  15.6310 110.0000 3.9008
v  15.6310 0.0000 3.9008
v  19.5039 110.0000 3.1262
v  19.5039 0.0000 3.1262
v  22.4568 110.0000 2.1978
v  22.4568 0.0000 2.1978
v  24.3391 110.0000 1.1457
v  24.3391 0.0000 1.1457
# 56 vertices

vn 0.7023 0.0000 -0.7119
vn 1.0000 0.0000 0.0000
vn 0.3960 0.0000 -0.9183
vn 0.2484 0.0000 -0.9687
vn 0.1613 0.0000 -0.9869
vn 0.0988 0.0000 -0.9951
vn 0.0472 0.0000 -0.9989
vn 0.0000 0.0000 -1.0000
vn -0.0472 0.0000 -0.9989
vn -0.0988 0.0000 -0.9951
vn -0.1613 0.0000 -0.9869
vn -0.2484 0.0000 -0.9687
vn -0.3960 0.0000 -0.9183
vn -0.7023 0.0000 -0.7119
vn -1.0000 0.0000 0.0000
vn -1.0000 0.0000 -0.0000
vn -0.7023 0.0000 0.7119
vn -0.3960 0.0000 0.9183
vn -0.2484 0.0000 0.9687
vn -0.1613 0.0000 0.9869
vn -0.0988 0.0000 0.9951
vn -0.0472 0.0000 0.9989
vn -0.0000 0.0000 1.0000
vn 0.0472 0.0000 0.9989
vn 0.0988 0.0000 0.9951
vn 0.1613 0.0000 0.9869
vn 0.2484 0.0000 0.9687
vn 0.3960 0.0000 0.9183
vn 0.7023 0.0000 0.7119
vn 0.0000 -1.0000 -0.0000
vn 0.0000 1.0000 -0.0000
# 31 vertex normals

vt 3.9339 5.0000 1.0002
vt 3.7500 5.0000 1.0000
vt 3.7500 0.0000 1.0000
vt 3.9339 0.0000 1.0002
vt 4.1121 5.0000 1.0001
vt 4.1121 0.0000 1.0001
vt 4.2876 5.0000 0.9998
vt 4.2876 0.0000 0.9998
vt 4.4624 5.0000 0.9998
vt 4.4624 0.0000 0.9998
vt 4.6379 5.0000 1.0001
vt 4.6379 0.0000 1.0001
vt 4.8161 5.0000 1.0002
vt 4.8161 0.0000 1.0002
vt 5.0000 5.0000 1.0000
vt 5.0000 0.0000 1.0000
vt 0.1839 5.0000 1.0002
vt 0.0000 5.0000 1.0000
vt 0.0000 0.0000 1.0000
vt 0.1839 0.0000 1.0002
vt 0.3621 5.0000 1.0001
vt 0.3621 0.0000 1.0001
vt 0.5376 5.0000 0.9998
vt 0.5376 0.0000 0.9998
vt 0.7124 5.0000 0.9998
vt 0.7124 0.0000 0.9998
vt 0.8879 5.0000 1.0001
vt 0.8879 0.0000 1.0001
vt 1.0661 5.0000 1.0002
vt 1.0661 0.0000 1.0002
vt 1.2500 5.0000 1.0000
vt 1.2500 0.0000 1.0000
vt 1.4339 5.0000 1.0002
vt 1.4339 0.0000 1.0002
vt 1.6121 5.0000 1.0001
vt 1.6121 0.0000 1.0001
vt 1.7876 5.0000 0.9998
vt 1.7876 0.0000 0.9998
vt 1.9624 5.0000 0.9998
vt 1.9624 0.0000 0.9998
vt 2.1379 5.0000 1.0001
vt 2.1379 0.0000 1.0001
vt 2.3161 5.0000 1.0002
vt 2.3161 0.0000 1.0002
vt 2.5000 5.0000 1.0000
vt 2.5000 0.0000 1.0000
vt 2.6839 5.0000 1.0002
vt 2.6839 0.0000 1.0002
vt 2.8621 5.0000 1.0001
vt 2.8621 0.0000 1.0001
vt 3.0376 5.0000 0.9998
vt 3.0376 0.0000 0.9998
vt 3.2124 5.0000 0.9998
vt 3.2124 0.0000 0.9998
vt 3.3879 5.0000 1.0001
vt 3.3879 0.0000 1.0001
vt 3.5661 5.0000 1.0002
vt 3.5661 0.0000 1.0002
vt -1.0661 0.0000 1.0002
vt -1.2500 0.0000 1.0000
vt -1.4339 0.0000 1.0002
vt -0.8879 0.0000 1.0001
vt -1.6121 0.0000 1.0001
vt -1.7876 0.0000 0.9998
vt -0.7124 0.0000 0.9998
vt -1.9624 0.0000 0.9998
vt -0.5376 0.0000 0.9998
vt -2.1379 0.0000 1.0001
vt -0.3621 0.0000 1.0001
vt -2.3161 0.0000 1.0002
vt -0.1839 0.0000 1.0002
vt -2.5000 0.0000 1.0000
vt -2.6839 0.0000 1.0002
vt -2.8621 0.0000 1.0001
vt -3.0376 0.0000 0.9998
vt -3.2124 0.0000 0.9998
vt -3.3879 0.0000 1.0001
vt -3.5661 0.0000 1.0002
vt -3.9339 0.0000 1.0002
vt -3.7500 0.0000 1.0000
vt 6.0661 5.0000 1.0002
vt 5.1839 5.0000 1.0002
vt 5.3621 5.0000 1.0001
vt 5.5376 5.0000 0.9998
vt 5.7124 5.0000 0.9998
vt 5.8879 5.0000 1.0001
# 86 texture coords

o column
g column
usemtl 07___Default
s 1
f 1/1/1 2/2/2 3/3/2 
f 3/3/2 4/4/1 1/1/1 
s 3
f 5/5/3 1/1/1 4/4/1 
f 4/4/1 6/6/3 5/5/3 
s 2
f 7/7/4 5/5/3 6/6/3 
f 6/6/3 8/8/4 7/7/4 
f 9/9/5 7/7/4 8/8/4 
f 8/8/4 10/10/5 9/9/5 
f 11/11/6 9/9/5 10/10/5 
f 10/10/5 12/12/6 11/11/6 
f 13/13/7 11/11/6 12/12/6 
f 12/12/6 14/14/7 13/13/7 
f 15/15/8 13/13/7 14/14/7 
f 14/14/7 16/16/8 15/15/8 
f 17/17/9 15/18/8 16/19/8 
f 16/19/8 18/20/9 17/17/9 
f 19/21/10 17/17/9 18/20/9 
f 18/20/9 20/22/10 19/21/10 
f 21/23/11 19/21/10 20/22/10 
f 20/22/10 22/24/11 21/23/11 
f 23/25/12 21/23/11 22/24/11 
f 22/24/11 24/26/12 23/25/12 
f 25/27/13 23/25/12 24/26/12 
f 24/26/12 26/28/13 25/27/13 
f 27/29/14 25/27/13 26/28/13 
f 26/28/13 28/30/14 27/29/14 
f 29/31/15 27/29/14 28/30/14 
f 28/30/14 30/32/16 29/31/15 
f 31/33/17 29/31/15 30/32/16 
f 30/32/16 32/34/17 31/33/17 
f 33/35/18 31/33/17 32/34/17 
f 32/34/17 34/36/18 33/35/18 
f 35/37/19 33/35/18 34/36/18 
f 34/36/18 36/38/19 35/37/19 
f 37/39/20 35/37/19 36/38/19 
f 36/38/19 38/40/20 37/39/20 
f 39/41/21 37/39/20 38/40/20 
f 38/40/20 40/42/21 39/41/21 
f 41/43/22 39/41/21 40/42/21 
f 40/42/21 42/44/22 41/43/22 
f 43/45/23 41/43/22 42/44/22 
f 42/44/22 44/46/23 43/45/23 
f 45/47/24 43/45/23 44/46/23 
f 44/46/23 46/48/24 45/47/24 
f 47/49/25 45/47/24 46/48/24 
f 46/48/24 48/50/25 47/49/25 
f 49/51/26 47/49/25 48/50/25 
f 48/50/25 50/52/26 49/51/26 
f 51/53/27 49/51/26 50/52/26 
f 50/52/26 52/54/27 51/53/27 
f 53/55/28 51/53/27 52/54/27 
f 52/54/27 54/56/28 53/55/28 
f 55/57/29 53/55/28 54/56/28 
f 54/56/28 56/58/29 55/57/29 
s 3
f 2/2/2 55/57/29 56/58/29 
f 56/58/29 3/3/2 2/2/2 
s 16
f 4/59/30 3/60/30 56/61/30 
f 6/62/30 4/59/30 56/61/30 
f 6/62/30 56/61/30 54/63/30 
f 6/62/30 54/63/30 52/64/30 
f 8/65/30 6/62/30 52/64/30 
f 8/65/30 52/64/30 50/66/30 
f 10/67/30 8/65/30 50/66/30 
f 10/67/30 50/66/30 48/68/30 
f 12/69/30 10/67/30 48/68/30 
f 12/69/30 48/68/30 46/70/30 
f 14/71/30 12/69/30 46/70/30 
f 14/71/30 46/70/30 44/72/30 
f 16/19/30 14/71/30 44/72/30 
f 16/19/30 44/72/30 42/73/30 
f 18/20/30 16/19/30 42/73/30 
f 18/20/30 42/73/30 40/74/30 
f 20/22/30 18/20/30 40/74/30 
f 22/24/30 20/22/30 40/74/30 
f 22/24/30 40/74/30 38/75/30 
f 22/24/30 38/75/30 36/76/30 
f 24/26/30 22/24/30 36/76/30 
f 26/28/30 24/26/30 36/76/30 
f 26/28/30 36/76/30 34/77/30 
f 26/28/30 34/77/30 32/78/30 
f 28/79/30 26/28/30 32/78/30 
f 28/79/30 32/78/30 30/80/30 
f 27/81/31 29/31/31 31/33/31 
f 55/57/31 2/2/31 1/1/31 
f 55/57/31 1/1/31 5/5/31 
f 53/55/31 55/57/31 5/5/31 
f 51/53/31 53/55/31 5/5/31 
f 51/53/31 5/5/31 7/7/31 
f 49/51/31 51/53/31 7/7/31 
f 49/51/31 7/7/31 9/9/31 
f 47/49/31 49/51/31 9/9/31 
f 47/49/31 9/9/31 11/11/31 
f 45/47/31 47/49/31 11/11/31 
f 45/47/31 11/11/31 13/13/31 
f 43/45/31 45/47/31 13/13/31 
f 43/45/31 13/13/31 15/15/31 
f 41/43/31 43/45/31 15/15/31 
f 41/43/31 15/15/31 17/82/31 
f 39/41/31 41/43/31 17/82/31 
f 39/41/31 17/82/31 19/83/31 
f 39/41/31 19/83/31 21/84/31 
f 37/39/31 39/41/31 21/84/31 
f 35/37/31 37/39/31 21/84/31 
f 35/37/31 21/84/31 23/85/31 
f 35/37/31 23/85/31 25/86/31 
f 33/35/31 35/37/31 25/86/31 
f 31/33/31 33/35/31 25/86/31 
f 27/81/31 31/33/31 25/86/31 
# 108 faces

