# 3ds Max Wavefront OBJ Exporter v0.99 - (c)2007 guruware
# File Created: 13.05.2026 18:52:23

mtllib piso.mtl

#
# object Plane001
#

#
# object piso
#

v  -9.9971 0.0000 39.7859
v  -1.2893 0.0000 39.7859
v  -1.2893 0.0000 31.8325
v  -9.9971 0.0000 31.8325
v  7.4185 0.0000 39.7859
v  7.4185 0.0000 31.8325
v  16.1263 0.0000 39.7859
v  16.1263 0.0000 31.8325
v  24.8341 0.0000 39.7859
v  24.8341 0.0000 31.8325
v  33.5419 0.0000 39.7859
v  33.5419 0.0000 31.8325
v  42.2497 0.0000 39.7859
v  42.2497 0.0000 31.8325
v  50.9575 0.0000 39.7859
v  50.9575 0.0000 31.8325
v  59.6653 0.0000 39.7859
v  59.6653 0.0000 31.8325
v  -1.2893 0.0000 23.8791
v  -9.9971 0.0000 23.8791
v  7.4185 0.0000 23.8791
v  16.1263 0.0000 23.8791
v  24.8341 0.0000 23.8791
v  33.5419 0.0000 23.8791
v  42.2497 0.0000 23.8791
v  50.9575 0.0000 23.8791
v  59.6653 0.0000 23.8791
v  -1.2893 0.0000 15.9257
v  -9.9971 0.0000 15.9257
v  7.4185 0.0000 15.9257
v  16.1263 0.0000 15.9257
v  24.8341 0.0000 15.9257
v  33.5419 0.0000 15.9257
v  42.2497 0.0000 15.9257
v  50.9575 0.0000 15.9257
v  59.6653 0.0000 15.9257
v  -1.2893 0.0000 7.9723
v  -9.9971 0.0000 7.9723
v  7.4185 0.0000 7.9723
v  16.1263 0.0000 7.9723
v  24.8341 0.0000 7.9723
v  33.5419 0.0000 7.9723
v  42.2497 0.0000 7.9723
v  50.9575 0.0000 7.9723
v  59.6653 0.0000 7.9723
v  -1.2893 0.0000 0.0189
v  -9.9971 0.0000 0.0189
v  7.4185 0.0000 0.0189
v  16.1263 0.0000 0.0189
v  24.8341 0.0000 0.0189
v  33.5419 0.0000 0.0189
v  42.2497 0.0000 0.0189
v  50.9575 0.0000 0.0189
v  59.6653 0.0000 0.0189
v  -1.2893 0.0000 -7.9345
v  -9.9971 0.0000 -7.9345
v  7.4185 0.0000 -7.9345
v  16.1263 0.0000 -7.9345
v  24.8341 0.0000 -7.9345
v  33.5419 0.0000 -7.9345
v  42.2497 0.0000 -7.9345
v  50.9575 0.0000 -7.9345
v  59.6653 0.0000 -7.9345
v  -1.2893 0.0000 -15.8880
v  -9.9971 0.0000 -15.8880
v  7.4185 0.0000 -15.8880
v  16.1263 0.0000 -15.8880
v  24.8341 0.0000 -15.8880
v  33.5419 0.0000 -15.8880
v  42.2497 0.0000 -15.8880
v  50.9575 0.0000 -15.8880
v  59.6653 0.0000 -15.8880
v  -1.2893 0.0000 -23.8414
v  -9.9971 0.0000 -23.8414
v  7.4185 0.0000 -23.8414
v  16.1263 0.0000 -23.8414
v  24.8341 0.0000 -23.8414
v  33.5419 0.0000 -23.8414
v  42.2497 0.0000 -23.8414
v  50.9575 0.0000 -23.8414
v  59.6653 0.0000 -23.8414
# 81 vertices

vn 0.0000 1.0000 -0.0000
# 1 vertex normals

vt 0.1000 0.1000 0.0000
vt 0.2000 0.1000 0.0000
vt 0.2000 0.2000 0.0000
vt 0.1000 0.2000 0.0000
vt 0.3000 0.1000 0.0000
vt 0.3000 0.2000 0.0000
vt 0.4000 0.1000 0.0000
vt 0.4000 0.2000 0.0000
vt 0.5000 0.1000 0.0000
vt 0.5000 0.2000 0.0000
vt 0.6000 0.1000 0.0000
vt 0.6000 0.2000 0.0000
vt 0.7000 0.1000 0.0000
vt 0.7000 0.2000 0.0000
vt 0.8000 0.1000 0.0000
vt 0.8000 0.2000 0.0000
vt 0.9000 0.1000 0.0000
vt 0.9000 0.2000 0.0000
vt 0.2000 0.3000 0.0000
vt 0.1000 0.3000 0.0000
vt 0.3000 0.3000 0.0000
vt 0.4000 0.3000 0.0000
vt 0.5000 0.3000 0.0000
vt 0.6000 0.3000 0.0000
vt 0.7000 0.3000 0.0000
vt 0.8000 0.3000 0.0000
vt 0.9000 0.3000 0.0000
vt 0.2000 0.4000 0.0000
vt 0.1000 0.4000 0.0000
vt 0.3000 0.4000 0.0000
vt 0.4000 0.4000 0.0000
vt 0.5000 0.4000 0.0000
vt 0.6000 0.4000 0.0000
vt 0.7000 0.4000 0.0000
vt 0.8000 0.4000 0.0000
vt 0.9000 0.4000 0.0000
vt 0.2000 0.5000 0.0000
vt 0.1000 0.5000 0.0000
vt 0.3000 0.5000 0.0000
vt 0.4000 0.5000 0.0000
vt 0.5000 0.5000 0.0000
vt 0.6000 0.5000 0.0000
vt 0.7000 0.5000 0.0000
vt 0.8000 0.5000 0.0000
vt 0.9000 0.5000 0.0000
vt 0.2000 0.6000 0.0000
vt 0.1000 0.6000 0.0000
vt 0.3000 0.6000 0.0000
vt 0.4000 0.6000 0.0000
vt 0.5000 0.6000 0.0000
vt 0.6000 0.6000 0.0000
vt 0.7000 0.6000 0.0000
vt 0.8000 0.6000 0.0000
vt 0.9000 0.6000 0.0000
vt 0.2000 0.7000 0.0000
vt 0.1000 0.7000 0.0000
vt 0.3000 0.7000 0.0000
vt 0.4000 0.7000 0.0000
vt 0.5000 0.7000 0.0000
vt 0.6000 0.7000 0.0000
vt 0.7000 0.7000 0.0000
vt 0.8000 0.7000 0.0000
vt 0.9000 0.7000 0.0000
vt 0.2000 0.8000 0.0000
vt 0.1000 0.8000 0.0000
vt 0.3000 0.8000 0.0000
vt 0.4000 0.8000 0.0000
vt 0.5000 0.8000 0.0000
vt 0.6000 0.8000 0.0000
vt 0.7000 0.8000 0.0000
vt 0.8000 0.8000 0.0000
vt 0.9000 0.8000 0.0000
vt 0.2000 0.9000 0.0000
vt 0.1000 0.9000 0.0000
vt 0.3000 0.9000 0.0000
vt 0.4000 0.9000 0.0000
vt 0.5000 0.9000 0.0000
vt 0.6000 0.9000 0.0000
vt 0.7000 0.9000 0.0000
vt 0.8000 0.9000 0.0000
vt 0.9000 0.9000 0.0000
# 81 texture coords

o piso
g piso
usemtl Material__699
s 1
f 1/1/1 2/2/1 3/3/1 
f 3/3/1 4/4/1 1/1/1 
f 2/2/1 5/5/1 6/6/1 
f 6/6/1 3/3/1 2/2/1 
f 5/5/1 7/7/1 8/8/1 
f 8/8/1 6/6/1 5/5/1 
f 7/7/1 9/9/1 10/10/1 
f 10/10/1 8/8/1 7/7/1 
f 9/9/1 11/11/1 12/12/1 
f 12/12/1 10/10/1 9/9/1 
f 11/11/1 13/13/1 14/14/1 
f 14/14/1 12/12/1 11/11/1 
f 13/13/1 15/15/1 16/16/1 
f 16/16/1 14/14/1 13/13/1 
f 15/15/1 17/17/1 18/18/1 
f 18/18/1 16/16/1 15/15/1 
f 4/4/1 3/3/1 19/19/1 
f 19/19/1 20/20/1 4/4/1 
f 3/3/1 6/6/1 21/21/1 
f 21/21/1 19/19/1 3/3/1 
f 6/6/1 8/8/1 22/22/1 
f 22/22/1 21/21/1 6/6/1 
f 8/8/1 10/10/1 23/23/1 
f 23/23/1 22/22/1 8/8/1 
f 10/10/1 12/12/1 24/24/1 
f 24/24/1 23/23/1 10/10/1 
f 12/12/1 14/14/1 25/25/1 
f 25/25/1 24/24/1 12/12/1 
f 14/14/1 16/16/1 26/26/1 
f 26/26/1 25/25/1 14/14/1 
f 16/16/1 18/18/1 27/27/1 
f 27/27/1 26/26/1 16/16/1 
f 20/20/1 19/19/1 28/28/1 
f 28/28/1 29/29/1 20/20/1 
f 19/19/1 21/21/1 30/30/1 
f 30/30/1 28/28/1 19/19/1 
f 21/21/1 22/22/1 31/31/1 
f 31/31/1 30/30/1 21/21/1 
f 22/22/1 23/23/1 32/32/1 
f 32/32/1 31/31/1 22/22/1 
f 23/23/1 24/24/1 33/33/1 
f 33/33/1 32/32/1 23/23/1 
f 24/24/1 25/25/1 34/34/1 
f 34/34/1 33/33/1 24/24/1 
f 25/25/1 26/26/1 35/35/1 
f 35/35/1 34/34/1 25/25/1 
f 26/26/1 27/27/1 36/36/1 
f 36/36/1 35/35/1 26/26/1 
f 29/29/1 28/28/1 37/37/1 
f 37/37/1 38/38/1 29/29/1 
f 28/28/1 30/30/1 39/39/1 
f 39/39/1 37/37/1 28/28/1 
f 30/30/1 31/31/1 40/40/1 
f 40/40/1 39/39/1 30/30/1 
f 31/31/1 32/32/1 41/41/1 
f 41/41/1 40/40/1 31/31/1 
f 32/32/1 33/33/1 42/42/1 
f 42/42/1 41/41/1 32/32/1 
f 33/33/1 34/34/1 43/43/1 
f 43/43/1 42/42/1 33/33/1 
f 34/34/1 35/35/1 44/44/1 
f 44/44/1 43/43/1 34/34/1 
f 35/35/1 36/36/1 45/45/1 
f 45/45/1 44/44/1 35/35/1 
f 38/38/1 37/37/1 46/46/1 
f 46/46/1 47/47/1 38/38/1 
f 37/37/1 39/39/1 48/48/1 
f 48/48/1 46/46/1 37/37/1 
f 39/39/1 40/40/1 49/49/1 
f 49/49/1 48/48/1 39/39/1 
f 40/40/1 41/41/1 50/50/1 
f 50/50/1 49/49/1 40/40/1 
f 41/41/1 42/42/1 51/51/1 
f 51/51/1 50/50/1 41/41/1 
f 42/42/1 43/43/1 52/52/1 
f 52/52/1 51/51/1 42/42/1 
f 43/43/1 44/44/1 53/53/1 
f 53/53/1 52/52/1 43/43/1 
f 44/44/1 45/45/1 54/54/1 
f 54/54/1 53/53/1 44/44/1 
f 47/47/1 46/46/1 55/55/1 
f 55/55/1 56/56/1 47/47/1 
f 46/46/1 48/48/1 57/57/1 
f 57/57/1 55/55/1 46/46/1 
f 48/48/1 49/49/1 58/58/1 
f 58/58/1 57/57/1 48/48/1 
f 49/49/1 50/50/1 59/59/1 
f 59/59/1 58/58/1 49/49/1 
f 50/50/1 51/51/1 60/60/1 
f 60/60/1 59/59/1 50/50/1 
f 51/51/1 52/52/1 61/61/1 
f 61/61/1 60/60/1 51/51/1 
f 52/52/1 53/53/1 62/62/1 
f 62/62/1 61/61/1 52/52/1 
f 53/53/1 54/54/1 63/63/1 
f 63/63/1 62/62/1 53/53/1 
f 56/56/1 55/55/1 64/64/1 
f 64/64/1 65/65/1 56/56/1 
f 55/55/1 57/57/1 66/66/1 
f 66/66/1 64/64/1 55/55/1 
f 57/57/1 58/58/1 67/67/1 
f 67/67/1 66/66/1 57/57/1 
f 58/58/1 59/59/1 68/68/1 
f 68/68/1 67/67/1 58/58/1 
f 59/59/1 60/60/1 69/69/1 
f 69/69/1 68/68/1 59/59/1 
f 60/60/1 61/61/1 70/70/1 
f 70/70/1 69/69/1 60/60/1 
f 61/61/1 62/62/1 71/71/1 
f 71/71/1 70/70/1 61/61/1 
f 62/62/1 63/63/1 72/72/1 
f 72/72/1 71/71/1 62/62/1 
f 65/65/1 64/64/1 73/73/1 
f 73/73/1 74/74/1 65/65/1 
f 64/64/1 66/66/1 75/75/1 
f 75/75/1 73/73/1 64/64/1 
f 66/66/1 67/67/1 76/76/1 
f 76/76/1 75/75/1 66/66/1 
f 67/67/1 68/68/1 77/77/1 
f 77/77/1 76/76/1 67/67/1 
f 68/68/1 69/69/1 78/78/1 
f 78/78/1 77/77/1 68/68/1 
f 69/69/1 70/70/1 79/79/1 
f 79/79/1 78/78/1 69/69/1 
f 70/70/1 71/71/1 80/80/1 
f 80/80/1 79/79/1 70/70/1 
f 71/71/1 72/72/1 81/81/1 
f 81/81/1 80/80/1 71/71/1 
# 128 faces

#
# object borde
#

v  -18.7048 0.0000 47.7393
v  -9.9971 0.0000 47.7393
v  -9.9971 0.0000 39.7859
v  -18.7048 0.0000 39.7859
v  -1.2893 0.0000 47.7393
v  -1.2893 0.0000 39.7859
v  7.4185 0.0000 47.7393
v  7.4185 0.0000 39.7859
v  16.1263 0.0000 47.7393
v  16.1263 0.0000 39.7859
v  24.8341 0.0000 47.7393
v  24.8341 0.0000 39.7859
v  33.5419 0.0000 47.7393
v  33.5419 0.0000 39.7859
v  42.2497 0.0000 47.7393
v  42.2497 0.0000 39.7859
v  50.9575 0.0000 47.7393
v  50.9575 0.0000 39.7859
v  59.6653 0.0000 47.7393
v  59.6653 0.0000 39.7859
v  68.3731 0.0000 47.7393
v  68.3731 0.0000 39.7859
v  -9.9971 0.0000 31.8325
v  -18.7048 0.0000 31.8325
v  68.3731 0.0000 31.8325
v  59.6653 0.0000 31.8325
v  -9.9971 0.0000 23.8791
v  -18.7048 0.0000 23.8791
v  68.3731 0.0000 23.8791
v  59.6653 0.0000 23.8791
v  -9.9971 0.0000 15.9257
v  -18.7048 0.0000 15.9257
v  68.3731 0.0000 15.9257
v  59.6653 0.0000 15.9257
v  -9.9971 0.0000 7.9723
v  -18.7048 0.0000 7.9723
v  68.3731 0.0000 7.9723
v  59.6653 0.0000 7.9723
v  -9.9971 0.0000 0.0189
v  -18.7048 0.0000 0.0189
v  68.3731 0.0000 0.0189
v  59.6653 0.0000 0.0189
v  -9.9971 0.0000 -7.9345
v  -18.7048 0.0000 -7.9345
v  68.3731 0.0000 -7.9345
v  59.6653 0.0000 -7.9345
v  -9.9971 0.0000 -15.8880
v  -18.7048 0.0000 -15.8880
v  68.3731 0.0000 -15.8880
v  59.6653 0.0000 -15.8880
v  -9.9971 0.0000 -23.8414
v  -18.7048 0.0000 -23.8414
v  68.3731 0.0000 -23.8414
v  59.6653 0.0000 -23.8414
v  -9.9971 0.0000 -31.7948
v  -18.7048 0.0000 -31.7948
v  -1.2893 0.0000 -23.8414
v  -1.2893 0.0000 -31.7948
v  7.4185 0.0000 -23.8414
v  7.4185 0.0000 -31.7948
v  16.1263 0.0000 -23.8414
v  16.1263 0.0000 -31.7948
v  24.8341 0.0000 -23.8414
v  24.8341 0.0000 -31.7948
v  33.5419 0.0000 -23.8414
v  33.5419 0.0000 -31.7948
v  42.2497 0.0000 -23.8414
v  42.2497 0.0000 -31.7948
v  50.9575 0.0000 -23.8414
v  50.9575 0.0000 -31.7948
v  59.6653 0.0000 -31.7948
v  68.3731 0.0000 -31.7948
# 72 vertices

vn 0.0000 1.0000 -0.0000
# 1 vertex normals

vt 0.0000 0.0000 0.0000
vt 0.1000 0.0000 0.0000
vt 0.1000 0.1000 0.0000
vt 0.0000 0.1000 0.0000
vt 0.2000 0.0000 0.0000
vt 0.2000 0.1000 0.0000
vt 0.3000 0.0000 0.0000
vt 0.3000 0.1000 0.0000
vt 0.4000 0.0000 0.0000
vt 0.4000 0.1000 0.0000
vt 0.5000 0.0000 0.0000
vt 0.5000 0.1000 0.0000
vt 0.6000 0.0000 0.0000
vt 0.6000 0.1000 0.0000
vt 0.7000 0.0000 0.0000
vt 0.7000 0.1000 0.0000
vt 0.8000 0.0000 0.0000
vt 0.8000 0.1000 0.0000
vt 0.9000 0.0000 0.0000
vt 0.9000 0.1000 0.0000
vt 1.0000 0.0000 0.0000
vt 1.0000 0.1000 0.0000
vt 0.1000 0.2000 0.0000
vt 0.0000 0.2000 0.0000
vt 1.0000 0.2000 0.0000
vt 0.9000 0.2000 0.0000
vt 0.1000 0.3000 0.0000
vt 0.0000 0.3000 0.0000
vt 1.0000 0.3000 0.0000
vt 0.9000 0.3000 0.0000
vt 0.1000 0.4000 0.0000
vt 0.0000 0.4000 0.0000
vt 1.0000 0.4000 0.0000
vt 0.9000 0.4000 0.0000
vt 0.1000 0.5000 0.0000
vt 0.0000 0.5000 0.0000
vt 1.0000 0.5000 0.0000
vt 0.9000 0.5000 0.0000
vt 0.1000 0.6000 0.0000
vt 0.0000 0.6000 0.0000
vt 1.0000 0.6000 0.0000
vt 0.9000 0.6000 0.0000
vt 0.1000 0.7000 0.0000
vt 0.0000 0.7000 0.0000
vt 1.0000 0.7000 0.0000
vt 0.9000 0.7000 0.0000
vt 0.1000 0.8000 0.0000
vt 0.0000 0.8000 0.0000
vt 1.0000 0.8000 0.0000
vt 0.9000 0.8000 0.0000
vt 0.1000 0.9000 0.0000
vt 0.0000 0.9000 0.0000
vt 1.0000 0.9000 0.0000
vt 0.9000 0.9000 0.0000
vt 0.1000 1.0000 0.0000
vt 0.0000 1.0000 0.0000
vt 0.2000 0.9000 0.0000
vt 0.2000 1.0000 0.0000
vt 0.3000 0.9000 0.0000
vt 0.3000 1.0000 0.0000
vt 0.4000 0.9000 0.0000
vt 0.4000 1.0000 0.0000
vt 0.5000 0.9000 0.0000
vt 0.5000 1.0000 0.0000
vt 0.6000 0.9000 0.0000
vt 0.6000 1.0000 0.0000
vt 0.7000 0.9000 0.0000
vt 0.7000 1.0000 0.0000
vt 0.8000 0.9000 0.0000
vt 0.8000 1.0000 0.0000
vt 0.9000 1.0000 0.0000
vt 1.0000 1.0000 0.0000
# 72 texture coords

o borde
g borde
usemtl Material__696
s 1
f 82/82/2 83/83/2 84/84/2 
f 84/84/2 85/85/2 82/82/2 
f 83/83/2 86/86/2 87/87/2 
f 87/87/2 84/84/2 83/83/2 
f 86/86/2 88/88/2 89/89/2 
f 89/89/2 87/87/2 86/86/2 
f 88/88/2 90/90/2 91/91/2 
f 91/91/2 89/89/2 88/88/2 
f 90/90/2 92/92/2 93/93/2 
f 93/93/2 91/91/2 90/90/2 
f 92/92/2 94/94/2 95/95/2 
f 95/95/2 93/93/2 92/92/2 
f 94/94/2 96/96/2 97/97/2 
f 97/97/2 95/95/2 94/94/2 
f 96/96/2 98/98/2 99/99/2 
f 99/99/2 97/97/2 96/96/2 
f 98/98/2 100/100/2 101/101/2 
f 101/101/2 99/99/2 98/98/2 
f 100/100/2 102/102/2 103/103/2 
f 103/103/2 101/101/2 100/100/2 
f 85/85/2 84/84/2 104/104/2 
f 104/104/2 105/105/2 85/85/2 
f 101/101/2 103/103/2 106/106/2 
f 106/106/2 107/107/2 101/101/2 
f 105/105/2 104/104/2 108/108/2 
f 108/108/2 109/109/2 105/105/2 
f 107/107/2 106/106/2 110/110/2 
f 110/110/2 111/111/2 107/107/2 
f 109/109/2 108/108/2 112/112/2 
f 112/112/2 113/113/2 109/109/2 
f 111/111/2 110/110/2 114/114/2 
f 114/114/2 115/115/2 111/111/2 
f 113/113/2 112/112/2 116/116/2 
f 116/116/2 117/117/2 113/113/2 
f 115/115/2 114/114/2 118/118/2 
f 118/118/2 119/119/2 115/115/2 
f 117/117/2 116/116/2 120/120/2 
f 120/120/2 121/121/2 117/117/2 
f 119/119/2 118/118/2 122/122/2 
f 122/122/2 123/123/2 119/119/2 
f 121/121/2 120/120/2 124/124/2 
f 124/124/2 125/125/2 121/121/2 
f 123/123/2 122/122/2 126/126/2 
f 126/126/2 127/127/2 123/123/2 
f 125/125/2 124/124/2 128/128/2 
f 128/128/2 129/129/2 125/125/2 
f 127/127/2 126/126/2 130/130/2 
f 130/130/2 131/131/2 127/127/2 
f 129/129/2 128/128/2 132/132/2 
f 132/132/2 133/133/2 129/129/2 
f 131/131/2 130/130/2 134/134/2 
f 134/134/2 135/135/2 131/131/2 
f 133/133/2 132/132/2 136/136/2 
f 136/136/2 137/137/2 133/133/2 
f 132/132/2 138/138/2 139/139/2 
f 139/139/2 136/136/2 132/132/2 
f 138/138/2 140/140/2 141/141/2 
f 141/141/2 139/139/2 138/138/2 
f 140/140/2 142/142/2 143/143/2 
f 143/143/2 141/141/2 140/140/2 
f 142/142/2 144/144/2 145/145/2 
f 145/145/2 143/143/2 142/142/2 
f 144/144/2 146/146/2 147/147/2 
f 147/147/2 145/145/2 144/144/2 
f 146/146/2 148/148/2 149/149/2 
f 149/149/2 147/147/2 146/146/2 
f 148/148/2 150/150/2 151/151/2 
f 151/151/2 149/149/2 148/148/2 
f 150/150/2 135/135/2 152/152/2 
f 152/152/2 151/151/2 150/150/2 
f 135/135/2 134/134/2 153/153/2 
f 153/153/2 152/152/2 135/135/2 
# 72 faces

